<svg width="65" height="30" viewBox="0 0 65 30" fill="none" xmlns="http://www.w3.org/2000/svg">
<path d="M64.5 3C64.5 1.61929 63.3807 0.5 62 0.5H10.7681C9.64985 0.5 8.66761 1.2426 8.36278 2.31849L1.56278 26.3185C1.11063 27.9143 2.30944 29.5 3.96809 29.5H62C63.3807 29.5 64.5 28.3807 64.5 27V3Z" fill="url(#paint0_linear_57_507)" stroke="white"/>
<path d="M9.14 20C9.06 20 9.02 19.96 9.02 19.88V12.26C9.02 12.18 9.06 12.14 9.14 12.14H13.22C13.3 12.14 13.34 12.18 13.34 12.26V12.944C13.34 13.024 13.3 13.064 13.22 13.064H10.04V19.88C10.04 19.96 10 20 9.92 20H9.14ZM12.8904 20C12.7944 20 12.7664 19.952 12.8064 19.856L14.8464 14.312C14.8864 14.2 14.9544 14.144 15.0504 14.144H15.8784C15.9744 14.144 16.0424 14.2 16.0824 14.312L18.1224 19.856C18.1624 19.952 18.1344 20 18.0384 20H17.2104C17.1464 20 17.1024 19.968 17.0784 19.904L15.9624 16.676C15.8824 16.444 15.7984 16.216 15.7104 15.992C15.6304 15.76 15.5544 15.532 15.4824 15.308H15.4584C15.3864 15.54 15.3104 15.772 15.2304 16.004C15.1504 16.236 15.0664 16.468 14.9784 16.7L13.8504 19.904C13.8264 19.968 13.7824 20 13.7184 20H12.8904ZM22.7257 20C22.6777 20 22.6457 19.984 22.6297 19.952C22.6137 19.92 22.5977 19.88 22.5817 19.832C22.5737 19.768 22.5537 19.632 22.5217 19.424C22.4977 19.208 22.4817 19.016 22.4737 18.848L22.4377 18.392V16.004C22.4377 15.604 22.3577 15.32 22.1977 15.152C22.0377 14.984 21.7577 14.9 21.3577 14.9C20.9977 14.9 20.7257 14.964 20.5417 15.092C20.3657 15.212 20.2777 15.396 20.2777 15.644C20.2777 15.724 20.2417 15.764 20.1697 15.764H19.3777C19.2977 15.764 19.2537 15.688 19.2457 15.536C19.2057 15.08 19.3817 14.712 19.7737 14.432C20.1737 14.144 20.7137 14 21.3937 14C22.0897 14 22.6057 14.164 22.9417 14.492C23.2857 14.82 23.4577 15.316 23.4577 15.98V18.548C23.4577 18.828 23.4657 19.08 23.4817 19.304C23.4977 19.52 23.5177 19.708 23.5417 19.868C23.5577 19.956 23.5177 20 23.4217 20H22.7257ZM20.4337 20.144C19.9697 20.144 19.6137 20.004 19.3657 19.724C19.1257 19.444 19.0057 19.036 19.0057 18.5C19.0057 18.084 19.0857 17.744 19.2457 17.48C19.4137 17.216 19.6777 17.012 20.0377 16.868C20.4057 16.724 20.8937 16.628 21.5017 16.58L22.6297 16.484V17.264L21.4777 17.36C20.9257 17.408 20.5457 17.508 20.3377 17.66C20.1297 17.812 20.0257 18.068 20.0257 18.428C20.0257 18.7 20.0817 18.904 20.1937 19.04C20.3057 19.176 20.4737 19.244 20.6977 19.244C20.9617 19.244 21.2377 19.156 21.5257 18.98C21.8137 18.796 22.1937 18.46 22.6657 17.972V18.872C22.3857 19.176 22.1217 19.424 21.8737 19.616C21.6337 19.8 21.3977 19.932 21.1657 20.012C20.9337 20.1 20.6897 20.144 20.4337 20.144ZM27.5754 20.144C26.7994 20.144 26.2194 19.952 25.8354 19.568C25.4514 19.176 25.2594 18.592 25.2594 17.816V13.76C25.2594 13.296 25.3474 12.912 25.5234 12.608C25.6994 12.296 25.9594 12.06 26.3034 11.9C26.6554 11.74 27.0874 11.66 27.5994 11.66C28.2954 11.66 28.8114 11.808 29.1474 12.104C29.4914 12.392 29.6634 12.828 29.6634 13.412C29.6634 13.836 29.5754 14.212 29.3994 14.54C29.2234 14.86 28.9834 15.084 28.6794 15.212V15.224C29.1834 15.304 29.5394 15.508 29.7474 15.836C29.9554 16.156 30.0594 16.584 30.0594 17.12V17.72C30.0594 18.512 29.8474 19.116 29.4234 19.532C28.9994 19.94 28.3834 20.144 27.5754 20.144ZM27.5994 19.244C28.0874 19.244 28.4474 19.116 28.6794 18.86C28.9194 18.604 29.0394 18.212 29.0394 17.684V17.048C29.0394 16.648 28.9474 16.356 28.7634 16.172C28.5874 15.988 28.3074 15.896 27.9234 15.896C27.7874 15.896 27.6314 15.908 27.4554 15.932C27.2794 15.948 27.0914 15.98 26.8914 16.028C26.6994 16.068 26.4954 16.12 26.2794 16.184V17.72C26.2794 18.256 26.3834 18.644 26.5914 18.884C26.7994 19.124 27.1354 19.244 27.5994 19.244ZM26.2794 15.368L27.2514 15.164C27.6754 15.076 28.0154 14.92 28.2714 14.696C28.5274 14.464 28.6554 14.116 28.6554 13.652C28.6554 13.268 28.5634 12.988 28.3794 12.812C28.1954 12.628 27.9114 12.536 27.5274 12.536C27.1194 12.536 26.8074 12.636 26.5914 12.836C26.3834 13.036 26.2794 13.328 26.2794 13.712V15.368ZM30.9478 20C30.8598 20 30.8278 19.956 30.8518 19.868L33.4678 12.236C33.4918 12.172 33.5398 12.14 33.6118 12.14H34.6798C34.7518 12.14 34.7998 12.172 34.8238 12.236L37.4758 19.868C37.4918 19.908 37.4878 19.94 37.4638 19.964C37.4478 19.988 37.4198 20 37.3798 20H36.5278C36.4558 20 36.4078 19.968 36.3838 19.904L34.6078 14.504C34.5278 14.264 34.4478 14.024 34.3678 13.784C34.2878 13.544 34.2078 13.304 34.1278 13.064H34.1158C34.0358 13.296 33.9598 13.532 33.8878 13.772C33.8158 14.012 33.7398 14.248 33.6598 14.48L31.8958 19.904C31.8718 19.968 31.8238 20 31.7518 20H30.9478ZM40.6867 20.144C39.9187 20.144 39.3267 19.964 38.9107 19.604C38.5027 19.244 38.2987 18.712 38.2987 18.008V16.328C38.2987 15.568 38.5027 14.992 38.9107 14.6C39.3187 14.2 39.9107 14 40.6867 14C41.4627 14 42.0507 14.196 42.4507 14.588C42.8587 14.972 43.0627 15.532 43.0627 16.268V17.204C43.0627 17.284 43.0227 17.324 42.9427 17.324H39.3187V17.708C39.3187 18.244 39.4307 18.636 39.6547 18.884C39.8787 19.124 40.2427 19.244 40.7467 19.244C41.1227 19.244 41.4107 19.184 41.6107 19.064C41.8187 18.936 41.9227 18.752 41.9227 18.512C41.9227 18.424 41.9667 18.38 42.0547 18.38H42.8347C42.8987 18.38 42.9387 18.416 42.9547 18.488C42.9867 19 42.7987 19.404 42.3907 19.7C41.9827 19.996 41.4147 20.144 40.6867 20.144ZM39.3187 16.448H42.0427V16.376C42.0427 15.872 41.9307 15.5 41.7067 15.26C41.4827 15.02 41.1467 14.9 40.6987 14.9C40.2347 14.9 39.8867 15.024 39.6547 15.272C39.4307 15.52 39.3187 15.892 39.3187 16.388V16.448ZM46.5253 20.144C45.8373 20.144 45.3093 20.04 44.9413 19.832C44.5813 19.616 44.3973 19.224 44.3893 18.656C44.3813 18.208 44.4813 17.848 44.6893 17.576C44.8973 17.296 45.2253 17.072 45.6733 16.904L47.0293 16.4C47.3253 16.288 47.5213 16.168 47.6173 16.04C47.7213 15.912 47.7733 15.744 47.7733 15.536C47.7733 15.296 47.6853 15.128 47.5093 15.032C47.3413 14.936 47.0733 14.888 46.7053 14.888C46.3053 14.888 46.0053 14.948 45.8053 15.068C45.6133 15.188 45.5173 15.36 45.5173 15.584C45.5173 15.64 45.5093 15.684 45.4933 15.716C45.4773 15.748 45.4493 15.764 45.4093 15.764H44.6173C44.5453 15.764 44.5013 15.704 44.4853 15.584C44.4373 15.128 44.6053 14.752 44.9893 14.456C45.3733 14.152 45.9413 14 46.6933 14C47.3573 14 47.8733 14.128 48.2413 14.384C48.6093 14.632 48.7933 15.02 48.7933 15.548C48.7933 15.956 48.6973 16.288 48.5053 16.544C48.3133 16.8 47.9853 17.012 47.5213 17.18L46.1293 17.684C45.8573 17.78 45.6653 17.9 45.5533 18.044C45.4493 18.188 45.4013 18.38 45.4093 18.62C45.4173 18.884 45.5133 19.06 45.6973 19.148C45.8893 19.236 46.1813 19.276 46.5733 19.268C46.9973 19.26 47.3173 19.196 47.5333 19.076C47.7573 18.948 47.8693 18.752 47.8693 18.488C47.8693 18.368 47.9013 18.308 47.9653 18.308H48.7573C48.7973 18.308 48.8253 18.316 48.8413 18.332C48.8653 18.348 48.8813 18.396 48.8893 18.476C48.9213 18.964 48.7533 19.364 48.3853 19.676C48.0253 19.988 47.4053 20.144 46.5253 20.144ZM51.2361 22.22C51.1401 22.22 51.1121 22.172 51.1521 22.076L52.0041 19.928L49.7841 14.288C49.7441 14.192 49.7721 14.144 49.8681 14.144H50.7201C50.7841 14.144 50.8281 14.176 50.8521 14.24L51.9321 17.144C52.0281 17.392 52.1201 17.648 52.2081 17.912C52.3041 18.176 52.3961 18.436 52.4841 18.692H52.4961C52.5841 18.436 52.6761 18.176 52.7721 17.912C52.8761 17.648 52.9721 17.392 53.0601 17.144L54.1401 14.24C54.1641 14.176 54.2121 14.144 54.2841 14.144H55.0881C55.1281 14.144 55.1561 14.16 55.1721 14.192C55.1961 14.216 55.2001 14.248 55.1841 14.288L52.1481 22.124C52.1241 22.188 52.0801 22.22 52.0161 22.22H51.2361ZM55.6769 20C55.6289 20 55.5969 19.984 55.5809 19.952C55.5649 19.92 55.5729 19.888 55.6049 19.856L57.6809 16.988L55.7489 14.288C55.7169 14.248 55.7089 14.216 55.7249 14.192C55.7409 14.16 55.7729 14.144 55.8209 14.144H56.7569C56.8209 14.144 56.8689 14.168 56.9009 14.216L57.7409 15.428C57.8369 15.564 57.9329 15.708 58.0289 15.86C58.1329 16.012 58.2289 16.156 58.3169 16.292H58.3289C58.4329 16.14 58.5409 15.984 58.6529 15.824C58.7649 15.664 58.8729 15.508 58.9769 15.356L59.7809 14.216C59.8129 14.168 59.8609 14.144 59.9249 14.144H60.8009C60.8489 14.144 60.8809 14.16 60.8969 14.192C60.9129 14.216 60.9049 14.248 60.8729 14.288L58.9409 16.952L61.0409 19.856C61.0729 19.888 61.0809 19.92 61.0649 19.952C61.0489 19.984 61.0169 20 60.9689 20H60.0329C59.9689 20 59.9209 19.976 59.8889 19.928L59.0849 18.8C58.9569 18.616 58.8249 18.428 58.6889 18.236C58.5609 18.044 58.4329 17.856 58.3049 17.672H58.2929C58.1729 17.856 58.0489 18.044 57.9209 18.236C57.7929 18.428 57.6649 18.616 57.5369 18.8L56.7449 19.928C56.7289 19.96 56.7089 19.98 56.6849 19.988C56.6609 19.996 56.6329 20 56.6009 20H55.6769Z" fill="white"/>
<defs>
<linearGradient id="paint0_linear_57_507" x1="32.5" y1="0" x2="32.5" y2="30" gradientUnits="userSpaceOnUse">
<stop stop-color="#3C6BA5"/>
<stop offset="1" stop-color="#304D71"/>
</linearGradient>
</defs>
</svg>
