<svg width="65" height="76" viewBox="0 0 65 76" fill="none" xmlns="http://www.w3.org/2000/svg">
<path d="M0.5 3C0.5 1.61929 1.61929 0.5 3 0.5H42.3539C43.4857 0.5 44.4762 1.2603 44.7689 2.35356L63.5063 72.3536C63.9313 73.9412 62.7349 75.5 61.0914 75.5H3C1.61929 75.5 0.5 74.3807 0.5 73V3Z" fill="url(#paint0_linear_57_423)" stroke="white"/>
<ellipse cx="2.42588" cy="2.45911" rx="2.42588" ry="2.45911" transform="matrix(-1 0 0 1 35.9803 52.8557)" fill="black"/>
<ellipse cx="2.42588" cy="2.45911" rx="2.42588" ry="2.45911" transform="matrix(-1 0 0 1 26.5039 52.856)" fill="#FDEEB5"/>
<path fill-rule="evenodd" clip-rule="evenodd" d="M45.6928 33.0386H29.483C28.321 33.0386 27.3791 33.9806 27.3791 35.1425C27.3791 36.3044 28.321 37.6021 29.483 37.6021H39.6L35.335 46.1321C34.8814 47.2018 34.2653 48.1155 35.335 48.5692C36.4047 49.0229 36.7092 48.4204 37.1629 47.3507L41.4278 40.8039L45.6928 33.0386Z" fill="#C1EA9E"/>
<path fill-rule="evenodd" clip-rule="evenodd" d="M15.3113 28.7742H7.10387C5.94193 28.7742 5 29.7162 5 30.8781C5 32.04 5.94193 32.982 7.10387 32.982H12.4547L16.2189 42.4628L18.5282 48.2712C18.957 49.3512 22.3225 49.9186 23.4025 49.4898C24.4824 49.061 23.222 47.5233 22.7932 46.4434L19.9831 40.3506L15.3113 28.7742Z" fill="#FDEEB5"/>
<path d="M44.1855 36.9645H13.5803L18.2819 48.8557C19.0363 50.7638 20.8798 52.0173 22.9316 52.0173H34.4622C36.4655 52.0173 38.2754 50.8215 39.0614 48.9788L44.1855 36.9645Z" fill="#A4D8E4"/>
<circle cx="1" cy="1" r="1" transform="matrix(-1 0 0 1 8 30)" fill="black"/>
<path d="M36.8651 27.0173C36.8651 27.0115 36.8656 27.0058 36.8656 27L36.8656 27.0342C36.8886 33.038 42.9038 33.0389 42.9038 33.0389C42.9038 33.0389 36.8886 33.0393 36.8656 39.0431L36.8656 39.0773C36.8656 39.0715 36.8651 39.0657 36.8651 39.06C36.8651 39.0657 36.8647 39.0715 36.8647 39.0773L36.8647 39.0431C36.8416 33.0393 30.8265 33.0389 30.8265 33.0389C30.8265 33.0389 36.8416 33.0384 36.8647 27.0346L36.8647 27.0004C36.8651 27.0058 36.8651 27.0115 36.8651 27.0173Z" fill="white"/>
<defs>
<linearGradient id="paint0_linear_57_423" x1="32.5" y1="0" x2="32.5" y2="76" gradientUnits="userSpaceOnUse">
<stop stop-color="#578867"/>
<stop offset="1" stop-color="#304D71"/>
</linearGradient>
</defs>
</svg>
