<svg width="61" height="51" viewBox="0 0 61 51" fill="none" xmlns="http://www.w3.org/2000/svg">
<path d="M55 9C55 7.067 53.433 5.5 51.5 5.5H13.8578C12.276 5.5 10.8908 6.56095 10.4787 8.08813L1.84336 40.0881C1.24312 42.3125 2.91857 44.5 5.22249 44.5H51.5C53.433 44.5 55 42.933 55 41V9Z" fill="url(#paint0_linear_57_527)" stroke="white"/>
<path d="M26.5255 12.7103C27.3682 9.37545 32.1063 9.37544 32.949 12.7103C33.4548 14.7119 35.6484 15.7683 37.5287 14.9158C40.6614 13.4954 43.6156 17.1998 41.5337 19.9379C40.2841 21.5813 40.8259 23.955 42.6648 24.8935C45.7285 26.4571 44.6742 31.0765 41.2354 31.156C39.1714 31.2037 37.6534 33.1072 38.0662 35.1301C38.7539 38.5003 34.485 40.5561 32.2788 37.9172C30.9546 36.3332 28.5199 36.3332 27.1957 37.9172C24.9895 40.5561 20.7206 38.5003 21.4083 35.1301C21.8211 33.1072 20.303 31.2037 18.239 31.156C14.8003 31.0765 13.746 26.4571 16.8097 24.8935C18.6486 23.955 19.1904 21.5813 17.9408 19.9379C15.8589 17.1998 18.8131 13.4954 21.9458 14.9158C23.8261 15.7683 26.0197 14.7119 26.5255 12.7103Z" fill="#A4D8E4"/>
<path d="M25.1962 24.802C21.1978 19.7539 14.6627 19.924 11.7393 21.7662L13.7017 24.057C15.5052 22.8652 20.0308 21.8631 24.3232 26.8739C28.1171 31.3028 33.4904 30.0538 35.4684 28.4476L33.7677 26.4622C33.7677 26.4622 29.1947 29.8501 25.1962 24.802Z" fill="#FDEEB5"/>
<path d="M32.156 12.7103C32.9987 9.37545 37.7368 9.37544 38.5795 12.7103C39.0853 14.7119 41.2789 15.7683 43.1592 14.9158C46.2919 13.4954 49.2461 17.1998 47.1642 19.9379C45.9146 21.5813 46.4564 23.955 48.2953 24.8935C51.359 26.4571 50.3047 31.0765 46.8659 31.156C44.8019 31.2037 43.2839 33.1072 43.6967 35.1301C44.3844 38.5003 40.1154 40.5561 37.9093 37.9172C36.5851 36.3332 34.1504 36.3332 32.8262 37.9172C30.62 40.5561 26.3511 38.5003 27.0388 35.1301C27.4516 33.1072 25.9335 31.2037 23.8695 31.156C20.4308 31.0765 19.3765 26.4571 22.4402 24.8935C24.2791 23.955 24.8209 21.5813 23.5713 19.9379C21.4894 17.1998 24.4436 13.4954 27.5763 14.9158C29.4566 15.7683 31.6502 14.7119 32.156 12.7103Z" fill="#FDEEB5"/>
<ellipse cx="35.3678" cy="24.4329" rx="4.52461" ry="4.92679" fill="#A4D8E4"/>
<path d="M37.4793 24.4329C37.4793 27.1539 36.531 29.3597 34.8651 29.3597C33.1992 29.3597 30.7427 27.1539 30.7427 24.4329C30.7427 21.7119 33.1992 19.5061 34.8651 19.5061C36.531 19.5061 37.4793 21.7119 37.4793 24.4329Z" fill="#C1EA9E"/>
<path d="M49.1126 25.911C49.1148 25.9133 49.1173 25.9154 49.1196 25.9177L49.106 25.9041C46.7237 23.5034 49.1194 21.1071 49.1194 21.1071C49.1194 21.1071 46.7232 23.5029 44.3225 21.1206L44.3089 21.107C44.3112 21.1093 44.3133 21.1118 44.3156 21.1141C44.3133 21.1118 44.3108 21.1097 44.3085 21.1074L44.3222 21.121C46.7044 23.5217 44.3086 25.9178 44.3086 25.9178C44.3086 25.9178 46.7048 23.522 49.1055 25.9043L49.1191 25.9179C49.1171 25.9156 49.1148 25.9133 49.1126 25.911Z" fill="white"/>
<defs>
<linearGradient id="paint0_linear_57_527" x1="27.75" y1="5" x2="27.75" y2="45" gradientUnits="userSpaceOnUse">
<stop stop-color="#3C6BA5"/>
<stop offset="1" stop-color="#304D71"/>
</linearGradient>
</defs>
</svg>
