<svg width="56" height="51" viewBox="0 0 56 51" fill="none" xmlns="http://www.w3.org/2000/svg">
<path d="M55 9C55 7.067 53.433 5.5 51.5 5.5H13.8578C12.276 5.5 10.8908 6.56095 10.4787 8.08813L1.84336 40.0881C1.24312 42.3125 2.91857 44.5 5.22249 44.5H51.5C53.433 44.5 55 42.933 55 41V9Z" fill="url(#paint0_linear_57_434)" stroke="white"/>
<path d="M25.0255 12.7103C25.8682 9.37545 30.6063 9.37544 31.449 12.7103C31.9548 14.7119 34.1484 15.7683 36.0287 14.9158C39.1614 13.4954 42.1156 17.1998 40.0337 19.9379C38.7841 21.5813 39.3259 23.955 41.1648 24.8935C44.2285 26.4571 43.1742 31.0765 39.7354 31.156C37.6714 31.2037 36.1534 33.1072 36.5662 35.1301C37.2539 38.5003 32.985 40.5561 30.7788 37.9172C29.4546 36.3332 27.0199 36.3332 25.6957 37.9172C23.4895 40.5561 19.2206 38.5003 19.9083 35.1301C20.3211 33.1072 18.803 31.2037 16.739 31.156C13.3003 31.0765 12.246 26.4571 15.3097 24.8935C17.1486 23.955 17.6904 21.5813 16.4408 19.9379C14.3589 17.1998 17.3131 13.4954 20.4458 14.9158C22.3261 15.7683 24.5197 14.7119 25.0255 12.7103Z" fill="#A4D8E4"/>
<path d="M23.6962 24.802C19.6978 19.7539 13.1627 19.924 10.2393 21.7662L12.2017 24.057C14.0052 22.8652 18.5308 21.8631 22.8232 26.8739C26.6171 31.3028 31.9904 30.0538 33.9684 28.4476L32.2677 26.4622C32.2677 26.4622 27.6947 29.8501 23.6962 24.802Z" fill="#FDEEB5"/>
<path d="M30.656 12.7103C31.4987 9.37545 36.2368 9.37544 37.0795 12.7103C37.5853 14.7119 39.7789 15.7683 41.6592 14.9158C44.7919 13.4954 47.7461 17.1998 45.6642 19.9379C44.4146 21.5813 44.9564 23.955 46.7953 24.8935C49.859 26.4571 48.8047 31.0765 45.3659 31.156C43.3019 31.2037 41.7839 33.1072 42.1967 35.1301C42.8844 38.5003 38.6154 40.5561 36.4093 37.9172C35.0851 36.3332 32.6504 36.3332 31.3262 37.9172C29.12 40.5561 24.8511 38.5003 25.5388 35.1301C25.9516 33.1072 24.4335 31.2037 22.3695 31.156C18.9308 31.0765 17.8765 26.4571 20.9402 24.8935C22.7791 23.955 23.3209 21.5813 22.0713 19.9379C19.9894 17.1998 22.9436 13.4954 26.0763 14.9158C27.9566 15.7683 30.1502 14.7119 30.656 12.7103Z" fill="#FDEEB5"/>
<ellipse cx="33.8678" cy="24.4329" rx="4.52461" ry="4.92679" fill="#A4D8E4"/>
<path d="M35.9793 24.4329C35.9793 27.1539 35.031 29.3597 33.3651 29.3597C31.6992 29.3597 29.2427 27.1539 29.2427 24.4329C29.2427 21.7119 31.6992 19.5061 33.3651 19.5061C35.031 19.5061 35.9793 21.7119 35.9793 24.4329Z" fill="#C1EA9E"/>
<path d="M47.6126 25.911C47.6148 25.9133 47.6173 25.9154 47.6196 25.9177L47.606 25.9041C45.2237 23.5034 47.6194 21.1071 47.6194 21.1071C47.6194 21.1071 45.2232 23.5029 42.8225 21.1206L42.8089 21.107C42.8112 21.1093 42.8133 21.1118 42.8156 21.1141C42.8133 21.1118 42.8108 21.1097 42.8085 21.1074L42.8222 21.121C45.2044 23.5217 42.8086 25.9178 42.8086 25.9178C42.8086 25.9178 45.2048 23.522 47.6055 25.9043L47.6191 25.9179C47.6171 25.9156 47.6148 25.9133 47.6126 25.911Z" fill="white"/>
<defs>
<linearGradient id="paint0_linear_57_434" x1="27.75" y1="5" x2="27.75" y2="45" gradientUnits="userSpaceOnUse">
<stop stop-color="#578867"/>
<stop offset="1" stop-color="#304D71"/>
</linearGradient>
</defs>
</svg>
