<svg width="65" height="76" viewBox="0 0 65 76" fill="none" xmlns="http://www.w3.org/2000/svg">
<path d="M0.5 3C0.5 1.61929 1.61929 0.5 3 0.5H42.3539C43.4857 0.5 44.4762 1.2603 44.7689 2.35356L63.5063 72.3536C63.9313 73.9412 62.7349 75.5 61.0914 75.5H3C1.61929 75.5 0.5 74.3807 0.5 73V3Z" fill="url(#paint0_linear_57_516)" stroke="white"/>
<ellipse cx="2.42588" cy="2.45911" rx="2.42588" ry="2.45911" transform="matrix(-1 0 0 1 34.9803 49.8557)" fill="black"/>
<ellipse cx="2.42588" cy="2.45911" rx="2.42588" ry="2.45911" transform="matrix(-1 0 0 1 25.5039 49.856)" fill="#FDEEB5"/>
<path fill-rule="evenodd" clip-rule="evenodd" d="M44.6928 30.0386H28.483C27.321 30.0386 26.3791 30.9806 26.3791 32.1425C26.3791 33.3044 27.321 34.6021 28.483 34.6021H38.6L34.335 43.1321C33.8814 44.2018 33.2653 45.1155 34.335 45.5692C35.4047 46.0229 35.7092 45.4204 36.1629 44.3507L40.4278 37.8039L44.6928 30.0386Z" fill="#C1EA9E"/>
<path fill-rule="evenodd" clip-rule="evenodd" d="M14.3113 25.7742H6.10387C4.94193 25.7742 4 26.7162 4 27.8781C4 29.04 4.94193 29.982 6.10387 29.982H11.4547L15.2189 39.4628L17.5282 45.2712C17.957 46.3512 21.3225 46.9186 22.4025 46.4898C23.4824 46.061 22.222 44.5233 21.7932 43.4434L18.9831 37.3506L14.3113 25.7742Z" fill="#FDEEB5"/>
<path d="M43.1855 33.9645H12.5803L17.2819 45.8557C18.0363 47.7638 19.8798 49.0173 21.9316 49.0173H33.4622C35.4655 49.0173 37.2754 47.8215 38.0614 45.9788L43.1855 33.9645Z" fill="#A4D8E4"/>
<circle cx="1" cy="1" r="1" transform="matrix(-1 0 0 1 7 27)" fill="black"/>
<path d="M35.8651 24.0173C35.8651 24.0115 35.8656 24.0058 35.8656 24L35.8656 24.0342C35.8886 30.038 41.9038 30.0389 41.9038 30.0389C41.9038 30.0389 35.8886 30.0393 35.8656 36.0431L35.8656 36.0773C35.8656 36.0715 35.8651 36.0657 35.8651 36.06C35.8651 36.0657 35.8647 36.0715 35.8647 36.0773L35.8647 36.0431C35.8416 30.0393 29.8265 30.0389 29.8265 30.0389C29.8265 30.0389 35.8416 30.0384 35.8647 24.0346L35.8647 24.0004C35.8651 24.0058 35.8651 24.0115 35.8651 24.0173Z" fill="white"/>
<defs>
<linearGradient id="paint0_linear_57_516" x1="32.5" y1="0" x2="32.5" y2="76" gradientUnits="userSpaceOnUse">
<stop stop-color="#3C6BA5"/>
<stop offset="1" stop-color="#304D71"/>
</linearGradient>
</defs>
</svg>
