<svg width="20" height="20" viewBox="0 0 20 20" fill="none" xmlns="http://www.w3.org/2000/svg">
<rect x="0.5" y="0.5" width="19" height="19" rx="2.5" fill="url(#paint0_linear_57_536)" stroke="white"/>
<mask id="path-2-outside-1_57_536" maskUnits="userSpaceOnUse" x="8" y="4" width="4" height="12" fill="black">
<rect fill="white" x="8" y="4" width="4" height="12"/>
<path d="M9.50986 15C9.40986 15 9.35986 14.95 9.35986 14.85V7.83C9.35986 7.73 9.40986 7.68 9.50986 7.68H10.4849C10.5849 7.68 10.6349 7.73 10.6349 7.83V14.85C10.6349 14.95 10.5849 15 10.4849 15H9.50986ZM10.0049 6.45C9.71486 6.45 9.50486 6.375 9.37486 6.225C9.24486 6.065 9.17986 5.865 9.17986 5.625V5.475C9.17986 5.235 9.24486 5.04 9.37486 4.89C9.50486 4.73 9.71486 4.65 10.0049 4.65C10.2949 4.65 10.5049 4.73 10.6349 4.89C10.7649 5.04 10.8299 5.235 10.8299 5.475V5.625C10.8299 5.865 10.7649 6.065 10.6349 6.225C10.5049 6.375 10.2949 6.45 10.0049 6.45Z"/>
</mask>
<path d="M9.50986 15C9.40986 15 9.35986 14.95 9.35986 14.85V7.83C9.35986 7.73 9.40986 7.68 9.50986 7.68H10.4849C10.5849 7.68 10.6349 7.73 10.6349 7.83V14.85C10.6349 14.95 10.5849 15 10.4849 15H9.50986ZM10.0049 6.45C9.71486 6.45 9.50486 6.375 9.37486 6.225C9.24486 6.065 9.17986 5.865 9.17986 5.625V5.475C9.17986 5.235 9.24486 5.04 9.37486 4.89C9.50486 4.73 9.71486 4.65 10.0049 4.65C10.2949 4.65 10.5049 4.73 10.6349 4.89C10.7649 5.04 10.8299 5.235 10.8299 5.475V5.625C10.8299 5.865 10.7649 6.065 10.6349 6.225C10.5049 6.375 10.2949 6.45 10.0049 6.45Z" fill="white"/>
<path d="M9.37486 6.225L9.21956 6.35118L9.22373 6.35599L9.37486 6.225ZM9.37486 4.89L9.52608 5.02105L9.53009 5.01612L9.37486 4.89ZM10.6349 4.89L10.4796 5.01618L10.4837 5.02099L10.6349 4.89ZM10.6349 6.225L10.7861 6.35605L10.7901 6.35112L10.6349 6.225ZM9.50986 14.8C9.49069 14.8 9.51305 14.7953 9.53878 14.8211C9.56452 14.8468 9.55986 14.8692 9.55986 14.85H9.15986C9.15986 14.9308 9.18021 15.0282 9.25594 15.1039C9.33168 15.1797 9.42903 15.2 9.50986 15.2V14.8ZM9.55986 14.85V7.83H9.15986V14.85H9.55986ZM9.55986 7.83C9.55986 7.81083 9.56452 7.83318 9.53878 7.85892C9.51305 7.88466 9.49069 7.88 9.50986 7.88V7.48C9.42903 7.48 9.33168 7.50034 9.25594 7.57608C9.18021 7.65181 9.15986 7.74917 9.15986 7.83H9.55986ZM9.50986 7.88H10.4849V7.48H9.50986V7.88ZM10.4849 7.88C10.504 7.88 10.4817 7.88466 10.4559 7.85892C10.4302 7.83318 10.4349 7.81083 10.4349 7.83H10.8349C10.8349 7.74917 10.8145 7.65181 10.7388 7.57608C10.663 7.50034 10.5657 7.48 10.4849 7.48V7.88ZM10.4349 7.83V14.85H10.8349V7.83H10.4349ZM10.4349 14.85C10.4349 14.8692 10.4302 14.8468 10.4559 14.8211C10.4817 14.7953 10.504 14.8 10.4849 14.8V15.2C10.5657 15.2 10.663 15.1797 10.7388 15.1039C10.8145 15.0282 10.8349 14.9308 10.8349 14.85H10.4349ZM10.4849 14.8H9.50986V15.2H10.4849V14.8ZM10.0049 6.25C9.74555 6.25 9.60318 6.18307 9.526 6.09401L9.22373 6.35599C9.40655 6.56693 9.68418 6.65 10.0049 6.65V6.25ZM9.53009 6.09888C9.43367 5.98022 9.37986 5.82697 9.37986 5.625H8.97986C8.97986 5.90303 9.05605 6.14978 9.21964 6.35112L9.53009 6.09888ZM9.37986 5.625V5.475H8.97986V5.625H9.37986ZM9.37986 5.475C9.37986 5.2726 9.43378 5.12739 9.526 5.02099L9.22373 4.75901C9.05594 4.95261 8.97986 5.1974 8.97986 5.475H9.37986ZM9.53009 5.01612C9.60844 4.91969 9.74941 4.85 10.0049 4.85V4.45C9.68031 4.45 9.40129 4.54031 9.21964 4.76388L9.53009 5.01612ZM10.0049 4.85C10.2603 4.85 10.4013 4.91969 10.4796 5.01612L10.7901 4.76388C10.6084 4.54031 10.3294 4.45 10.0049 4.45V4.85ZM10.4837 5.02099C10.5759 5.12739 10.6299 5.2726 10.6299 5.475H11.0299C11.0299 5.1974 10.9538 4.95261 10.786 4.75901L10.4837 5.02099ZM10.6299 5.475V5.625H11.0299V5.475H10.6299ZM10.6299 5.625C10.6299 5.82697 10.5761 5.98022 10.4796 6.09888L10.7901 6.35112C10.9537 6.14978 11.0299 5.90303 11.0299 5.625H10.6299ZM10.4837 6.09401C10.4065 6.18307 10.2642 6.25 10.0049 6.25V6.65C10.3255 6.65 10.6032 6.56693 10.786 6.35599L10.4837 6.09401Z" fill="white" mask="url(#path-2-outside-1_57_536)"/>
<defs>
<linearGradient id="paint0_linear_57_536" x1="10" y1="19" x2="10" y2="2" gradientUnits="userSpaceOnUse">
<stop stop-color="#304D71"/>
<stop offset="1" stop-color="#3C6BA5"/>
</linearGradient>
</defs>
</svg>
