<svg width="110" height="41" viewBox="0 0 110 41" fill="none" xmlns="http://www.w3.org/2000/svg">
<rect x="0.5" y="0.5" width="109" height="40" rx="4.5" fill="url(#paint0_linear_57_539)" stroke="white"/>
<path d="M36.14 18C36.06 18 36.02 17.96 36.02 17.88V10.26C36.02 10.18 36.06 10.14 36.14 10.14H41.78C41.86 10.14 41.9 10.18 41.9 10.26V17.88C41.9 17.96 41.86 18 41.78 18H41C40.92 18 40.88 17.96 40.88 17.88V11.064H37.04V17.88C37.04 17.96 37 18 36.92 18H36.14ZM46.1379 18.144C45.3299 18.144 44.7139 17.948 44.2899 17.556C43.8739 17.164 43.6659 16.568 43.6659 15.768V14.376C43.6659 13.576 43.8739 12.98 44.2899 12.588C44.7059 12.196 45.3219 12 46.1379 12C46.9459 12 47.5579 12.196 47.9739 12.588C48.3979 12.98 48.6099 13.576 48.6099 14.376V15.768C48.6099 16.568 48.4019 17.164 47.9859 17.556C47.5699 17.948 46.9539 18.144 46.1379 18.144ZM46.1379 17.244C46.6499 17.244 47.0179 17.116 47.2419 16.86C47.4739 16.596 47.5899 16.2 47.5899 15.672V14.472C47.5899 13.944 47.4739 13.552 47.2419 13.296C47.0179 13.032 46.6499 12.9 46.1379 12.9C45.6259 12.9 45.2539 13.032 45.0219 13.296C44.7979 13.552 44.6859 13.944 44.6859 14.472V15.672C44.6859 16.2 44.7979 16.596 45.0219 16.86C45.2539 17.116 45.6259 17.244 46.1379 17.244ZM52.5475 18.144C51.7475 18.144 51.1395 17.944 50.7235 17.544C50.3075 17.144 50.0995 16.568 50.0995 15.816V14.328C50.0995 13.576 50.3115 13 50.7355 12.6C51.1595 12.2 51.7715 12 52.5715 12C53.0435 12 53.4475 12.072 53.7835 12.216C54.1195 12.36 54.3795 12.56 54.5635 12.816C54.7475 13.064 54.8395 13.36 54.8395 13.704C54.8395 13.888 54.7995 13.98 54.7195 13.98H53.9275C53.8955 13.98 53.8675 13.964 53.8435 13.932C53.8275 13.9 53.8195 13.852 53.8195 13.788C53.8195 13.508 53.7075 13.292 53.4835 13.14C53.2595 12.98 52.9555 12.9 52.5715 12.9C52.0835 12.9 51.7195 13.024 51.4795 13.272C51.2395 13.52 51.1195 13.904 51.1195 14.424V15.72C51.1195 16.232 51.2395 16.616 51.4795 16.872C51.7195 17.12 52.0795 17.244 52.5595 17.244C52.9435 17.244 53.2475 17.16 53.4715 16.992C53.6955 16.824 53.8075 16.616 53.8075 16.368C53.8075 16.24 53.8435 16.176 53.9155 16.176H54.7075C54.7875 16.176 54.8275 16.212 54.8275 16.284C54.8275 16.852 54.6315 17.304 54.2395 17.64C53.8475 17.976 53.2835 18.144 52.5475 18.144ZM56.4575 18C56.3775 18 56.3375 17.96 56.3375 17.88V13.608C56.3375 13.392 56.3295 13.168 56.3135 12.936C56.3055 12.696 56.2855 12.48 56.2535 12.288C56.2375 12.192 56.2815 12.144 56.3855 12.144H57.1055C57.1455 12.144 57.1735 12.148 57.1895 12.156C57.2055 12.164 57.2175 12.188 57.2255 12.228C57.2415 12.348 57.2615 12.476 57.2855 12.612C57.3095 12.748 57.3255 12.888 57.3335 13.032C57.6935 12.672 58.0335 12.412 58.3535 12.252C58.6735 12.084 59.0175 12 59.3855 12C59.7935 12 60.1215 12.096 60.3695 12.288C60.6255 12.472 60.8055 12.748 60.9095 13.116C61.2935 12.724 61.6495 12.44 61.9775 12.264C62.3055 12.088 62.6615 12 63.0455 12C63.5815 12 63.9855 12.168 64.2575 12.504C64.5375 12.84 64.6775 13.336 64.6775 13.992V17.88C64.6775 17.96 64.6375 18 64.5575 18H63.7775C63.6975 18 63.6575 17.96 63.6575 17.88V14.052C63.6575 13.668 63.5855 13.38 63.4415 13.188C63.3055 12.996 63.0895 12.9 62.7935 12.9C62.5295 12.9 62.2575 12.984 61.9775 13.152C61.7055 13.312 61.3855 13.568 61.0175 13.92V17.88C61.0175 17.96 60.9775 18 60.8975 18H60.1175C60.0375 18 59.9975 17.96 59.9975 17.88V14.052C59.9975 13.668 59.9255 13.38 59.7815 13.188C59.6455 12.996 59.4295 12.9 59.1335 12.9C58.8695 12.9 58.5975 12.984 58.3175 13.152C58.0455 13.312 57.7255 13.568 57.3575 13.92V17.88C57.3575 17.96 57.3175 18 57.2375 18H56.4575ZM68.7902 18.144C67.9822 18.144 67.3662 17.948 66.9422 17.556C66.5262 17.164 66.3182 16.568 66.3182 15.768V14.376C66.3182 13.576 66.5262 12.98 66.9422 12.588C67.3582 12.196 67.9742 12 68.7902 12C69.5982 12 70.2102 12.196 70.6262 12.588C71.0502 12.98 71.2622 13.576 71.2622 14.376V15.768C71.2622 16.568 71.0542 17.164 70.6382 17.556C70.2222 17.948 69.6062 18.144 68.7902 18.144ZM68.7902 17.244C69.3022 17.244 69.6702 17.116 69.8942 16.86C70.1262 16.596 70.2422 16.2 70.2422 15.672V14.472C70.2422 13.944 70.1262 13.552 69.8942 13.296C69.6702 13.032 69.3022 12.9 68.7902 12.9C68.2782 12.9 67.9062 13.032 67.6742 13.296C67.4502 13.552 67.3382 13.944 67.3382 14.472V15.672C67.3382 16.2 67.4502 16.596 67.6742 16.86C67.9062 17.116 68.2782 17.244 68.7902 17.244ZM72.5478 18C72.4998 18 72.4678 17.988 72.4518 17.964C72.4358 17.932 72.4398 17.896 72.4638 17.856L73.2918 16.56C73.3878 16.408 73.4838 16.256 73.5798 16.104C73.6838 15.952 73.7878 15.8 73.8918 15.648V15.636C73.5078 15.524 73.2118 15.336 73.0038 15.072C72.8038 14.808 72.7038 14.452 72.7038 14.004C72.7038 13.588 72.7878 13.244 72.9558 12.972C73.1238 12.692 73.3678 12.484 73.6878 12.348C74.0158 12.212 74.4078 12.144 74.8638 12.144H77.0598C77.1398 12.144 77.1798 12.184 77.1798 12.264V17.88C77.1798 17.96 77.1398 18 77.0598 18H76.2798C76.1998 18 76.1598 17.96 76.1598 17.88V15.792H74.9118L73.6038 17.916C73.5718 17.972 73.5198 18 73.4478 18H72.5478ZM75.0318 14.928H76.1598V13.02H74.8518C74.4198 13.02 74.1238 13.108 73.9638 13.284C73.8038 13.452 73.7238 13.688 73.7238 13.992C73.7238 14.336 73.8278 14.58 74.0358 14.724C74.2518 14.86 74.5838 14.928 75.0318 14.928ZM82.8061 18C82.7261 18 82.6861 17.96 82.6861 17.88V12.264C82.6861 12.184 82.7261 12.144 82.8061 12.144H83.5861C83.6661 12.144 83.7061 12.184 83.7061 12.264V17.88C83.7061 17.96 83.6661 18 83.5861 18H82.8061ZM79.0981 18C79.0181 18 78.9781 17.96 78.9781 17.88V12.264C78.9781 12.184 79.0181 12.144 79.0981 12.144H79.8781C79.9581 12.144 79.9981 12.184 79.9981 12.264V17.88C79.9981 17.96 79.9581 18 79.8781 18H79.0981ZM79.8061 15.444V14.568H82.8781V15.444H79.8061ZM89.3335 18C89.2535 18 89.2135 17.96 89.2135 17.88V12.264C89.2135 12.184 89.2535 12.144 89.3335 12.144H90.1135C90.1935 12.144 90.2335 12.184 90.2335 12.264V17.88C90.2335 17.96 90.1935 18 90.1135 18H89.3335ZM85.6255 18C85.5455 18 85.5055 17.96 85.5055 17.88V12.264C85.5055 12.184 85.5455 12.144 85.6255 12.144H86.4055C86.4855 12.144 86.5255 12.184 86.5255 12.264V17.88C86.5255 17.96 86.4855 18 86.4055 18H85.6255ZM86.3335 15.444V14.568H89.4055V15.444H86.3335ZM94.1928 18.144C93.4328 18.144 92.8808 17.972 92.5368 17.628C92.2008 17.276 92.0328 16.716 92.0328 15.948V12.264C92.0328 12.184 92.0728 12.144 92.1528 12.144H92.9328C93.0128 12.144 93.0528 12.184 93.0528 12.264V16.116C93.0528 16.508 93.1528 16.804 93.3528 17.004C93.5608 17.196 93.8648 17.292 94.2648 17.292C94.6648 17.292 94.9768 17.192 95.2008 16.992C95.4248 16.784 95.5368 16.492 95.5368 16.116V15.528C95.5368 15.2 95.4568 14.956 95.2968 14.796C95.1368 14.628 94.9048 14.544 94.6008 14.544C94.2728 14.544 93.9688 14.64 93.6888 14.832C93.4088 15.016 93.1528 15.284 92.9208 15.636L92.9088 14.64C93.1888 14.312 93.4848 14.064 93.7968 13.896C94.1168 13.728 94.4768 13.644 94.8768 13.644C95.4288 13.644 95.8488 13.8 96.1368 14.112C96.4328 14.424 96.5808 14.884 96.5808 15.492V16.008C96.5808 16.712 96.3768 17.244 95.9688 17.604C95.5608 17.964 94.9688 18.144 94.1928 18.144ZM97.9368 18C97.8568 18 97.8168 17.96 97.8168 17.88V12.264C97.8168 12.184 97.8568 12.144 97.9368 12.144H98.7168C98.7968 12.144 98.8368 12.184 98.8368 12.264V17.88C98.8368 17.96 98.7968 18 98.7168 18H97.9368ZM102.866 18.144C102.098 18.144 101.506 17.964 101.09 17.604C100.682 17.244 100.478 16.712 100.478 16.008V14.328C100.478 13.568 100.682 12.992 101.09 12.6C101.498 12.2 102.09 12 102.866 12C103.642 12 104.23 12.196 104.63 12.588C105.038 12.972 105.242 13.532 105.242 14.268V15.204C105.242 15.284 105.202 15.324 105.122 15.324H101.498V15.708C101.498 16.244 101.61 16.636 101.834 16.884C102.058 17.124 102.422 17.244 102.926 17.244C103.302 17.244 103.59 17.184 103.79 17.064C103.998 16.936 104.102 16.752 104.102 16.512C104.102 16.424 104.146 16.38 104.234 16.38H105.014C105.078 16.38 105.118 16.416 105.134 16.488C105.166 17 104.978 17.404 104.57 17.7C104.162 17.996 103.594 18.144 102.866 18.144ZM101.498 14.448H104.222V14.376C104.222 13.872 104.11 13.5 103.886 13.26C103.662 13.02 103.326 12.9 102.878 12.9C102.414 12.9 102.066 13.024 101.834 13.272C101.61 13.52 101.498 13.892 101.498 14.388V14.448ZM36.74 32.22C36.644 32.22 36.616 32.172 36.656 32.076L37.508 29.928L35.288 24.288C35.248 24.192 35.276 24.144 35.372 24.144H36.224C36.288 24.144 36.332 24.176 36.356 24.24L37.436 27.144C37.532 27.392 37.624 27.648 37.712 27.912C37.808 28.176 37.9 28.436 37.988 28.692H38C38.088 28.436 38.18 28.176 38.276 27.912C38.38 27.648 38.476 27.392 38.564 27.144L39.644 24.24C39.668 24.176 39.716 24.144 39.788 24.144H40.592C40.632 24.144 40.66 24.16 40.676 24.192C40.7 24.216 40.704 24.248 40.688 24.288L37.652 32.124C37.628 32.188 37.584 32.22 37.52 32.22H36.74ZM41.0037 30C40.9077 30 40.8797 29.952 40.9197 29.856L42.9597 24.312C42.9997 24.2 43.0677 24.144 43.1637 24.144H43.9917C44.0877 24.144 44.1557 24.2 44.1957 24.312L46.2357 29.856C46.2757 29.952 46.2477 30 46.1517 30H45.3237C45.2597 30 45.2157 29.968 45.1917 29.904L44.0757 26.676C43.9957 26.444 43.9117 26.216 43.8237 25.992C43.7437 25.76 43.6677 25.532 43.5957 25.308H43.5717C43.4997 25.54 43.4237 25.772 43.3437 26.004C43.2637 26.236 43.1797 26.468 43.0917 26.7L41.9637 29.904C41.9397 29.968 41.8957 30 41.8317 30H41.0037ZM47.8142 32.22C47.7182 32.22 47.6902 32.172 47.7302 32.076L48.5822 29.928L46.3622 24.288C46.3222 24.192 46.3502 24.144 46.4462 24.144H47.2982C47.3622 24.144 47.4062 24.176 47.4302 24.24L48.5102 27.144C48.6062 27.392 48.6982 27.648 48.7862 27.912C48.8822 28.176 48.9742 28.436 49.0622 28.692H49.0742C49.1622 28.436 49.2542 28.176 49.3502 27.912C49.4542 27.648 49.5502 27.392 49.6382 27.144L50.7182 24.24C50.7422 24.176 50.7902 24.144 50.8622 24.144H51.6662C51.7062 24.144 51.7342 24.16 51.7502 24.192C51.7742 24.216 51.7782 24.248 51.7622 24.288L48.7262 32.124C48.7022 32.188 48.6582 32.22 48.5942 32.22H47.8142ZM56.5031 30C56.4231 30 56.3831 29.96 56.3831 29.88V27.432C56.0711 27.712 55.7431 27.936 55.3991 28.104C55.0551 28.264 54.7191 28.344 54.3911 28.344C53.8551 28.344 53.4471 28.176 53.1671 27.84C52.8951 27.504 52.7591 27.02 52.7591 26.388V24.264C52.7591 24.184 52.7991 24.144 52.8791 24.144H53.6591C53.7391 24.144 53.7791 24.184 53.7791 24.264V26.22C53.7791 26.636 53.8471 26.948 53.9831 27.156C54.1191 27.364 54.3271 27.468 54.6071 27.468C54.9271 27.468 55.2351 27.38 55.5311 27.204C55.8271 27.02 56.1111 26.784 56.3831 26.496V24.264C56.3831 24.184 56.4231 24.144 56.5031 24.144H57.2831C57.3631 24.144 57.4031 24.184 57.4031 24.264V29.88C57.4031 29.96 57.3631 30 57.2831 30H56.5031ZM60.8046 30.144C60.2926 30.144 59.8966 29.976 59.6166 29.64C59.3446 29.304 59.2086 28.808 59.2086 28.152V24.264C59.2086 24.184 59.2486 24.144 59.3286 24.144H60.1086C60.1886 24.144 60.2286 24.184 60.2286 24.264V28.092C60.2286 28.476 60.2966 28.764 60.4326 28.956C60.5766 29.148 60.7846 29.244 61.0566 29.244C61.3046 29.244 61.5646 29.164 61.8366 29.004C62.1086 28.836 62.4286 28.576 62.7966 28.224V24.264C62.7966 24.184 62.8366 24.144 62.9166 24.144H63.6966C63.7766 24.144 63.8166 24.184 63.8166 24.264V28.092C63.8166 28.476 63.8846 28.764 64.0206 28.956C64.1646 29.148 64.3726 29.244 64.6446 29.244C64.8926 29.244 65.1526 29.164 65.4246 29.004C65.6966 28.836 66.0166 28.576 66.3846 28.224V24.264C66.3846 24.184 66.4246 24.144 66.5046 24.144H67.2846C67.3646 24.144 67.4046 24.184 67.4046 24.264V28.536C67.4046 28.752 67.4086 28.98 67.4166 29.22C67.4326 29.452 67.4566 29.664 67.4886 29.856C67.5046 29.952 67.4606 30 67.3566 30H66.6366C66.5646 30 66.5246 29.972 66.5166 29.916C66.5006 29.796 66.4806 29.668 66.4566 29.532C66.4406 29.396 66.4246 29.256 66.4086 29.112C66.0486 29.472 65.7086 29.736 65.3886 29.904C65.0766 30.064 64.7446 30.144 64.3926 30.144C64.0006 30.144 63.6806 30.052 63.4326 29.868C63.1846 29.676 63.0086 29.396 62.9046 29.028C62.5206 29.42 62.1646 29.704 61.8366 29.88C61.5166 30.056 61.1726 30.144 60.8046 30.144ZM71.4367 30.144C70.6687 30.144 70.0767 29.964 69.6607 29.604C69.2527 29.244 69.0487 28.712 69.0487 28.008V26.328C69.0487 25.568 69.2527 24.992 69.6607 24.6C70.0687 24.2 70.6607 24 71.4367 24C72.2127 24 72.8007 24.196 73.2007 24.588C73.6087 24.972 73.8127 25.532 73.8127 26.268V27.204C73.8127 27.284 73.7727 27.324 73.6927 27.324H70.0687V27.708C70.0687 28.244 70.1807 28.636 70.4047 28.884C70.6287 29.124 70.9927 29.244 71.4967 29.244C71.8727 29.244 72.1607 29.184 72.3607 29.064C72.5687 28.936 72.6727 28.752 72.6727 28.512C72.6727 28.424 72.7167 28.38 72.8047 28.38H73.5847C73.6487 28.38 73.6887 28.416 73.7047 28.488C73.7367 29 73.5487 29.404 73.1407 29.7C72.7327 29.996 72.1647 30.144 71.4367 30.144ZM70.0687 26.448H72.7927V26.376C72.7927 25.872 72.6807 25.5 72.4567 25.26C72.2327 25.02 71.8967 24.9 71.4487 24.9C70.9847 24.9 70.6367 25.024 70.4047 25.272C70.1807 25.52 70.0687 25.892 70.0687 26.388V26.448ZM79.2553 30C79.1753 30 79.1353 29.96 79.1353 29.88V24.264C79.1353 24.184 79.1753 24.144 79.2553 24.144H80.0353C80.1153 24.144 80.1553 24.184 80.1553 24.264V29.88C80.1553 29.96 80.1153 30 80.0353 30H79.2553ZM75.5473 30C75.4673 30 75.4273 29.96 75.4273 29.88V24.264C75.4273 24.184 75.4673 24.144 75.5473 24.144H76.3273C76.4073 24.144 76.4473 24.184 76.4473 24.264V29.88C76.4473 29.96 76.4073 30 76.3273 30H75.5473ZM76.2553 27.444V26.568H79.3273V27.444H76.2553ZM83.5387 30.144C83.0267 30.144 82.6347 29.972 82.3627 29.628C82.0907 29.284 81.9547 28.788 81.9547 28.14V24.264C81.9547 24.184 81.9947 24.144 82.0747 24.144H82.8547C82.9347 24.144 82.9747 24.184 82.9747 24.264V28.092C82.9747 28.484 83.0427 28.776 83.1787 28.968C83.3227 29.152 83.5427 29.244 83.8387 29.244C84.1347 29.244 84.4307 29.152 84.7267 28.968C85.0307 28.784 85.4067 28.464 85.8547 28.008L85.8307 28.956C85.5747 29.22 85.3187 29.44 85.0627 29.616C84.8067 29.792 84.5507 29.924 84.2947 30.012C84.0467 30.1 83.7947 30.144 83.5387 30.144ZM85.9387 30C85.8987 30 85.8667 29.992 85.8427 29.976C85.8187 29.952 85.8027 29.92 85.7947 29.88C85.7707 29.728 85.7507 29.572 85.7347 29.412C85.7187 29.252 85.7067 29.088 85.6987 28.92L85.6387 28.416V24.264C85.6387 24.184 85.6787 24.144 85.7587 24.144H86.5387C86.6187 24.144 86.6587 24.184 86.6587 24.264V28.536C86.6587 28.752 86.6627 28.976 86.6707 29.208C86.6867 29.44 86.7107 29.664 86.7427 29.88C86.7587 29.96 86.7147 30 86.6107 30H85.9387ZM88.0986 30C88.0506 30 88.0186 29.988 88.0026 29.964C87.9866 29.932 87.9906 29.896 88.0146 29.856L88.8426 28.56C88.9386 28.408 89.0346 28.256 89.1306 28.104C89.2346 27.952 89.3386 27.8 89.4426 27.648V27.636C89.0586 27.524 88.7626 27.336 88.5546 27.072C88.3546 26.808 88.2546 26.452 88.2546 26.004C88.2546 25.588 88.3386 25.244 88.5066 24.972C88.6746 24.692 88.9186 24.484 89.2386 24.348C89.5666 24.212 89.9586 24.144 90.4146 24.144H92.6106C92.6906 24.144 92.7306 24.184 92.7306 24.264V29.88C92.7306 29.96 92.6906 30 92.6106 30H91.8306C91.7506 30 91.7106 29.96 91.7106 29.88V27.792H90.4626L89.1546 29.916C89.1226 29.972 89.0706 30 88.9986 30H88.0986ZM90.5826 26.928H91.7106V25.02H90.4026C89.9706 25.02 89.6746 25.108 89.5146 25.284C89.3546 25.452 89.2746 25.688 89.2746 25.992C89.2746 26.336 89.3786 26.58 89.5866 26.724C89.8026 26.86 90.1346 26.928 90.5826 26.928Z" fill="white"/>
<path fill-rule="evenodd" clip-rule="evenodd" d="M6.31423 32.6272C5.37324 31.9011 5.16932 30.5092 5.85875 29.5182L17.9826 12.0919L30.1065 29.5182C30.7959 30.5092 30.592 31.9011 29.651 32.6272C28.71 33.3532 27.3883 33.1385 26.6989 32.1475L17.9826 19.6192L9.26637 32.1475C8.57693 33.1385 7.25521 33.3532 6.31423 32.6272Z" fill="white"/>
<path fill-rule="evenodd" clip-rule="evenodd" d="M6.79921 28.5351C5.85823 27.8091 5.6543 26.4172 6.34374 25.4262L18.4676 7.99991L30.5915 25.4262C31.2809 26.4172 31.077 27.8091 30.136 28.5351C29.195 29.2612 27.8733 29.0464 27.1839 28.0555L18.4676 15.5271L9.75135 28.0555C9.06192 29.0464 7.7402 29.2612 6.79921 28.5351Z" fill="#A4D8E4"/>
<path fill-rule="evenodd" clip-rule="evenodd" d="M5.86399 28.5351C4.923 27.8091 4.71908 26.4172 5.40851 25.4262L17.5324 7.99991L29.6563 25.4262C30.3457 26.4172 30.1418 27.8091 29.2008 28.5351C28.2598 29.2612 26.9381 29.0464 26.2487 28.0555L17.5324 15.5271L8.81612 28.0555C8.12669 29.0464 6.80497 29.2612 5.86399 28.5351Z" fill="#FDEEB5"/>
<rect width="1.41331" height="6.94763" rx="0.706655" transform="matrix(0.784694 0.619883 -0.580165 0.814499 10.3411 20.4927)" fill="white"/>
<defs>
<linearGradient id="paint0_linear_57_539" x1="59.5" y1="41" x2="59.5" y2="1.37429e-07" gradientUnits="userSpaceOnUse">
<stop stop-color="#304D71"/>
<stop offset="1" stop-color="#3C6BA5"/>
</linearGradient>
</defs>
</svg>
