<svg width="71" height="71" viewBox="0 0 71 71" fill="none" xmlns="http://www.w3.org/2000/svg">
<circle cx="35.4999" cy="35.5" r="34.6" fill="url(#paint0_linear_57_382)" stroke="white"/>
<circle cx="35.4999" cy="43.3" r="11.2" fill="black" stroke="black"/>
<path d="M37.6432 26.516C38.8238 30.0836 37.7476 34.2514 36.309 37.6014C35.5952 39.2636 34.8041 40.6971 34.1912 41.7152C33.8849 42.2239 33.6238 42.6279 33.4398 42.9037C33.4092 42.9496 33.3808 42.9919 33.3546 43.0306C33.3041 43.0147 33.2483 42.9969 33.1876 42.9773C32.8585 42.871 32.3838 42.7102 31.8057 42.4939C30.6485 42.061 29.0816 41.4071 27.4406 40.5235C24.13 38.741 20.6396 36.0884 19.4628 32.532C17.0252 25.1656 19.3127 18.7304 24.7304 16.9377C27.4564 16.0356 30.0528 16.592 32.2865 18.2793C34.535 19.9776 36.4245 22.8329 37.6432 26.516Z" stroke="black"/>
<path d="M51.7893 31.5714C50.84 35.2074 47.6703 38.1198 44.6413 40.1488C43.1384 41.1556 41.6949 41.9285 40.6269 42.4495C40.0933 42.7099 39.6544 42.9069 39.3501 43.0383C39.2994 43.0602 39.2525 43.0803 39.2095 43.0985C39.1758 43.0577 39.1386 43.0124 39.0984 42.9629C38.88 42.6947 38.569 42.3017 38.2015 41.8058C37.4658 40.8132 36.5065 39.4124 35.6098 37.7784C33.8008 34.4822 32.3141 30.358 33.2605 26.7335C35.2207 19.226 40.64 15.0695 46.1614 16.5111C48.9397 17.2365 50.816 19.1154 51.773 21.7461C52.7364 24.3941 52.7694 27.8177 51.7893 31.5714Z" stroke="black"/>
<defs>
<linearGradient id="paint0_linear_57_382" x1="34.9999" y1="71.0001" x2="34.9999" y2="5.80038e-05" gradientUnits="userSpaceOnUse">
<stop stop-color="#304D71"/>
<stop offset="1" stop-color="#4484D3"/>
</linearGradient>
</defs>
</svg>
