<svg width="80" height="20" viewBox="0 0 80 20" fill="none" xmlns="http://www.w3.org/2000/svg">
<rect x="0.5" y="0.5" width="79" height="19" rx="2.5" fill="url(#paint0_linear_57_388)" stroke="white"/>
<circle cx="8.3" cy="12.0563" r="3.29374" fill="#FFCE22" stroke="#FFCE22" stroke-width="0.5"/>
<path d="M8.8556 7.00359C9.20135 8.04842 8.88795 9.28194 8.4545 10.2913C8.24051 10.7896 8.00317 11.2198 7.81916 11.5254C7.73562 11.6641 7.66333 11.7768 7.60958 11.8581C7.51231 11.8264 7.37754 11.7804 7.21561 11.7198C6.86804 11.5897 6.39777 11.3935 5.90567 11.1285C4.90725 10.5909 3.88005 9.80302 3.53617 8.76382C2.80643 6.55856 3.50226 4.68353 5.06905 4.16507C5.86104 3.903 6.61402 4.06305 7.26731 4.5565C7.92797 5.05552 8.49076 5.90102 8.8556 7.00359Z" stroke="#FFCE22" stroke-width="0.5"/>
<path d="M13.1384 8.47897C12.8604 9.54383 11.9266 10.4086 11.0139 11.02C10.5633 11.3218 10.1303 11.5537 9.80962 11.7101C9.66406 11.7811 9.54212 11.8364 9.45282 11.8753C9.38844 11.7958 9.30035 11.6839 9.19741 11.545C8.97644 11.2469 8.68852 10.8264 8.41963 10.3365C7.87408 9.34238 7.4405 8.12257 7.71703 7.06346C8.30386 4.81594 9.90746 3.62079 11.5043 4.03772C12.3114 4.24847 12.8563 4.79225 13.1362 5.56163C13.4193 6.33968 13.4318 7.35528 13.1384 8.47897Z" stroke="#FFCE22" stroke-width="0.5"/>
<path d="M21.5586 8.096C21.1746 8.096 20.8546 8.04533 20.5986 7.944C20.3426 7.84267 20.1506 7.69067 20.0226 7.488C19.8946 7.28 19.8306 7.02133 19.8306 6.712C19.8306 6.68533 19.8386 6.66667 19.8546 6.656C19.8706 6.64 19.8893 6.632 19.9106 6.632H20.4306C20.4573 6.632 20.476 6.64 20.4866 6.656C20.4973 6.66667 20.5026 6.68533 20.5026 6.712C20.5026 6.98933 20.5826 7.18933 20.7426 7.312C20.908 7.43467 21.1773 7.496 21.5506 7.496C22.0093 7.496 22.3453 7.41867 22.5586 7.264C22.7773 7.10933 22.8866 6.86133 22.8866 6.52C22.8866 6.22133 22.7853 6.00267 22.5826 5.864C22.38 5.72 22.0466 5.648 21.5826 5.648H20.8146C20.7613 5.648 20.7346 5.62133 20.7346 5.568V5.136C20.7346 5.08267 20.7613 5.056 20.8146 5.056H21.4706C21.8973 5.056 22.2066 4.98133 22.3986 4.832C22.596 4.68267 22.6946 4.44533 22.6946 4.12C22.6946 3.82133 22.604 3.60533 22.4226 3.472C22.2466 3.33333 21.964 3.264 21.5746 3.264C21.2173 3.264 20.956 3.32533 20.7906 3.448C20.6306 3.57067 20.5506 3.77333 20.5506 4.056C20.5506 4.10933 20.5266 4.136 20.4786 4.136H19.9586C19.9373 4.136 19.9186 4.128 19.9026 4.112C19.8866 4.096 19.8786 4.07733 19.8786 4.056C19.8786 3.608 20.0226 3.264 20.3106 3.024C20.604 2.784 21.0413 2.664 21.6226 2.664C22.204 2.664 22.6413 2.77867 22.9346 3.008C23.228 3.232 23.3746 3.568 23.3746 4.016C23.3746 4.336 23.292 4.60533 23.1266 4.824C22.9613 5.04267 22.7346 5.19733 22.4466 5.288V5.296C22.82 5.36533 23.1 5.50133 23.2866 5.704C23.4733 5.90667 23.5666 6.176 23.5666 6.512C23.5666 7.01333 23.4013 7.40267 23.0706 7.68C22.74 7.95733 22.236 8.096 21.5586 8.096ZM26.1518 8.096C25.6131 8.096 25.2025 7.96533 24.9198 7.704C24.6425 7.44267 24.5038 7.04533 24.5038 6.512V5.584C24.5038 5.05067 24.6425 4.65333 24.9198 4.392C25.1971 4.13067 25.6078 4 26.1518 4C26.6905 4 27.0985 4.13067 27.3758 4.392C27.6585 4.65333 27.7998 5.05067 27.7998 5.584V6.512C27.7998 7.04533 27.6611 7.44267 27.3838 7.704C27.1065 7.96533 26.6958 8.096 26.1518 8.096ZM26.1518 7.496C26.4931 7.496 26.7385 7.41067 26.8878 7.24C27.0425 7.064 27.1198 6.8 27.1198 6.448V5.648C27.1198 5.296 27.0425 5.03467 26.8878 4.864C26.7385 4.688 26.4931 4.6 26.1518 4.6C25.8105 4.6 25.5625 4.688 25.4078 4.864C25.2585 5.03467 25.1838 5.296 25.1838 5.648V6.448C25.1838 6.8 25.2585 7.064 25.4078 7.24C25.5625 7.41067 25.8105 7.496 26.1518 7.496ZM28.4009 8C28.3369 8 28.3182 7.968 28.3449 7.904L29.7049 4.208C29.7315 4.13333 29.7769 4.096 29.8409 4.096H30.3929C30.4569 4.096 30.5022 4.13333 30.5289 4.208L31.8889 7.904C31.9155 7.968 31.8969 8 31.8329 8H31.2809C31.2382 8 31.2089 7.97867 31.1929 7.936L30.4489 5.784C30.3955 5.62933 30.3395 5.47733 30.2809 5.328C30.2275 5.17333 30.1769 5.02133 30.1289 4.872H30.1129C30.0649 5.02667 30.0142 5.18133 29.9609 5.336C29.9075 5.49067 29.8515 5.64533 29.7929 5.8L29.0409 7.936C29.0249 7.97867 28.9955 8 28.9529 8H28.4009ZM34.0815 8.096C33.5428 8.096 33.1322 7.96533 32.8495 7.704C32.5722 7.44267 32.4335 7.04533 32.4335 6.512V5.584C32.4335 5.05067 32.5722 4.65333 32.8495 4.392C33.1268 4.13067 33.5375 4 34.0815 4C34.6202 4 35.0282 4.13067 35.3055 4.392C35.5882 4.65333 35.7295 5.05067 35.7295 5.584V6.512C35.7295 7.04533 35.5908 7.44267 35.3135 7.704C35.0362 7.96533 34.6255 8.096 34.0815 8.096ZM34.0815 7.496C34.4228 7.496 34.6682 7.41067 34.8175 7.24C34.9722 7.064 35.0495 6.8 35.0495 6.448V5.648C35.0495 5.296 34.9722 5.03467 34.8175 4.864C34.6682 4.688 34.4228 4.6 34.0815 4.6C33.7402 4.6 33.4922 4.688 33.3375 4.864C33.1882 5.03467 33.1135 5.296 33.1135 5.648V6.448C33.1135 6.8 33.1882 7.064 33.3375 7.24C33.4922 7.41067 33.7402 7.496 34.0815 7.496ZM36.9066 8C36.8532 8 36.8266 7.97333 36.8266 7.92V5.072C36.8266 4.928 36.8212 4.77867 36.8106 4.624C36.8052 4.464 36.7919 4.32 36.7706 4.192C36.7599 4.128 36.7892 4.096 36.8586 4.096H37.3386C37.3652 4.096 37.3839 4.09867 37.3946 4.104C37.4052 4.10933 37.4132 4.12533 37.4186 4.152C37.4292 4.232 37.4426 4.31733 37.4586 4.408C37.4746 4.49867 37.4852 4.592 37.4906 4.688C37.7306 4.448 37.9572 4.27467 38.1706 4.168C38.3839 4.056 38.6132 4 38.8586 4C39.1306 4 39.3492 4.064 39.5146 4.192C39.6852 4.31467 39.8052 4.49867 39.8746 4.744C40.1306 4.48267 40.3679 4.29333 40.5866 4.176C40.8052 4.05867 41.0426 4 41.2986 4C41.6559 4 41.9252 4.112 42.1066 4.336C42.2932 4.56 42.3866 4.89067 42.3866 5.328V7.92C42.3866 7.97333 42.3599 8 42.3066 8H41.7866C41.7332 8 41.7066 7.97333 41.7066 7.92V5.368C41.7066 5.112 41.6586 4.92 41.5626 4.792C41.4719 4.664 41.3279 4.6 41.1306 4.6C40.9546 4.6 40.7732 4.656 40.5866 4.768C40.4052 4.87467 40.1919 5.04533 39.9466 5.28V7.92C39.9466 7.97333 39.9199 8 39.8666 8H39.3466C39.2932 8 39.2666 7.97333 39.2666 7.92V5.368C39.2666 5.112 39.2186 4.92 39.1226 4.792C39.0319 4.664 38.8879 4.6 38.6906 4.6C38.5146 4.6 38.3332 4.656 38.1466 4.768C37.9652 4.87467 37.7519 5.04533 37.5066 5.28V7.92C37.5066 7.97333 37.4799 8 37.4266 8H36.9066ZM45.0244 8.096C44.5177 8.096 44.1497 7.98133 43.9204 7.752C43.6964 7.51733 43.5844 7.144 43.5844 6.632V4.176C43.5844 4.12267 43.611 4.096 43.6644 4.096H44.1844C44.2377 4.096 44.2644 4.12267 44.2644 4.176V6.744C44.2644 7.00533 44.331 7.20267 44.4644 7.336C44.603 7.464 44.8057 7.528 45.0724 7.528C45.339 7.528 45.547 7.46133 45.6964 7.328C45.8457 7.18933 45.9204 6.99467 45.9204 6.744V6.352C45.9204 6.13333 45.867 5.97067 45.7604 5.864C45.6537 5.752 45.499 5.696 45.2964 5.696C45.0777 5.696 44.875 5.76 44.6884 5.888C44.5017 6.01067 44.331 6.18933 44.1764 6.424L44.1684 5.76C44.355 5.54133 44.5524 5.376 44.7604 5.264C44.9737 5.152 45.2137 5.096 45.4804 5.096C45.8484 5.096 46.1284 5.2 46.3204 5.408C46.5177 5.616 46.6164 5.92267 46.6164 6.328V6.672C46.6164 7.14133 46.4804 7.496 46.2084 7.736C45.9364 7.976 45.5417 8.096 45.0244 8.096ZM47.5204 8C47.467 8 47.4404 7.97333 47.4404 7.92V4.176C47.4404 4.12267 47.467 4.096 47.5204 4.096H48.0404C48.0937 4.096 48.1204 4.12267 48.1204 4.176V7.92C48.1204 7.97333 48.0937 8 48.0404 8H47.5204ZM50.8068 8.096C50.2948 8.096 49.9001 7.976 49.6228 7.736C49.3508 7.496 49.2148 7.14133 49.2148 6.672V5.552C49.2148 5.04533 49.3508 4.66133 49.6228 4.4C49.8948 4.13333 50.2894 4 50.8068 4C51.3241 4 51.7161 4.13067 51.9828 4.392C52.2548 4.648 52.3908 5.02133 52.3908 5.512V6.136C52.3908 6.18933 52.3641 6.216 52.3108 6.216H49.8947V6.472C49.8947 6.82933 49.9694 7.09067 50.1188 7.256C50.2681 7.416 50.5108 7.496 50.8468 7.496C51.0974 7.496 51.2894 7.456 51.4228 7.376C51.5614 7.29067 51.6308 7.168 51.6308 7.008C51.6308 6.94933 51.6601 6.92 51.7188 6.92H52.2388C52.2814 6.92 52.3081 6.944 52.3188 6.992C52.3401 7.33333 52.2148 7.60267 51.9428 7.8C51.6708 7.99733 51.2921 8.096 50.8068 8.096ZM49.8947 5.632H51.7108V5.584C51.7108 5.248 51.6361 5 51.4868 4.84C51.3374 4.68 51.1134 4.6 50.8148 4.6C50.5054 4.6 50.2734 4.68267 50.1188 4.848C49.9694 5.01333 49.8947 5.26133 49.8947 5.592V5.632ZM55.1549 8C55.1015 8 55.0749 7.97333 55.0749 7.92L55.1389 4.176C55.1389 4.12267 55.1655 4.096 55.2189 4.096H55.7869C55.8242 4.096 55.8535 4.11733 55.8749 4.16L57.0509 6.464L58.2269 4.16C58.2482 4.11733 58.2775 4.096 58.3149 4.096H58.8829C58.9362 4.096 58.9629 4.12267 58.9629 4.176L59.0269 7.92C59.0269 7.97333 59.0002 8 58.9469 8H58.4509C58.3975 8 58.3709 7.97333 58.3709 7.92L58.3549 6C58.3549 5.93067 58.3575 5.84267 58.3629 5.736C58.3682 5.62933 58.3735 5.51733 58.3789 5.4C58.3895 5.28267 58.3975 5.176 58.4029 5.08H58.3789C58.3255 5.21333 58.2695 5.33867 58.2109 5.456C58.1575 5.57333 58.1069 5.67733 58.0589 5.768L57.1149 7.472C57.1095 7.48267 57.1015 7.49067 57.0909 7.496C57.0802 7.50133 57.0669 7.504 57.0509 7.504C57.0349 7.504 57.0215 7.50133 57.0109 7.496C57.0055 7.49067 56.9975 7.48267 56.9869 7.472L56.0429 5.768C55.9949 5.67733 55.9442 5.57333 55.8909 5.456C55.8375 5.33867 55.7815 5.21333 55.7229 5.08H55.6989C55.7095 5.176 55.7175 5.28267 55.7229 5.4C55.7282 5.51733 55.7335 5.62933 55.7389 5.736C55.7442 5.84267 55.7469 5.93067 55.7469 6L55.7309 7.92C55.7309 7.97333 55.7042 8 55.6509 8H55.1549ZM60.7147 9.48C60.6507 9.48 60.632 9.448 60.6587 9.384L61.2267 7.952L59.7467 4.192C59.72 4.128 59.7387 4.096 59.8027 4.096H60.3707C60.4134 4.096 60.4427 4.11733 60.4587 4.16L61.1787 6.096C61.2427 6.26133 61.304 6.432 61.3627 6.608C61.4267 6.784 61.488 6.95733 61.5467 7.128H61.5547C61.6134 6.95733 61.6747 6.784 61.7387 6.608C61.808 6.432 61.872 6.26133 61.9307 6.096L62.6507 4.16C62.6667 4.11733 62.6987 4.096 62.7467 4.096H63.2827C63.3094 4.096 63.328 4.10667 63.3387 4.128C63.3547 4.144 63.3574 4.16533 63.3467 4.192L61.3227 9.416C61.3067 9.45867 61.2774 9.48 61.2347 9.48H60.7147ZM63.6753 8C63.6433 8 63.6219 7.98933 63.6113 7.968C63.6006 7.94667 63.6059 7.92533 63.6273 7.904L65.0113 5.992L63.7233 4.192C63.7019 4.16533 63.6966 4.144 63.7073 4.128C63.7179 4.10667 63.7393 4.096 63.7713 4.096H64.3953C64.4379 4.096 64.4699 4.112 64.4913 4.144L65.0513 4.952C65.1153 5.04267 65.1793 5.13867 65.2433 5.24C65.3126 5.34133 65.3766 5.43733 65.4353 5.528H65.4433C65.5126 5.42667 65.5846 5.32267 65.6593 5.216C65.7339 5.10933 65.8059 5.00533 65.8753 4.904L66.4113 4.144C66.4326 4.112 66.4646 4.096 66.5073 4.096H67.0913C67.1233 4.096 67.1446 4.10667 67.1553 4.128C67.1659 4.144 67.1606 4.16533 67.1393 4.192L65.8513 5.968L67.2513 7.904C67.2726 7.92533 67.2779 7.94667 67.2673 7.968C67.2566 7.98933 67.2353 8 67.2033 8H66.5793C66.5366 8 66.5046 7.984 66.4833 7.952L65.9473 7.2C65.8619 7.07733 65.7739 6.952 65.6833 6.824C65.5979 6.696 65.5126 6.57067 65.4273 6.448H65.4193C65.3393 6.57067 65.2566 6.696 65.1713 6.824C65.0859 6.952 65.0006 7.07733 64.9153 7.2L64.3873 7.952C64.3766 7.97333 64.3633 7.98667 64.3473 7.992C64.3313 7.99733 64.3126 8 64.2913 8H63.6753ZM68.9294 8.096C68.5881 8.096 68.3268 7.98133 68.1454 7.752C67.9641 7.52267 67.8734 7.192 67.8734 6.76V4.176C67.8734 4.12267 67.9001 4.096 67.9534 4.096H68.4734C68.5268 4.096 68.5534 4.12267 68.5534 4.176V6.728C68.5534 6.98933 68.5988 7.184 68.6894 7.312C68.7854 7.43467 68.9321 7.496 69.1294 7.496C69.3268 7.496 69.5241 7.43467 69.7214 7.312C69.9241 7.18933 70.1748 6.976 70.4734 6.672L70.4574 7.304C70.2868 7.48 70.1161 7.62667 69.9454 7.744C69.7748 7.86133 69.6041 7.94933 69.4334 8.008C69.2681 8.06667 69.1001 8.096 68.9294 8.096ZM70.5294 8C70.5028 8 70.4814 7.99467 70.4654 7.984C70.4494 7.968 70.4388 7.94667 70.4334 7.92C70.4174 7.81867 70.4041 7.71467 70.3934 7.608C70.3828 7.50133 70.3748 7.392 70.3694 7.28L70.3294 6.944V4.176C70.3294 4.12267 70.3561 4.096 70.4094 4.096H70.9294C70.9828 4.096 71.0094 4.12267 71.0094 4.176V7.024C71.0094 7.168 71.0121 7.31733 71.0174 7.472C71.0281 7.62667 71.0441 7.776 71.0654 7.92C71.0761 7.97333 71.0468 8 70.9774 8H70.5294Z" fill="#FFCE22"/>
<path d="M43.4997 16.096C42.9397 16.096 42.5024 15.936 42.1877 15.616C41.873 15.296 41.7157 14.8507 41.7157 14.28V12.48C41.7157 11.9093 41.873 11.464 42.1877 11.144C42.5024 10.824 42.9397 10.664 43.4997 10.664C44.0597 10.664 44.497 10.824 44.8117 11.144C45.1264 11.464 45.2837 11.9093 45.2837 12.48V14.28C45.2837 14.8507 45.1264 15.296 44.8117 15.616C44.497 15.936 44.0597 16.096 43.4997 16.096ZM43.4997 15.496C43.8464 15.496 44.1157 15.3947 44.3077 15.192C44.505 14.984 44.6037 14.7013 44.6037 14.344V12.416C44.6037 12.0533 44.505 11.7707 44.3077 11.568C44.1157 11.3653 43.8464 11.264 43.4997 11.264C43.153 11.264 42.881 11.3653 42.6837 11.568C42.4917 11.7707 42.3957 12.0533 42.3957 12.416V14.344C42.3957 14.7013 42.4917 14.984 42.6837 15.192C42.881 15.3947 43.153 15.496 43.4997 15.496Z" fill="white"/>
<defs>
<linearGradient id="paint0_linear_57_388" x1="40" y1="19" x2="40" y2="1" gradientUnits="userSpaceOnUse">
<stop stop-color="#304D71"/>
<stop offset="1" stop-color="#3C6BA5"/>
</linearGradient>
</defs>
</svg>
