<svg width="110" height="40" viewBox="0 0 110 40" fill="none" xmlns="http://www.w3.org/2000/svg">
<rect x="0.5" y="0.5" width="109" height="39" rx="3.5" fill="url(#paint0_linear_57_556)" stroke="white"/>
<path d="M35.117 18C35.0217 18 34.987 17.9523 35.013 17.857L37.847 9.589C37.873 9.51967 37.925 9.485 38.003 9.485H39.16C39.238 9.485 39.29 9.51967 39.316 9.589L42.189 17.857C42.2063 17.9003 42.202 17.935 42.176 17.961C42.1587 17.987 42.1283 18 42.085 18H41.162C41.084 18 41.032 17.9653 41.006 17.896L39.082 12.046C38.9953 11.786 38.9087 11.526 38.822 11.266C38.7353 11.006 38.6487 10.746 38.562 10.486H38.549C38.4623 10.7373 38.38 10.993 38.302 11.253C38.224 11.513 38.1417 11.7687 38.055 12.02L36.144 17.896C36.118 17.9653 36.066 18 35.988 18H35.117ZM45.6674 18.156C44.8354 18.156 44.1941 17.961 43.7434 17.571C43.3014 17.181 43.0804 16.6047 43.0804 15.842V14.022C43.0804 13.1987 43.3014 12.5747 43.7434 12.15C44.1854 11.7167 44.8267 11.5 45.6674 11.5C46.5081 11.5 47.1451 11.7123 47.5784 12.137C48.0204 12.553 48.2414 13.1597 48.2414 13.957V14.971C48.2414 15.0577 48.1981 15.101 48.1114 15.101H44.1854V15.517C44.1854 16.0977 44.3067 16.5223 44.5494 16.791C44.7921 17.051 45.1864 17.181 45.7324 17.181C46.1397 17.181 46.4517 17.116 46.6684 16.986C46.8937 16.8473 47.0064 16.648 47.0064 16.388C47.0064 16.2927 47.0541 16.245 47.1494 16.245H47.9944C48.0637 16.245 48.1071 16.284 48.1244 16.362C48.1591 16.9167 47.9554 17.3543 47.5134 17.675C47.0714 17.9957 46.4561 18.156 45.6674 18.156ZM44.1854 14.152H47.1364V14.074C47.1364 13.528 47.0151 13.125 46.7724 12.865C46.5297 12.605 46.1657 12.475 45.6804 12.475C45.1777 12.475 44.8007 12.6093 44.5494 12.878C44.3067 13.1467 44.1854 13.5497 44.1854 14.087V14.152ZM51.9926 18.156C51.2473 18.156 50.6753 18.0433 50.2766 17.818C49.8866 17.584 49.6873 17.1593 49.6786 16.544C49.67 16.0587 49.7783 15.6687 50.0036 15.374C50.229 15.0707 50.5843 14.828 51.0696 14.646L52.5386 14.1C52.8593 13.9787 53.0716 13.8487 53.1756 13.71C53.2883 13.5713 53.3446 13.3893 53.3446 13.164C53.3446 12.904 53.2493 12.722 53.0586 12.618C52.8766 12.514 52.5863 12.462 52.1876 12.462C51.7543 12.462 51.4293 12.527 51.2126 12.657C51.0046 12.787 50.9006 12.9733 50.9006 13.216C50.9006 13.2767 50.892 13.3243 50.8746 13.359C50.8573 13.3937 50.827 13.411 50.7836 13.411H49.9256C49.8476 13.411 49.8 13.346 49.7826 13.216C49.7306 12.722 49.9126 12.3147 50.3286 11.994C50.7446 11.6647 51.36 11.5 52.1746 11.5C52.894 11.5 53.453 11.6387 53.8516 11.916C54.2503 12.1847 54.4496 12.605 54.4496 13.177C54.4496 13.619 54.3456 13.9787 54.1376 14.256C53.9296 14.5333 53.5743 14.763 53.0716 14.945L51.5636 15.491C51.269 15.595 51.061 15.725 50.9396 15.881C50.827 16.037 50.775 16.245 50.7836 16.505C50.7923 16.791 50.8963 16.9817 51.0956 17.077C51.3036 17.1723 51.62 17.2157 52.0446 17.207C52.504 17.1983 52.8506 17.129 53.0846 16.999C53.3273 16.8603 53.4486 16.648 53.4486 16.362C53.4486 16.232 53.4833 16.167 53.5526 16.167H54.4106C54.454 16.167 54.4843 16.1757 54.5016 16.193C54.5276 16.2103 54.545 16.2623 54.5536 16.349C54.5883 16.8777 54.4063 17.311 54.0076 17.649C53.6176 17.987 52.946 18.156 51.9926 18.156ZM57.0959 20.405C56.9919 20.405 56.9616 20.353 57.0049 20.249L57.9279 17.922L55.5229 11.812C55.4796 11.708 55.5099 11.656 55.6139 11.656H56.5369C56.6063 11.656 56.6539 11.6907 56.6799 11.76L57.8499 14.906C57.9539 15.1747 58.0536 15.452 58.1489 15.738C58.2529 16.024 58.3526 16.3057 58.4479 16.583H58.4609C58.5563 16.3057 58.6559 16.024 58.7599 15.738C58.8726 15.452 58.9766 15.1747 59.0719 14.906L60.2419 11.76C60.2679 11.6907 60.3199 11.656 60.3979 11.656H61.2689C61.3123 11.656 61.3426 11.6733 61.3599 11.708C61.3859 11.734 61.3903 11.7687 61.3729 11.812L58.0839 20.301C58.0579 20.3703 58.0103 20.405 57.9409 20.405H57.0959ZM64.3769 18.156C63.8222 18.156 63.3932 17.974 63.0899 17.61C62.7952 17.246 62.6479 16.7087 62.6479 15.998V11.786C62.6479 11.6993 62.6912 11.656 62.7779 11.656H63.6229C63.7095 11.656 63.7529 11.6993 63.7529 11.786V15.933C63.7529 16.349 63.8265 16.661 63.9739 16.869C64.1299 17.077 64.3552 17.181 64.6499 17.181C64.9185 17.181 65.2002 17.0943 65.4949 16.921C65.7895 16.739 66.1362 16.4573 66.5349 16.076V11.786C66.5349 11.6993 66.5782 11.656 66.6649 11.656H67.5099C67.5965 11.656 67.6399 11.6993 67.6399 11.786V15.933C67.6399 16.349 67.7135 16.661 67.8609 16.869C68.0169 17.077 68.2422 17.181 68.5369 17.181C68.8055 17.181 69.0872 17.0943 69.3819 16.921C69.6765 16.739 70.0232 16.4573 70.4219 16.076V11.786C70.4219 11.6993 70.4652 11.656 70.5519 11.656H71.3969C71.4835 11.656 71.5269 11.6993 71.5269 11.786V16.414C71.5269 16.648 71.5312 16.895 71.5399 17.155C71.5572 17.4063 71.5832 17.636 71.6179 17.844C71.6352 17.948 71.5875 18 71.4749 18H70.6949C70.6169 18 70.5735 17.9697 70.5649 17.909C70.5475 17.779 70.5259 17.6403 70.4999 17.493C70.4825 17.3457 70.4652 17.194 70.4479 17.038C70.0579 17.428 69.6895 17.714 69.3429 17.896C69.0049 18.0693 68.6452 18.156 68.2639 18.156C67.8392 18.156 67.4925 18.0563 67.2239 17.857C66.9552 17.649 66.7645 17.3457 66.6519 16.947C66.2359 17.3717 65.8502 17.6793 65.4949 17.87C65.1482 18.0607 64.7755 18.156 64.3769 18.156ZM77.156 18C77.104 18 77.0693 17.9827 77.052 17.948C77.0346 17.9133 77.0173 17.87 77 17.818C76.9913 17.7487 76.9696 17.6013 76.935 17.376C76.909 17.142 76.8916 16.934 76.883 16.752L76.844 16.258V13.671C76.844 13.2377 76.7573 12.93 76.584 12.748C76.4106 12.566 76.1073 12.475 75.674 12.475C75.284 12.475 74.9893 12.5443 74.79 12.683C74.5993 12.813 74.504 13.0123 74.504 13.281C74.504 13.3677 74.465 13.411 74.387 13.411H73.529C73.4423 13.411 73.3946 13.3287 73.386 13.164C73.3426 12.67 73.5333 12.2713 73.958 11.968C74.3913 11.656 74.9763 11.5 75.713 11.5C76.467 11.5 77.026 11.6777 77.39 12.033C77.7626 12.3883 77.949 12.9257 77.949 13.645V16.427C77.949 16.7303 77.9576 17.0033 77.975 17.246C77.9923 17.48 78.014 17.6837 78.04 17.857C78.0573 17.9523 78.014 18 77.91 18H77.156ZM74.673 18.156C74.1703 18.156 73.7846 18.0043 73.516 17.701C73.256 17.3977 73.126 16.9557 73.126 16.375C73.126 15.9243 73.2126 15.556 73.386 15.27C73.568 14.984 73.854 14.763 74.244 14.607C74.6426 14.451 75.1713 14.347 75.83 14.295L77.052 14.191V15.036L75.804 15.14C75.206 15.192 74.7943 15.3003 74.569 15.465C74.3436 15.6297 74.231 15.907 74.231 16.297C74.231 16.5917 74.2916 16.8127 74.413 16.96C74.5343 17.1073 74.7163 17.181 74.959 17.181C75.245 17.181 75.544 17.0857 75.856 16.895C76.168 16.6957 76.5796 16.3317 77.091 15.803V16.778C76.7876 17.1073 76.5016 17.376 76.233 17.584C75.973 17.7833 75.7173 17.9263 75.466 18.013C75.2146 18.1083 74.9503 18.156 74.673 18.156ZM83.7618 18C83.6751 18 83.6318 17.9567 83.6318 17.87V15.218C83.2938 15.5213 82.9384 15.764 82.5658 15.946C82.1931 16.1193 81.8291 16.206 81.4738 16.206C80.8931 16.206 80.4511 16.024 80.1478 15.66C79.8531 15.296 79.7058 14.7717 79.7058 14.087V11.786C79.7058 11.6993 79.7491 11.656 79.8358 11.656H80.6808C80.7674 11.656 80.8108 11.6993 80.8108 11.786V13.905C80.8108 14.3557 80.8844 14.6937 81.0318 14.919C81.1791 15.1443 81.4044 15.257 81.7078 15.257C82.0544 15.257 82.3881 15.1617 82.7088 14.971C83.0294 14.7717 83.3371 14.516 83.6318 14.204V11.786C83.6318 11.6993 83.6751 11.656 83.7618 11.656H84.6068C84.6934 11.656 84.7368 11.6993 84.7368 11.786V17.87C84.7368 17.9567 84.6934 18 84.6068 18H83.7618ZM88.4088 18.156C87.8541 18.156 87.4294 17.9697 87.1348 17.597C86.8401 17.2243 86.6928 16.687 86.6928 15.985V11.786C86.6928 11.6993 86.7361 11.656 86.8228 11.656H87.6678C87.7544 11.656 87.7978 11.6993 87.7978 11.786V15.933C87.7978 16.3577 87.8714 16.674 88.0188 16.882C88.1748 17.0813 88.4131 17.181 88.7338 17.181C89.0544 17.181 89.3751 17.0813 89.6958 16.882C90.0251 16.6827 90.4324 16.336 90.9178 15.842L90.8918 16.869C90.6144 17.155 90.3371 17.3933 90.0598 17.584C89.7824 17.7747 89.5051 17.9177 89.2278 18.013C88.9591 18.1083 88.6861 18.156 88.4088 18.156ZM91.0088 18C90.9654 18 90.9308 17.9913 90.9048 17.974C90.8788 17.948 90.8614 17.9133 90.8528 17.87C90.8268 17.7053 90.8051 17.5363 90.7878 17.363C90.7704 17.1897 90.7574 17.012 90.7488 16.83L90.6838 16.284V11.786C90.6838 11.6993 90.7271 11.656 90.8138 11.656H91.6588C91.7454 11.656 91.7888 11.6993 91.7888 11.786V16.414C91.7888 16.648 91.7931 16.8907 91.8018 17.142C91.8191 17.3933 91.8451 17.636 91.8798 17.87C91.8971 17.9567 91.8494 18 91.7368 18H91.0088ZM95.4547 18.156C94.9 18.156 94.4753 17.9697 94.1807 17.597C93.886 17.2243 93.7387 16.687 93.7387 15.985V11.786C93.7387 11.6993 93.782 11.656 93.8687 11.656H94.7137C94.8003 11.656 94.8437 11.6993 94.8437 11.786V15.933C94.8437 16.3577 94.9173 16.674 95.0647 16.882C95.2207 17.0813 95.459 17.181 95.7797 17.181C96.1003 17.181 96.421 17.0813 96.7417 16.882C97.071 16.6827 97.4783 16.336 97.9637 15.842L97.9377 16.869C97.6603 17.155 97.383 17.3933 97.1057 17.584C96.8283 17.7747 96.551 17.9177 96.2737 18.013C96.005 18.1083 95.732 18.156 95.4547 18.156ZM98.0547 18C98.0113 18 97.9767 17.9913 97.9507 17.974C97.9247 17.948 97.9073 17.9133 97.8987 17.87C97.8727 17.7053 97.851 17.5363 97.8337 17.363C97.8163 17.1897 97.8033 17.012 97.7947 16.83L97.7297 16.284V11.786C97.7297 11.6993 97.773 11.656 97.8597 11.656H98.7047C98.7913 11.656 98.8347 11.6993 98.8347 11.786V16.414C98.8347 16.648 98.839 16.8907 98.8477 17.142C98.865 17.3933 98.891 17.636 98.9257 17.87C98.943 17.9567 98.8953 18 98.7827 18H98.0547ZM96.2867 10.772C95.992 10.772 95.7363 10.733 95.5197 10.655C95.3117 10.5683 95.1427 10.4773 95.0127 10.382C94.8827 10.278 94.7873 10.1957 94.7267 10.135C94.692 10.1003 94.6747 10.0483 94.6747 9.979V9.277C94.6747 9.225 94.6877 9.19033 94.7137 9.173C94.7397 9.147 94.7743 9.15567 94.8177 9.199C94.939 9.31167 95.1253 9.45033 95.3767 9.615C95.6367 9.771 95.94 9.849 96.2867 9.849C96.642 9.849 96.9453 9.771 97.1967 9.615C97.4567 9.45033 97.643 9.31167 97.7557 9.199C97.799 9.15567 97.8337 9.147 97.8597 9.173C97.8857 9.19033 97.8987 9.225 97.8987 9.277V9.979C97.8987 10.0137 97.8943 10.044 97.8857 10.07C97.877 10.096 97.864 10.1177 97.8467 10.135C97.786 10.1957 97.6907 10.278 97.5607 10.382C97.4307 10.4773 97.2617 10.5683 97.0537 10.655C96.8457 10.733 96.59 10.772 96.2867 10.772ZM35.325 31C35.273 31 35.2383 30.9827 35.221 30.948C35.2037 30.9133 35.208 30.8787 35.234 30.844L37.223 27.477L35.455 24.812C35.429 24.7687 35.4203 24.734 35.429 24.708C35.4463 24.6733 35.481 24.656 35.533 24.656H36.495C36.573 24.656 36.6293 24.682 36.664 24.734L38.146 27.165H38.991V22.251C38.991 22.1643 39.0343 22.121 39.121 22.121H39.966C40.0527 22.121 40.096 22.1643 40.096 22.251V27.165H40.941L42.423 24.734C42.4577 24.682 42.514 24.656 42.592 24.656H43.554C43.606 24.656 43.6363 24.6733 43.645 24.708C43.6623 24.734 43.658 24.7687 43.632 24.812L41.864 27.477L43.853 30.844C43.879 30.8787 43.8833 30.9133 43.866 30.948C43.8487 30.9827 43.814 31 43.762 31H42.774C42.7047 31 42.6527 30.974 42.618 30.922L40.98 28.049H40.096V30.87C40.096 30.9567 40.0527 31 39.966 31H39.121C39.0343 31 38.991 30.9567 38.991 30.87V28.049H38.094L36.456 30.922C36.4213 30.974 36.3693 31 36.3 31H35.325ZM45.9748 33.405C45.8708 33.405 45.8405 33.353 45.8838 33.249L46.8068 30.922L44.4018 24.812C44.3585 24.708 44.3888 24.656 44.4928 24.656H45.4158C45.4852 24.656 45.5328 24.6907 45.5588 24.76L46.7288 27.906C46.8328 28.1747 46.9325 28.452 47.0278 28.738C47.1318 29.024 47.2315 29.3057 47.3268 29.583H47.3398C47.4352 29.3057 47.5348 29.024 47.6388 28.738C47.7515 28.452 47.8555 28.1747 47.9508 27.906L49.1208 24.76C49.1468 24.6907 49.1988 24.656 49.2768 24.656H50.1478C50.1912 24.656 50.2215 24.6733 50.2388 24.708C50.2648 24.734 50.2692 24.7687 50.2518 24.812L46.9628 33.301C46.9368 33.3703 46.8892 33.405 46.8198 33.405H45.9748ZM54.3738 31.156C54.0444 31.156 53.7021 31.1127 53.3468 31.026C52.9914 30.9393 52.7054 30.8223 52.4888 30.675L52.4498 29.739C52.7011 29.8777 52.9784 29.986 53.2818 30.064C53.5851 30.142 53.8711 30.181 54.1398 30.181C54.6424 30.181 55.0108 30.0337 55.2448 29.739C55.4788 29.4443 55.5958 29.0023 55.5958 28.413V26.983C55.5958 26.463 55.5048 26.0817 55.3228 25.839C55.1408 25.5963 54.8721 25.475 54.5168 25.475C54.2134 25.475 53.9058 25.566 53.5938 25.748C53.2904 25.9213 52.8874 26.2333 52.3848 26.684V25.644C52.6794 25.3753 52.9524 25.1587 53.2038 24.994C53.4638 24.8207 53.7151 24.695 53.9578 24.617C54.2091 24.539 54.4734 24.5 54.7508 24.5C55.3921 24.5 55.8774 24.6993 56.2068 25.098C56.5361 25.4967 56.7008 26.1033 56.7008 26.918V28.543C56.7008 29.3837 56.5014 30.0293 56.1028 30.48C55.7041 30.9307 55.1278 31.156 54.3738 31.156ZM51.6568 33.405C51.5701 33.405 51.5268 33.3617 51.5268 33.275V26.125C51.5268 25.9257 51.5181 25.7047 51.5008 25.462C51.4834 25.2193 51.4618 25.0027 51.4358 24.812C51.4271 24.708 51.4704 24.656 51.5658 24.656H52.3588C52.4454 24.656 52.4931 24.6993 52.5018 24.786C52.5191 24.8467 52.5364 24.9333 52.5538 25.046C52.5711 25.1587 52.5841 25.2713 52.5928 25.384C52.6014 25.488 52.6014 25.5617 52.5928 25.605L52.6318 26.255V33.275C52.6318 33.3617 52.5884 33.405 52.5018 33.405H51.6568ZM62.6562 31C62.5695 31 62.5262 30.9567 62.5262 30.87V24.786C62.5262 24.6993 62.5695 24.656 62.6562 24.656H63.5012C63.5878 24.656 63.6312 24.6993 63.6312 24.786V30.87C63.6312 30.9567 63.5878 31 63.5012 31H62.6562ZM58.6392 31C58.5525 31 58.5092 30.9567 58.5092 30.87V24.786C58.5092 24.6993 58.5525 24.656 58.6392 24.656H59.4842C59.5708 24.656 59.6142 24.6993 59.6142 24.786V30.87C59.6142 30.9567 59.5708 31 59.4842 31H58.6392ZM59.4062 28.231V27.282H62.7342V28.231H59.4062ZM69.2595 31C69.2075 31 69.1728 30.9827 69.1555 30.948C69.1381 30.9133 69.1208 30.87 69.1035 30.818C69.0948 30.7487 69.0731 30.6013 69.0385 30.376C69.0125 30.142 68.9951 29.934 68.9865 29.752L68.9475 29.258V26.671C68.9475 26.2377 68.8608 25.93 68.6875 25.748C68.5141 25.566 68.2108 25.475 67.7775 25.475C67.3875 25.475 67.0928 25.5443 66.8935 25.683C66.7028 25.813 66.6075 26.0123 66.6075 26.281C66.6075 26.3677 66.5685 26.411 66.4905 26.411H65.6325C65.5458 26.411 65.4981 26.3287 65.4895 26.164C65.4461 25.67 65.6368 25.2713 66.0615 24.968C66.4948 24.656 67.0798 24.5 67.8165 24.5C68.5705 24.5 69.1295 24.6777 69.4935 25.033C69.8661 25.3883 70.0525 25.9257 70.0525 26.645V29.427C70.0525 29.7303 70.0611 30.0033 70.0785 30.246C70.0958 30.48 70.1175 30.6837 70.1435 30.857C70.1608 30.9523 70.1175 31 70.0135 31H69.2595ZM66.7765 31.156C66.2738 31.156 65.8881 31.0043 65.6195 30.701C65.3595 30.3977 65.2295 29.9557 65.2295 29.375C65.2295 28.9243 65.3161 28.556 65.4895 28.27C65.6715 27.984 65.9575 27.763 66.3475 27.607C66.7461 27.451 67.2748 27.347 67.9335 27.295L69.1555 27.191V28.036L67.9075 28.14C67.3095 28.192 66.8978 28.3003 66.6725 28.465C66.4471 28.6297 66.3345 28.907 66.3345 29.297C66.3345 29.5917 66.3951 29.8127 66.5165 29.96C66.6378 30.1073 66.8198 30.181 67.0625 30.181C67.3485 30.181 67.6475 30.0857 67.9595 29.895C68.2715 29.6957 68.6831 29.3317 69.1945 28.803V29.778C68.8911 30.1073 68.6051 30.376 68.3365 30.584C68.0765 30.7833 67.8208 30.9263 67.5695 31.013C67.3181 31.1083 67.0538 31.156 66.7765 31.156ZM71.1983 31C71.0943 31 71.064 30.948 71.1073 30.844L73.3173 24.838C73.3606 24.7167 73.4343 24.656 73.5383 24.656H74.4353C74.5393 24.656 74.613 24.7167 74.6563 24.838L76.8663 30.844C76.9096 30.948 76.8793 31 76.7753 31H75.8783C75.809 31 75.7613 30.9653 75.7353 30.896L74.5263 27.399C74.4396 27.1477 74.3486 26.9007 74.2533 26.658C74.1666 26.4067 74.0843 26.1597 74.0063 25.917H73.9803C73.9023 26.1683 73.82 26.4197 73.7333 26.671C73.6466 26.9223 73.5556 27.1737 73.4603 27.425L72.2383 30.896C72.2123 30.9653 72.1646 31 72.0953 31H71.1983Z" fill="white"/>
<path d="M6.51113 10.0737H19.3849L25.4502 15.3508V32.5H6.51113V10.0737Z" fill="#A4D8E4" stroke="#A4D8E4"/>
<path d="M5 7.47961H18.5608L24.9391 13.029V30.906H5V7.47961Z" fill="#C1EA9E"/>
<path d="M18.3841 7L25.392 13.0727H18.3841V7Z" fill="white"/>
<rect x="5" y="27.4273" width="19.9391" height="4.72585" fill="#FDEEB5"/>
<rect x="5" y="29.827" width="19.9391" height="2.32594" fill="white"/>
<rect x="9.98479" y="22.4317" width="9.96953" height="0.803989" rx="0.401995" fill="#A4D8E4"/>
<rect x="9.98479" y="18.6374" width="9.96953" height="0.803989" rx="0.401995" fill="#FDEEB5"/>
<rect x="9.98479" y="14.8427" width="6.36057" height="0.803989" rx="0.401995" fill="#A4D8E4"/>
<defs>
<linearGradient id="paint0_linear_57_556" x1="60.5" y1="39" x2="60" y2="0.999999" gradientUnits="userSpaceOnUse">
<stop stop-color="#304D71"/>
<stop offset="1" stop-color="#3C6BA5"/>
</linearGradient>
</defs>
</svg>
