<svg width="110" height="41" viewBox="0 0 110 41" fill="none" xmlns="http://www.w3.org/2000/svg">
<rect x="0.5" y="0.5" width="109" height="40" rx="4.5" fill="url(#paint0_linear_57_449)" stroke="white"/>
<path d="M36.14 19C36.06 19 36.02 18.96 36.02 18.88V11.26C36.02 11.18 36.06 11.14 36.14 11.14H38.276C39.188 11.14 39.868 11.304 40.316 11.632C40.772 11.952 41 12.444 41 13.108C41 13.54 40.896 13.892 40.688 14.164C40.48 14.428 40.14 14.648 39.668 14.824V14.848C40.228 14.952 40.644 15.172 40.916 15.508C41.196 15.844 41.336 16.288 41.336 16.84C41.336 17.576 41.088 18.12 40.592 18.472C40.104 18.824 39.336 19 38.288 19H36.14ZM37.04 18.112H38.276C39.012 18.112 39.536 18.008 39.848 17.8C40.16 17.592 40.316 17.248 40.316 16.768C40.316 16.272 40.156 15.912 39.836 15.688C39.524 15.456 39.016 15.34 38.312 15.34H37.04V18.112ZM37.04 14.512H38.228C38.836 14.512 39.28 14.412 39.56 14.212C39.84 14.004 39.98 13.68 39.98 13.24C39.98 12.792 39.836 12.476 39.548 12.292C39.268 12.108 38.792 12.016 38.12 12.016H37.04V14.512ZM45.4069 19.144C45.1029 19.144 44.7869 19.104 44.4589 19.024C44.1309 18.944 43.8669 18.836 43.6669 18.7L43.6309 17.836C43.8629 17.964 44.1189 18.064 44.3989 18.136C44.6789 18.208 44.9429 18.244 45.1909 18.244C45.6549 18.244 45.9949 18.108 46.2109 17.836C46.4269 17.564 46.5349 17.156 46.5349 16.612V15.292C46.5349 14.812 46.4509 14.46 46.2829 14.236C46.1149 14.012 45.8669 13.9 45.5389 13.9C45.2589 13.9 44.9749 13.984 44.6869 14.152C44.4069 14.312 44.0349 14.6 43.5709 15.016V14.056C43.8429 13.808 44.0949 13.608 44.3269 13.456C44.5669 13.296 44.7989 13.18 45.0229 13.108C45.2549 13.036 45.4989 13 45.7549 13C46.3469 13 46.7949 13.184 47.0989 13.552C47.4029 13.92 47.5549 14.48 47.5549 15.232V16.732C47.5549 17.508 47.3709 18.104 47.0029 18.52C46.6349 18.936 46.1029 19.144 45.4069 19.144ZM42.8989 21.22C42.8189 21.22 42.7789 21.18 42.7789 21.1V14.5C42.7789 14.316 42.7709 14.112 42.7549 13.888C42.7389 13.664 42.7189 13.464 42.6949 13.288C42.6869 13.192 42.7269 13.144 42.8149 13.144H43.5469C43.6269 13.144 43.6709 13.184 43.6789 13.264C43.6949 13.32 43.7109 13.4 43.7269 13.504C43.7429 13.608 43.7549 13.712 43.7629 13.816C43.7709 13.912 43.7709 13.98 43.7629 14.02L43.7989 14.62V21.1C43.7989 21.18 43.7589 21.22 43.6789 21.22H42.8989ZM51.4562 19.144C50.6882 19.144 50.0962 18.964 49.6802 18.604C49.2722 18.244 49.0682 17.712 49.0682 17.008V15.328C49.0682 14.568 49.2722 13.992 49.6802 13.6C50.0882 13.2 50.6802 13 51.4562 13C52.2322 13 52.8202 13.196 53.2202 13.588C53.6282 13.972 53.8322 14.532 53.8322 15.268V16.204C53.8322 16.284 53.7922 16.324 53.7122 16.324H50.0882V16.708C50.0882 17.244 50.2002 17.636 50.4242 17.884C50.6482 18.124 51.0122 18.244 51.5162 18.244C51.8922 18.244 52.1802 18.184 52.3802 18.064C52.5882 17.936 52.6922 17.752 52.6922 17.512C52.6922 17.424 52.7362 17.38 52.8242 17.38H53.6042C53.6682 17.38 53.7082 17.416 53.7242 17.488C53.7562 18 53.5682 18.404 53.1602 18.7C52.7522 18.996 52.1842 19.144 51.4562 19.144ZM50.0882 15.448H52.8122V15.376C52.8122 14.872 52.7002 14.5 52.4762 14.26C52.2522 14.02 51.9162 13.9 51.4682 13.9C51.0042 13.9 50.6562 14.024 50.4242 14.272C50.2002 14.52 50.0882 14.892 50.0882 15.388V15.448ZM55.4589 19C55.3789 19 55.3389 18.96 55.3389 18.88L55.4349 13.264C55.4349 13.184 55.4749 13.144 55.5549 13.144H56.4069C56.4629 13.144 56.5069 13.176 56.5389 13.24L58.3029 16.696L60.0669 13.24C60.0989 13.176 60.1429 13.144 60.1989 13.144H61.0509C61.1309 13.144 61.1709 13.184 61.1709 13.264L61.2669 18.88C61.2669 18.96 61.2269 19 61.1469 19H60.4029C60.3229 19 60.2829 18.96 60.2829 18.88L60.2589 16C60.2589 15.896 60.2629 15.764 60.2709 15.604C60.2789 15.444 60.2869 15.276 60.2949 15.1C60.3109 14.924 60.3229 14.764 60.3309 14.62H60.2949C60.2149 14.82 60.1309 15.008 60.0429 15.184C59.9629 15.36 59.8869 15.516 59.8149 15.652L58.3989 18.208C58.3909 18.224 58.3789 18.236 58.3629 18.244C58.3469 18.252 58.3269 18.256 58.3029 18.256C58.2789 18.256 58.2589 18.252 58.2429 18.244C58.2349 18.236 58.2229 18.224 58.2069 18.208L56.7909 15.652C56.7189 15.516 56.6429 15.36 56.5629 15.184C56.4829 15.008 56.3989 14.82 56.3109 14.62H56.2749C56.2909 14.764 56.3029 14.924 56.3109 15.1C56.3189 15.276 56.3269 15.444 56.3349 15.604C56.3429 15.764 56.3469 15.896 56.3469 16L56.3229 18.88C56.3229 18.96 56.2829 19 56.2029 19H55.4589ZM65.1906 19.144C64.4226 19.144 63.8306 18.964 63.4146 18.604C63.0066 18.244 62.8026 17.712 62.8026 17.008V15.328C62.8026 14.568 63.0066 13.992 63.4146 13.6C63.8226 13.2 64.4146 13 65.1906 13C65.9666 13 66.5546 13.196 66.9546 13.588C67.3626 13.972 67.5666 14.532 67.5666 15.268V16.204C67.5666 16.284 67.5266 16.324 67.4466 16.324H63.8226V16.708C63.8226 17.244 63.9346 17.636 64.1586 17.884C64.3826 18.124 64.7466 18.244 65.2506 18.244C65.6266 18.244 65.9146 18.184 66.1146 18.064C66.3226 17.936 66.4266 17.752 66.4266 17.512C66.4266 17.424 66.4706 17.38 66.5586 17.38H67.3386C67.4026 17.38 67.4426 17.416 67.4586 17.488C67.4906 18 67.3026 18.404 66.8946 18.7C66.4866 18.996 65.9186 19.144 65.1906 19.144ZM63.8226 15.448H66.5466V15.376C66.5466 14.872 66.4346 14.5 66.2106 14.26C65.9866 14.02 65.6506 13.9 65.2026 13.9C64.7386 13.9 64.3906 14.024 64.1586 14.272C63.9346 14.52 63.8226 14.892 63.8226 15.388V15.448ZM73.0093 19C72.9293 19 72.8893 18.96 72.8893 18.88V13.264C72.8893 13.184 72.9293 13.144 73.0093 13.144H73.7893C73.8693 13.144 73.9093 13.184 73.9093 13.264V18.88C73.9093 18.96 73.8693 19 73.7893 19H73.0093ZM69.3013 19C69.2213 19 69.1813 18.96 69.1813 18.88V13.264C69.1813 13.184 69.2213 13.144 69.3013 13.144H70.0813C70.1613 13.144 70.2013 13.184 70.2013 13.264V18.88C70.2013 18.96 70.1613 19 70.0813 19H69.3013ZM70.0093 16.444V15.568H73.0813V16.444H70.0093ZM79.5366 19C79.4566 19 79.4166 18.96 79.4166 18.88V13.264C79.4166 13.184 79.4566 13.144 79.5366 13.144H80.3166C80.3966 13.144 80.4366 13.184 80.4366 13.264V18.88C80.4366 18.96 80.3966 19 80.3166 19H79.5366ZM75.8286 19C75.7486 19 75.7086 18.96 75.7086 18.88V13.264C75.7086 13.184 75.7486 13.144 75.8286 13.144H76.6086C76.6886 13.144 76.7286 13.184 76.7286 13.264V18.88C76.7286 18.96 76.6886 19 76.6086 19H75.8286ZM76.5366 16.444V15.568H79.6086V16.444H76.5366ZM84.3959 19.144C83.6359 19.144 83.0839 18.972 82.7399 18.628C82.4039 18.276 82.2359 17.716 82.2359 16.948V13.264C82.2359 13.184 82.2759 13.144 82.3559 13.144H83.1359C83.2159 13.144 83.2559 13.184 83.2559 13.264V17.116C83.2559 17.508 83.3559 17.804 83.5559 18.004C83.7639 18.196 84.0679 18.292 84.4679 18.292C84.8679 18.292 85.1799 18.192 85.4039 17.992C85.6279 17.784 85.7399 17.492 85.7399 17.116V16.528C85.7399 16.2 85.6599 15.956 85.4999 15.796C85.3399 15.628 85.1079 15.544 84.8039 15.544C84.4759 15.544 84.1719 15.64 83.8919 15.832C83.6119 16.016 83.3559 16.284 83.1239 16.636L83.1119 15.64C83.3919 15.312 83.6879 15.064 83.9999 14.896C84.3199 14.728 84.6799 14.644 85.0799 14.644C85.6319 14.644 86.0519 14.8 86.3399 15.112C86.6359 15.424 86.7839 15.884 86.7839 16.492V17.008C86.7839 17.712 86.5799 18.244 86.1719 18.604C85.7639 18.964 85.1719 19.144 84.3959 19.144ZM88.1399 19C88.0599 19 88.0199 18.96 88.0199 18.88V13.264C88.0199 13.184 88.0599 13.144 88.1399 13.144H88.9199C88.9999 13.144 89.0399 13.184 89.0399 13.264V18.88C89.0399 18.96 88.9999 19 88.9199 19H88.1399ZM93.0695 19.144C92.3015 19.144 91.7095 18.964 91.2935 18.604C90.8855 18.244 90.6815 17.712 90.6815 17.008V15.328C90.6815 14.568 90.8855 13.992 91.2935 13.6C91.7015 13.2 92.2935 13 93.0695 13C93.8455 13 94.4335 13.196 94.8335 13.588C95.2415 13.972 95.4455 14.532 95.4455 15.268V16.204C95.4455 16.284 95.4055 16.324 95.3255 16.324H91.7015V16.708C91.7015 17.244 91.8135 17.636 92.0375 17.884C92.2615 18.124 92.6255 18.244 93.1295 18.244C93.5055 18.244 93.7935 18.184 93.9935 18.064C94.2015 17.936 94.3055 17.752 94.3055 17.512C94.3055 17.424 94.3495 17.38 94.4375 17.38H95.2175C95.2815 17.38 95.3215 17.416 95.3375 17.488C95.3695 18 95.1815 18.404 94.7735 18.7C94.3655 18.996 93.7975 19.144 93.0695 19.144ZM91.7015 15.448H94.4255V15.376C94.4255 14.872 94.3135 14.5 94.0895 14.26C93.8655 14.02 93.5295 13.9 93.0815 13.9C92.6175 13.9 92.2695 14.024 92.0375 14.272C91.8135 14.52 91.7015 14.892 91.7015 15.388V15.448ZM36.74 33.22C36.644 33.22 36.616 33.172 36.656 33.076L37.508 30.928L35.288 25.288C35.248 25.192 35.276 25.144 35.372 25.144H36.224C36.288 25.144 36.332 25.176 36.356 25.24L37.436 28.144C37.532 28.392 37.624 28.648 37.712 28.912C37.808 29.176 37.9 29.436 37.988 29.692H38C38.088 29.436 38.18 29.176 38.276 28.912C38.38 28.648 38.476 28.392 38.564 28.144L39.644 25.24C39.668 25.176 39.716 25.144 39.788 25.144H40.592C40.632 25.144 40.66 25.16 40.676 25.192C40.7 25.216 40.704 25.248 40.688 25.288L37.652 33.124C37.628 33.188 37.584 33.22 37.52 33.22H36.74ZM41.0037 31C40.9077 31 40.8797 30.952 40.9197 30.856L42.9597 25.312C42.9997 25.2 43.0677 25.144 43.1637 25.144H43.9917C44.0877 25.144 44.1557 25.2 44.1957 25.312L46.2357 30.856C46.2757 30.952 46.2477 31 46.1517 31H45.3237C45.2597 31 45.2157 30.968 45.1917 30.904L44.0757 27.676C43.9957 27.444 43.9117 27.216 43.8237 26.992C43.7437 26.76 43.6677 26.532 43.5957 26.308H43.5717C43.4997 26.54 43.4237 26.772 43.3437 27.004C43.2637 27.236 43.1797 27.468 43.0917 27.7L41.9637 30.904C41.9397 30.968 41.8957 31 41.8317 31H41.0037ZM47.8142 33.22C47.7182 33.22 47.6902 33.172 47.7302 33.076L48.5822 30.928L46.3622 25.288C46.3222 25.192 46.3502 25.144 46.4462 25.144H47.2982C47.3622 25.144 47.4062 25.176 47.4302 25.24L48.5102 28.144C48.6062 28.392 48.6982 28.648 48.7862 28.912C48.8822 29.176 48.9742 29.436 49.0622 29.692H49.0742C49.1622 29.436 49.2542 29.176 49.3502 28.912C49.4542 28.648 49.5502 28.392 49.6382 28.144L50.7182 25.24C50.7422 25.176 50.7902 25.144 50.8622 25.144H51.6662C51.7062 25.144 51.7342 25.16 51.7502 25.192C51.7742 25.216 51.7782 25.248 51.7622 25.288L48.7262 33.124C48.7022 33.188 48.6582 33.22 48.5942 33.22H47.8142ZM56.5031 31C56.4231 31 56.3831 30.96 56.3831 30.88V28.432C56.0711 28.712 55.7431 28.936 55.3991 29.104C55.0551 29.264 54.7191 29.344 54.3911 29.344C53.8551 29.344 53.4471 29.176 53.1671 28.84C52.8951 28.504 52.7591 28.02 52.7591 27.388V25.264C52.7591 25.184 52.7991 25.144 52.8791 25.144H53.6591C53.7391 25.144 53.7791 25.184 53.7791 25.264V27.22C53.7791 27.636 53.8471 27.948 53.9831 28.156C54.1191 28.364 54.3271 28.468 54.6071 28.468C54.9271 28.468 55.2351 28.38 55.5311 28.204C55.8271 28.02 56.1111 27.784 56.3831 27.496V25.264C56.3831 25.184 56.4231 25.144 56.5031 25.144H57.2831C57.3631 25.144 57.4031 25.184 57.4031 25.264V30.88C57.4031 30.96 57.3631 31 57.2831 31H56.5031ZM60.8046 31.144C60.2926 31.144 59.8966 30.976 59.6166 30.64C59.3446 30.304 59.2086 29.808 59.2086 29.152V25.264C59.2086 25.184 59.2486 25.144 59.3286 25.144H60.1086C60.1886 25.144 60.2286 25.184 60.2286 25.264V29.092C60.2286 29.476 60.2966 29.764 60.4326 29.956C60.5766 30.148 60.7846 30.244 61.0566 30.244C61.3046 30.244 61.5646 30.164 61.8366 30.004C62.1086 29.836 62.4286 29.576 62.7966 29.224V25.264C62.7966 25.184 62.8366 25.144 62.9166 25.144H63.6966C63.7766 25.144 63.8166 25.184 63.8166 25.264V29.092C63.8166 29.476 63.8846 29.764 64.0206 29.956C64.1646 30.148 64.3726 30.244 64.6446 30.244C64.8926 30.244 65.1526 30.164 65.4246 30.004C65.6966 29.836 66.0166 29.576 66.3846 29.224V25.264C66.3846 25.184 66.4246 25.144 66.5046 25.144H67.2846C67.3646 25.144 67.4046 25.184 67.4046 25.264V29.536C67.4046 29.752 67.4086 29.98 67.4166 30.22C67.4326 30.452 67.4566 30.664 67.4886 30.856C67.5046 30.952 67.4606 31 67.3566 31H66.6366C66.5646 31 66.5246 30.972 66.5166 30.916C66.5006 30.796 66.4806 30.668 66.4566 30.532C66.4406 30.396 66.4246 30.256 66.4086 30.112C66.0486 30.472 65.7086 30.736 65.3886 30.904C65.0766 31.064 64.7446 31.144 64.3926 31.144C64.0006 31.144 63.6806 31.052 63.4326 30.868C63.1846 30.676 63.0086 30.396 62.9046 30.028C62.5206 30.42 62.1646 30.704 61.8366 30.88C61.5166 31.056 61.1726 31.144 60.8046 31.144ZM71.4367 31.144C70.6687 31.144 70.0767 30.964 69.6607 30.604C69.2527 30.244 69.0487 29.712 69.0487 29.008V27.328C69.0487 26.568 69.2527 25.992 69.6607 25.6C70.0687 25.2 70.6607 25 71.4367 25C72.2127 25 72.8007 25.196 73.2007 25.588C73.6087 25.972 73.8127 26.532 73.8127 27.268V28.204C73.8127 28.284 73.7727 28.324 73.6927 28.324H70.0687V28.708C70.0687 29.244 70.1807 29.636 70.4047 29.884C70.6287 30.124 70.9927 30.244 71.4967 30.244C71.8727 30.244 72.1607 30.184 72.3607 30.064C72.5687 29.936 72.6727 29.752 72.6727 29.512C72.6727 29.424 72.7167 29.38 72.8047 29.38H73.5847C73.6487 29.38 73.6887 29.416 73.7047 29.488C73.7367 30 73.5487 30.404 73.1407 30.7C72.7327 30.996 72.1647 31.144 71.4367 31.144ZM70.0687 27.448H72.7927V27.376C72.7927 26.872 72.6807 26.5 72.4567 26.26C72.2327 26.02 71.8967 25.9 71.4487 25.9C70.9847 25.9 70.6367 26.024 70.4047 26.272C70.1807 26.52 70.0687 26.892 70.0687 27.388V27.448ZM79.2553 31C79.1753 31 79.1353 30.96 79.1353 30.88V25.264C79.1353 25.184 79.1753 25.144 79.2553 25.144H80.0353C80.1153 25.144 80.1553 25.184 80.1553 25.264V30.88C80.1553 30.96 80.1153 31 80.0353 31H79.2553ZM75.5473 31C75.4673 31 75.4273 30.96 75.4273 30.88V25.264C75.4273 25.184 75.4673 25.144 75.5473 25.144H76.3273C76.4073 25.144 76.4473 25.184 76.4473 25.264V30.88C76.4473 30.96 76.4073 31 76.3273 31H75.5473ZM76.2553 28.444V27.568H79.3273V28.444H76.2553ZM83.5387 31.144C83.0267 31.144 82.6347 30.972 82.3627 30.628C82.0907 30.284 81.9547 29.788 81.9547 29.14V25.264C81.9547 25.184 81.9947 25.144 82.0747 25.144H82.8547C82.9347 25.144 82.9747 25.184 82.9747 25.264V29.092C82.9747 29.484 83.0427 29.776 83.1787 29.968C83.3227 30.152 83.5427 30.244 83.8387 30.244C84.1347 30.244 84.4307 30.152 84.7267 29.968C85.0307 29.784 85.4067 29.464 85.8547 29.008L85.8307 29.956C85.5747 30.22 85.3187 30.44 85.0627 30.616C84.8067 30.792 84.5507 30.924 84.2947 31.012C84.0467 31.1 83.7947 31.144 83.5387 31.144ZM85.9387 31C85.8987 31 85.8667 30.992 85.8427 30.976C85.8187 30.952 85.8027 30.92 85.7947 30.88C85.7707 30.728 85.7507 30.572 85.7347 30.412C85.7187 30.252 85.7067 30.088 85.6987 29.92L85.6387 29.416V25.264C85.6387 25.184 85.6787 25.144 85.7587 25.144H86.5387C86.6187 25.144 86.6587 25.184 86.6587 25.264V29.536C86.6587 29.752 86.6627 29.976 86.6707 30.208C86.6867 30.44 86.7107 30.664 86.7427 30.88C86.7587 30.96 86.7147 31 86.6107 31H85.9387ZM88.0986 31C88.0506 31 88.0186 30.988 88.0026 30.964C87.9866 30.932 87.9906 30.896 88.0146 30.856L88.8426 29.56C88.9386 29.408 89.0346 29.256 89.1306 29.104C89.2346 28.952 89.3386 28.8 89.4426 28.648V28.636C89.0586 28.524 88.7626 28.336 88.5546 28.072C88.3546 27.808 88.2546 27.452 88.2546 27.004C88.2546 26.588 88.3386 26.244 88.5066 25.972C88.6746 25.692 88.9186 25.484 89.2386 25.348C89.5666 25.212 89.9586 25.144 90.4146 25.144H92.6106C92.6906 25.144 92.7306 25.184 92.7306 25.264V30.88C92.7306 30.96 92.6906 31 92.6106 31H91.8306C91.7506 31 91.7106 30.96 91.7106 30.88V28.792H90.4626L89.1546 30.916C89.1226 30.972 89.0706 31 88.9986 31H88.0986ZM90.5826 27.928H91.7106V26.02H90.4026C89.9706 26.02 89.6746 26.108 89.5146 26.284C89.3546 26.452 89.2746 26.688 89.2746 26.992C89.2746 27.336 89.3786 27.58 89.5866 27.724C89.8026 27.86 90.1346 27.928 90.5826 27.928Z" fill="white"/>
<path d="M30.2527 18.0857C32.8811 19.6032 32.8811 23.3969 30.2527 24.9144L18.8305 31.5091C16.2021 33.0266 12.9166 31.1297 12.9166 28.0947L12.9166 14.9054C12.9166 11.8704 16.2021 9.97354 18.8305 11.491L30.2527 18.0857Z" fill="#C1EA9E"/>
<path d="M25.0861 18.0857C27.7145 19.6032 27.7145 23.3969 25.0861 24.9144L13.6639 31.5091C11.0355 33.0266 7.75 31.1297 7.75 28.0947L7.75 14.9054C7.75 11.8704 11.0355 9.97354 13.6639 11.491L25.0861 18.0857Z" fill="#A4D8E4"/>
<path d="M14.7673 23.1033C14.7739 23.1033 14.7806 23.1028 14.7872 23.1028H14.7479C7.83969 23.0763 7.83867 16.1551 7.83867 16.1551C7.83867 16.1551 7.83816 23.0763 0.929988 23.1028H0.890656C0.897296 23.1028 0.903937 23.1033 0.910577 23.1033C0.903937 23.1033 0.897296 23.1038 0.890656 23.1038H0.929988C7.83816 23.1304 7.83867 30.0516 7.83867 30.0516C7.83867 30.0516 7.83918 23.1304 14.7474 23.1038H14.7867C14.7806 23.1033 14.7739 23.1033 14.7673 23.1033Z" fill="#FDEEB5"/>
<defs>
<linearGradient id="paint0_linear_57_449" x1="59" y1="40.5" x2="58.5" y2="-1.65366e-07" gradientUnits="userSpaceOnUse">
<stop stop-color="#304D71"/>
<stop offset="1" stop-color="#578867"/>
</linearGradient>
</defs>
</svg>
