<svg width="20" height="20" viewBox="0 0 20 20" fill="none" xmlns="http://www.w3.org/2000/svg">
<path d="M12.9167 13.125C12.7667 13.125 12.6 13.1167 12.4417 13.1083C12.1333 13.0917 11.8833 12.8417 11.8583 12.5333C11.675 10.2083 9.78333 8.32499 7.46666 8.14165C7.15833 8.11665 6.90832 7.86667 6.89166 7.55834C6.88332 7.4 6.875 7.24166 6.875 7.08333C6.875 3.75 9.58333 1.04166 12.9167 1.04166C16.25 1.04166 18.9583 3.75 18.9583 7.08333C18.9583 10.4167 16.25 13.125 12.9167 13.125ZM8.125 6.96665C10.6083 7.39999 12.6 9.39166 13.0333 11.875C15.625 11.8083 17.7083 9.69166 17.7083 7.08333C17.7083 4.44166 15.5583 2.29166 12.9167 2.29166C10.3167 2.29166 8.19167 4.37499 8.125 6.96665Z" fill="white"/>
<path d="M7.08333 18.9583C3.75 18.9583 1.04166 16.25 1.04166 12.9167C1.04166 9.58333 3.75 6.875 7.08333 6.875C7.23333 6.875 7.4 6.88332 7.55834 6.89166C10.5 7.12499 12.8833 9.50834 13.1083 12.4333C13.1167 12.6 13.125 12.7583 13.125 12.9167C13.125 16.25 10.4167 18.9583 7.08333 18.9583ZM7.08333 8.125C4.44166 8.125 2.29166 10.275 2.29166 12.9167C2.29166 15.5583 4.44166 17.7083 7.08333 17.7083C9.725 17.7083 11.875 15.5583 11.875 12.9167C11.875 12.7833 11.8667 12.65 11.8583 12.525C11.675 10.2167 9.79166 8.32499 7.46666 8.14166C7.34999 8.13332 7.21666 8.125 7.08333 8.125Z" fill="white"/>
<path d="M2.5 6.11666C2.30833 6.11666 2.12499 6.08332 1.94165 6.00832C1.39165 5.78332 1.04166 5.24999 1.04166 4.65833V2.5C1.04166 1.7 1.7 1.04166 2.5 1.04166H4.65833C5.24999 1.04166 5.77499 1.39165 6.00832 1.94165C6.23332 2.49165 6.10832 3.11666 5.69165 3.53332L3.53332 5.69165C3.24999 5.96665 2.88333 6.11666 2.5 6.11666ZM2.5 2.29166C2.38333 2.29166 2.29166 2.38333 2.29166 2.5V4.65833C2.29166 4.78333 2.37499 4.83334 2.41666 4.85C2.46666 4.86667 2.55834 4.89165 2.64168 4.80832L4.80001 2.64999C4.88334 2.56666 4.86666 2.475 4.84166 2.425C4.81666 2.375 4.76665 2.30001 4.64999 2.30001H2.5V2.29166Z" fill="white"/>
<path d="M17.4998 18.9583H15.3415C14.7498 18.9583 14.2249 18.6083 13.9915 18.0583C13.7665 17.5083 13.8915 16.8833 14.3082 16.4667L16.4665 14.3083C16.8832 13.8917 17.5082 13.7667 18.0582 13.9917C18.6082 14.2167 18.9582 14.75 18.9582 15.3417V17.5C18.9582 18.3 18.2998 18.9583 17.4998 18.9583ZM17.4915 15.1333C17.4498 15.1333 17.3999 15.15 17.3499 15.2L15.1915 17.3583C15.1082 17.4417 15.1248 17.5333 15.1498 17.5833C15.1748 17.6333 15.2248 17.7083 15.3415 17.7083H17.4998C17.6165 17.7083 17.7082 17.6167 17.7082 17.5V15.3417C17.7082 15.2167 17.6249 15.1667 17.5832 15.15C17.5582 15.1417 17.5248 15.1333 17.4915 15.1333Z" fill="white"/>
</svg>
