<svg width="20" height="20" viewBox="0 0 20 20" fill="none" xmlns="http://www.w3.org/2000/svg">
<path d="M15.4167 18.9583C13.4667 18.9583 11.875 17.3667 11.875 15.4167V15C11.875 14.6583 12.1583 14.375 12.5 14.375C12.8417 14.375 13.125 14.6583 13.125 15V15.4167C13.125 16.6833 14.15 17.7083 15.4167 17.7083C16.6833 17.7083 17.7083 16.6833 17.7083 15.4167C17.7083 14.15 16.6833 13.125 15.4167 13.125H1.66667C1.325 13.125 1.04167 12.8417 1.04167 12.5C1.04167 12.1583 1.325 11.875 1.66667 11.875H15.4167C17.3667 11.875 18.9583 13.4667 18.9583 15.4167C18.9583 17.3667 17.3667 18.9583 15.4167 18.9583Z" fill="white"/>
<path d="M15.4167 10.625H1.66667C1.325 10.625 1.04167 10.3417 1.04167 10C1.04167 9.65833 1.325 9.375 1.66667 9.375H15.4167C16.6833 9.375 17.7083 8.35 17.7083 7.08333C17.7083 5.81666 16.6833 4.79166 15.4167 4.79166C14.15 4.79166 13.125 5.81666 13.125 7.08333V7.5C13.125 7.84166 12.8417 8.125 12.5 8.125C12.1583 8.125 11.875 7.84166 11.875 7.5V7.08333C11.875 5.13333 13.4667 3.54166 15.4167 3.54166C17.3667 3.54166 18.9583 5.13333 18.9583 7.08333C18.9583 9.03333 17.3667 10.625 15.4167 10.625Z" fill="white"/>
<path d="M7.75833 8.125H1.66667C1.325 8.125 1.04167 7.84166 1.04167 7.5C1.04167 7.15833 1.325 6.875 1.66667 6.875H7.75833C8.65 6.875 9.375 6.15 9.375 5.25833C9.375 4.36666 8.65 3.64166 7.75833 3.64166C6.86667 3.64166 6.14166 4.36666 6.14166 5.25833V5.575C6.14166 5.91666 5.85833 6.2 5.51666 6.2C5.175 6.2 4.89166 5.91666 4.89166 5.575V5.25833C4.89166 3.675 6.175 2.39166 7.75833 2.39166C9.34167 2.39166 10.625 3.675 10.625 5.25833C10.625 6.84166 9.34167 8.125 7.75833 8.125Z" fill="white"/>
</svg>
