<svg width="20" height="20" viewBox="0 0 20 20" fill="none" xmlns="http://www.w3.org/2000/svg">
<path d="M11.3083 18.65C11.1166 18.65 10.925 18.6167 10.7416 18.55C10.1166 18.3167 9.71664 17.7333 9.71664 17.0667V11.6917H7.76664C7.1333 11.6917 6.5833 11.3333 6.32496 10.7583C6.06663 10.1833 6.16663 9.53334 6.58329 9.05834L12.8916 1.89167C13.3333 1.39167 14.0166 1.21667 14.6416 1.45834C15.2666 1.69167 15.6666 2.275 15.6666 2.94167V8.31667H17.6166C18.25 8.31667 18.8 8.675 19.0583 9.25C19.3166 9.825 19.2166 10.475 18.8 10.95L12.4916 18.1167C12.1833 18.4667 11.75 18.65 11.3083 18.65ZM14.0666 2.6C13.9916 2.6 13.9 2.625 13.825 2.71667L7.51662 9.89167C7.38329 10.0417 7.43331 10.1917 7.45831 10.25C7.48331 10.3083 7.56664 10.45 7.76664 10.45H10.3416C10.6833 10.45 10.9666 10.7333 10.9666 11.075V17.075C10.9666 17.2833 11.1166 17.3667 11.1833 17.3917C11.25 17.4167 11.4166 17.4583 11.55 17.3L17.8583 10.125C17.9916 9.975 17.9416 9.825 17.9166 9.76667C17.8916 9.70834 17.8083 9.56667 17.6083 9.56667H15.0333C14.6916 9.56667 14.4083 9.28334 14.4083 8.94167V2.94167C14.4083 2.73334 14.2583 2.65 14.1916 2.625C14.1666 2.60834 14.1166 2.6 14.0666 2.6Z" fill="white"/>
<path d="M7.08333 3.95834H1.25C0.908333 3.95834 0.625 3.675 0.625 3.33334C0.625 2.99167 0.908333 2.70834 1.25 2.70834H7.08333C7.425 2.70834 7.70833 2.99167 7.70833 3.33334C7.70833 3.675 7.425 3.95834 7.08333 3.95834Z" fill="white"/>
<path d="M6.25 17.2917H1.25C0.908333 17.2917 0.625 17.0083 0.625 16.6667C0.625 16.325 0.908333 16.0417 1.25 16.0417H6.25C6.59167 16.0417 6.875 16.325 6.875 16.6667C6.875 17.0083 6.59167 17.2917 6.25 17.2917Z" fill="white"/>
<path d="M3.75 10.625H1.25C0.908333 10.625 0.625 10.3417 0.625 10C0.625 9.65833 0.908333 9.375 1.25 9.375H3.75C4.09167 9.375 4.375 9.65833 4.375 10C4.375 10.3417 4.09167 10.625 3.75 10.625Z" fill="white"/>
</svg>
