<svg width="20" height="20" viewBox="0 0 20 20" fill="none" xmlns="http://www.w3.org/2000/svg">
<path d="M12.3083 16.4583H7.71667C7.35 16.4583 6.88333 16.4167 6.575 16.1C6.275 15.7917 6.28333 15.4083 6.29167 15.15V14.4083C4.19167 13.0083 2.80833 10.575 2.80833 8.25834C2.80833 6.06667 3.79167 4.01667 5.5 2.64167C7.20833 1.26667 9.45 0.750004 11.6417 1.23334C13.725 1.69167 15.525 3.08334 16.4583 4.95834C18.2667 8.6 16.525 12.5417 13.7417 14.4167V15.0417C13.75 15.2833 13.7583 15.725 13.4167 16.075C13.1583 16.325 12.7917 16.4583 12.3083 16.4583ZM7.53333 15.2C7.575 15.2 7.63333 15.2083 7.70833 15.2083H12.3083C12.3917 15.2083 12.45 15.2 12.4833 15.1917C12.4833 15.1667 12.4833 15.1333 12.4833 15.1083V14.0583C12.4833 13.8417 12.6 13.6333 12.7833 13.525C15.25 12.0333 16.8833 8.625 15.325 5.5C14.5583 3.95834 13.075 2.81667 11.3583 2.44167C9.54167 2.04167 7.68333 2.46667 6.26667 3.60834C4.85 4.75 4.04167 6.44167 4.04167 8.25834C4.04167 10.575 5.64167 12.575 7.225 13.5333C7.41667 13.65 7.525 13.85 7.525 14.0667V15.1917C7.53333 15.1917 7.53333 15.1917 7.53333 15.2Z" fill="white"/>
<path d="M12.9167 18.9583C12.8583 18.9583 12.8 18.95 12.7417 18.9333C10.9417 18.4167 9.05 18.4167 7.25 18.9333C6.91667 19.025 6.575 18.8333 6.475 18.5C6.375 18.1667 6.575 17.825 6.90833 17.725C8.925 17.15 11.0667 17.15 13.0833 17.725C13.4167 17.8167 13.6083 18.1667 13.5167 18.5C13.4417 18.7833 13.1917 18.9583 12.9167 18.9583Z" fill="white"/>
</svg>
