<svg width="20" height="20" viewBox="0 0 20 20" fill="none" xmlns="http://www.w3.org/2000/svg">
<path d="M12.5002 18.9583C12.2752 18.9583 12.0668 18.8333 11.9585 18.6417C11.8502 18.45 11.8502 18.2083 11.9668 18.0167L12.8418 16.5583C13.0168 16.2583 13.4002 16.1667 13.7002 16.3417C14.0002 16.5167 14.0918 16.9 13.9168 17.2L13.6918 17.575C15.9918 17.0334 17.7168 14.9667 17.7168 12.5C17.7168 12.1583 18.0002 11.875 18.3418 11.875C18.6835 11.875 18.9668 12.1583 18.9668 12.5C18.9585 16.0583 16.0585 18.9583 12.5002 18.9583Z" fill="white"/>
<path d="M1.66666 8.125C1.325 8.125 1.04166 7.84167 1.04166 7.5C1.04166 3.94167 3.94166 1.04167 7.5 1.04167C7.725 1.04167 7.93333 1.16667 8.04166 1.35834C8.14999 1.55001 8.15 1.79167 8.03333 1.98334L7.15833 3.44167C6.98333 3.74167 6.6 3.83335 6.3 3.65835C6 3.48335 5.90833 3.09999 6.08333 2.79999L6.30834 2.42498C4.00834 2.96665 2.28334 5.03333 2.28334 7.5C2.29167 7.84167 2.00833 8.125 1.66666 8.125Z" fill="white"/>
<path d="M14.7332 6.24989C14.6249 6.24989 14.5166 6.22492 14.4166 6.16658L11.1082 4.24987C10.8082 4.07487 10.7082 3.69157 10.8832 3.39157C11.0582 3.09157 11.4416 2.99155 11.7332 3.16655L14.7332 4.8999L17.7082 3.17489C18.0082 2.99989 18.3916 3.10824 18.5582 3.39991C18.7332 3.69991 18.6249 4.08322 18.3332 4.25822L15.0416 6.15824C14.9499 6.21657 14.8416 6.24989 14.7332 6.24989Z" fill="white"/>
<path d="M14.7335 9.64157C14.3918 9.64157 14.1085 9.35824 14.1085 9.01657V5.61656C14.1085 5.27489 14.3918 4.99156 14.7335 4.99156C15.0751 4.99156 15.3585 5.27489 15.3585 5.61656V9.01657C15.3585 9.36657 15.0751 9.64157 14.7335 9.64157Z" fill="white"/>
<path d="M14.7332 9.79162C14.3499 9.79162 13.9582 9.70829 13.6499 9.53329L11.6499 8.42494C10.9999 8.06661 10.5082 7.22498 10.5082 6.48331V4.36661C10.5082 3.61661 10.9999 2.78331 11.6582 2.41664L13.6582 1.30829C14.2749 0.966627 15.1999 0.966627 15.8249 1.30829L17.8249 2.41664C18.4749 2.77497 18.9665 3.6166 18.9665 4.35827V6.47497C18.9665 7.22497 18.4749 8.05827 17.8249 8.4166L15.8249 9.52495C15.4999 9.70828 15.1165 9.79162 14.7332 9.79162ZM14.2582 2.39162L12.2582 3.49996C12.0082 3.64163 11.7582 4.0666 11.7582 4.34993V6.46663C11.7582 6.7583 12.0082 7.18331 12.2582 7.31665L14.2582 8.43328C14.4999 8.56662 14.9665 8.56662 15.2082 8.43328L17.2082 7.32494C17.4582 7.18327 17.7082 6.7583 17.7082 6.47497V4.35827C17.7082 4.0666 17.4582 3.64164 17.2082 3.50831L15.2082 2.39996C14.9665 2.25829 14.4915 2.25828 14.2582 2.39162Z" fill="white"/>
<path d="M5.26669 15.4166C5.15835 15.4166 5.05001 15.3916 4.95001 15.3332L1.64168 13.4165C1.34168 13.2415 1.24168 12.8582 1.41668 12.5582C1.59168 12.2582 1.97501 12.1582 2.26668 12.3332L5.26669 14.0666L8.24168 12.3416C8.54168 12.1666 8.92502 12.2749 9.09168 12.5666C9.26668 12.8666 9.15835 13.2499 8.86668 13.4249L5.57501 15.3249C5.48335 15.3832 5.37502 15.4166 5.26669 15.4166Z" fill="white"/>
<path d="M5.26652 18.8082C4.92485 18.8082 4.64152 18.5249 4.64152 18.1832V14.7832C4.64152 14.4416 4.92485 14.1582 5.26652 14.1582C5.60818 14.1582 5.89152 14.4416 5.89152 14.7832V18.1832C5.89152 18.5332 5.61652 18.8082 5.26652 18.8082Z" fill="white"/>
<path d="M5.26667 18.9583C4.88334 18.9583 4.49167 18.875 4.18333 18.7L2.18333 17.5916C1.53333 17.2333 1.04166 16.3916 1.04166 15.65V13.5333C1.04166 12.7833 1.53333 11.9499 2.18333 11.5916L4.18333 10.4833C4.8 10.1416 5.73333 10.1416 6.34999 10.4833L8.35 11.5916C9 11.9499 9.49166 12.7916 9.49166 13.5333V15.65C9.49166 16.4 8.99999 17.2333 8.34166 17.5999L6.34166 18.7083C6.04166 18.875 5.65834 18.9583 5.26667 18.9583ZM4.79166 11.5583L2.79167 12.6666C2.54167 12.8083 2.29166 13.2333 2.29166 13.5166V15.6333C2.29166 15.925 2.54167 16.35 2.79167 16.4833L4.79166 17.5916C5.03333 17.7249 5.5 17.7249 5.74166 17.5916L7.74166 16.4833C7.99166 16.3416 8.24166 15.9166 8.24166 15.6333V13.5166C8.24166 13.2249 7.99166 12.8 7.74166 12.6666L5.74166 11.5499C5.50833 11.4249 5.03333 11.4249 4.79166 11.5583Z" fill="white"/>
</svg>
