<svg width="20" height="20" viewBox="0 0 20 20" fill="none" xmlns="http://www.w3.org/2000/svg">
<path d="M6.66666 18.9583C3.56666 18.9583 1.04166 16.4333 1.04166 13.3333C1.04166 10.8 2.74166 8.56667 5.18333 7.90833C5.49166 7.825 5.80833 7.98333 5.925 8.28333C6.43333 9.55833 7.51666 10.5333 8.84166 10.8917C9.575 11.0917 10.425 11.0917 11.1417 10.8917C11.45 10.8083 11.775 10.9667 11.8917 11.2667C12.15 11.925 12.2833 12.625 12.2833 13.3417C12.2833 14.9417 11.6 16.4667 10.4083 17.525C9.39166 18.4417 8.05833 18.9583 6.66666 18.9583ZM5.01666 9.275C3.39166 9.94167 2.29166 11.5417 2.29166 13.3333C2.29166 15.7417 4.25833 17.7083 6.66666 17.7083C7.75 17.7083 8.78333 17.3083 9.58333 16.5833C10.5167 15.7583 11.0417 14.575 11.0417 13.3333C11.0417 12.95 10.9917 12.5833 10.9 12.225C10.1167 12.35 9.26666 12.3083 8.51666 12.1C7.00833 11.6833 5.74166 10.65 5.01666 9.275Z" fill="white"/>
<path d="M10 12.2917C9.48333 12.2917 8.98333 12.225 8.51667 12.0917C6.825 11.625 5.41667 10.375 4.76667 8.73333C4.50833 8.08333 4.375 7.38333 4.375 6.66666C4.375 3.56666 6.9 1.04166 10 1.04166C13.1 1.04166 15.625 3.56666 15.625 6.66666C15.625 7.38333 15.4917 8.08333 15.2333 8.74166C14.5833 10.375 13.1833 11.6333 11.4833 12.1C11.0167 12.225 10.5167 12.2917 10 12.2917ZM10 2.29166C7.59167 2.29166 5.625 4.25833 5.625 6.66666C5.625 7.225 5.725 7.76666 5.93333 8.275C6.44167 9.55 7.525 10.525 8.85 10.8833C9.58333 11.0833 10.4333 11.0833 11.15 10.8833C12.475 10.525 13.5667 9.54166 14.0667 8.275C14.2667 7.76666 14.375 7.225 14.375 6.66666C14.375 4.25833 12.4083 2.29166 10 2.29166Z" fill="white"/>
<path d="M13.3333 18.9583C11.9417 18.9583 10.6083 18.4417 9.58333 17.5167C9.45 17.4 9.375 17.225 9.375 17.05C9.375 16.875 9.45 16.7 9.58333 16.5833C10.5083 15.7667 11.0417 14.5833 11.0417 13.3333C11.0417 12.775 10.9417 12.2333 10.7333 11.725C10.6667 11.5583 10.675 11.375 10.7583 11.2167C10.8417 11.0583 10.9833 10.9417 11.15 10.8917C12.475 10.5333 13.5583 9.55833 14.0667 8.28333C14.1833 7.98333 14.5083 7.83333 14.8083 7.90833C17.25 8.575 18.95 10.8 18.95 13.3333C18.9583 16.4333 16.4333 18.9583 13.3333 18.9583ZM10.9333 16.9917C11.6417 17.4583 12.4667 17.7083 13.3333 17.7083C15.7417 17.7083 17.7083 15.7417 17.7083 13.3333C17.7083 11.5417 16.6083 9.94167 14.9833 9.275C14.3667 10.45 13.3333 11.3833 12.1 11.8833C12.225 12.35 12.2917 12.8417 12.2917 13.3333C12.2917 14.6833 11.8083 15.9833 10.9333 16.9917Z" fill="white"/>
</svg>
