<svg width="20" height="20" viewBox="0 0 20 20" fill="none" xmlns="http://www.w3.org/2000/svg">
<path d="M5.25813 16.7417C4.78313 16.7417 4.31647 16.6167 3.88313 16.3667C3.01647 15.8667 2.50814 14.9834 2.50814 13.9834V6.00834C2.50814 5.01668 3.0248 4.12502 3.88313 3.62502C4.7498 3.12502 5.77479 3.12502 6.63312 3.62502L13.5415 7.60836C14.3998 8.10836 14.9165 9.00001 14.9165 9.99168C14.9165 10.9833 14.3998 11.875 13.5415 12.375L6.63312 16.3584C6.19979 16.6167 5.73313 16.7417 5.25813 16.7417ZM5.25813 4.50835C4.99979 4.50835 4.74147 4.57501 4.50813 4.70835C4.04147 4.98335 3.75814 5.46668 3.75814 6.00834V13.9834C3.75814 14.525 4.04147 15.0083 4.50813 15.2833C4.9748 15.55 5.54146 15.5583 6.00812 15.2833L12.9165 11.3C13.3831 11.025 13.6665 10.5417 13.6665 10C13.6665 9.45835 13.3831 8.97502 12.9165 8.70002L6.00812 4.71669C5.77479 4.58335 5.51646 4.50835 5.25813 4.50835Z" fill="white"/>
<path d="M16.8669 15.775C16.5252 15.775 16.2419 15.4917 16.2419 15.15V4.85006C16.2419 4.50839 16.5252 4.22506 16.8669 4.22506C17.2085 4.22506 17.4919 4.50839 17.4919 4.85006V15.15C17.4919 15.4917 17.2169 15.775 16.8669 15.775Z" fill="white"/>
</svg>
