<svg width="40" height="40" viewBox="0 0 40 40" fill="none" xmlns="http://www.w3.org/2000/svg">
<rect x="0.5" y="0.5" width="39" height="39" rx="3.5" fill="url(#paint0_linear_57_592)" stroke="white"/>
<path d="M32.2527 17.0857C34.8811 18.6032 34.8811 22.3969 32.2527 23.9144L20.8305 30.5091C18.2021 32.0266 14.9166 30.1297 14.9166 27.0947L14.9166 13.9054C14.9166 10.8704 18.2021 8.97354 20.8305 10.491L32.2527 17.0857Z" fill="#C1EA9E"/>
<path d="M27.0861 17.0857C29.7145 18.6032 29.7145 22.3969 27.0861 23.9144L15.6639 30.5091C13.0355 32.0266 9.75 30.1297 9.75 27.0947L9.75 13.9054C9.75 10.8704 13.0355 8.97354 15.6639 10.491L27.0861 17.0857Z" fill="#A4D8E4"/>
<path d="M16.7673 22.1033C16.7739 22.1033 16.7806 22.1028 16.7872 22.1028H16.7479C9.8397 22.0763 9.83868 15.1551 9.83868 15.1551C9.83868 15.1551 9.83817 22.0763 2.93 22.1028H2.89066C2.8973 22.1028 2.90394 22.1033 2.91058 22.1033C2.90394 22.1033 2.8973 22.1038 2.89066 22.1038H2.93C9.83817 22.1304 9.83868 29.0516 9.83868 29.0516C9.83868 29.0516 9.83919 22.1304 16.7474 22.1038H16.7867C16.7806 22.1033 16.7739 22.1033 16.7673 22.1033Z" fill="#FDEEB5"/>
<defs>
<linearGradient id="paint0_linear_57_592" x1="21.6364" y1="40" x2="21.6364" y2="1.34077e-07" gradientUnits="userSpaceOnUse">
<stop stop-color="#304D71"/>
<stop offset="1" stop-color="#3C6BA5"/>
</linearGradient>
</defs>
</svg>
