<svg width="40" height="40" viewBox="0 0 40 40" fill="none" xmlns="http://www.w3.org/2000/svg">
<rect x="0.5" y="0.5" width="39" height="39" rx="3.5" fill="url(#paint0_linear_57_578)" stroke="white"/>
<path d="M27.141 25.5224C27.141 29.3732 23.8197 32.5203 19.6903 32.5203C15.5608 32.5203 12.2395 29.3732 12.2395 25.5224C12.2395 21.6717 15.5608 18.5246 19.6903 18.5246C23.8197 18.5246 27.141 21.6717 27.141 25.5224Z" fill="#FFCE22" stroke="#FFCE22" stroke-width="0.5"/>
<path d="M21.1748 15.102C21.9581 17.3301 21.2432 19.9278 20.294 22.0081C19.8226 23.0412 19.3003 23.9321 18.8956 24.5647C18.6934 24.8809 18.5208 25.132 18.3992 25.3037C18.3641 25.3533 18.3332 25.3962 18.3071 25.4322C18.2594 25.4183 18.2021 25.4013 18.1357 25.3811C17.9182 25.3149 17.6046 25.215 17.2229 25.0806C16.4589 24.8116 15.4245 24.4053 14.3407 23.8561C12.1569 22.7494 9.84246 21.097 9.06113 18.8747C7.45518 14.307 8.94805 10.2648 12.5815 9.13322C14.4073 8.56459 16.1437 8.91799 17.6291 9.97399C19.1218 11.0352 20.3705 12.8145 21.1748 15.102Z" stroke="#FFCE22" stroke-width="0.5"/>
<path d="M30.4876 18.2754C29.8578 20.5456 27.7572 22.3595 25.7586 23.6196C24.7661 24.2454 23.813 24.7256 23.1078 25.0494C22.7554 25.2112 22.4655 25.3337 22.2642 25.4156C22.2057 25.4393 22.1548 25.4597 22.1119 25.4765C22.0798 25.4404 22.0413 25.3965 21.9971 25.3453C21.8527 25.1784 21.6473 24.9341 21.4046 24.6259C20.9189 24.0091 20.2855 23.1387 19.6934 22.1231C18.5 20.0765 17.5127 17.5055 18.1408 15.2413C19.4319 10.5873 23.0198 7.95826 26.724 8.86856C28.5854 9.32598 29.8385 10.5116 30.4749 12.1579C31.1144 13.8123 31.1342 15.9443 30.4876 18.2754Z" stroke="#FFCE22" stroke-width="0.5"/>
<defs>
<linearGradient id="paint0_linear_57_578" x1="21.6364" y1="40" x2="21.6364" y2="1.34077e-07" gradientUnits="userSpaceOnUse">
<stop stop-color="#304D71"/>
<stop offset="1" stop-color="#3C6BA5"/>
</linearGradient>
</defs>
</svg>
