<svg width="61" height="96" viewBox="0 0 61 96" fill="none" xmlns="http://www.w3.org/2000/svg">
<rect x="0.5" y="0.5" width="60" height="95" rx="3.5" fill="url(#paint0_linear_57_709)" stroke="white"/>
<circle cx="29.3515" cy="35.375" r="5.37497" fill="black" stroke="black" stroke-width="0.5"/>
<path d="M30.3728 27.3088C30.9392 29.0205 30.423 31.0214 29.7316 32.6314C29.3886 33.4301 29.0085 34.1189 28.714 34.6081C28.5669 34.8525 28.4414 35.0466 28.353 35.1791C28.3399 35.1988 28.3276 35.2171 28.3161 35.2341C28.2937 35.227 28.2692 35.2192 28.2427 35.2106C28.0846 35.1596 27.8566 35.0823 27.5788 34.9784C27.0227 34.7704 26.2698 34.4562 25.4813 34.0316C23.8902 33.1749 22.215 31.9011 21.6505 30.195C20.4794 26.656 21.5795 23.5694 24.1769 22.7099C25.4842 22.2773 26.7291 22.544 27.8008 23.3535C28.8798 24.1685 29.7872 25.5393 30.3728 27.3088Z" stroke="black" stroke-width="0.5"/>
<path d="M37.1735 29.7339C36.718 31.4784 35.1967 32.8769 33.7409 33.852C33.0188 34.3358 32.3253 34.7071 31.8121 34.9575C31.5557 35.0826 31.3448 35.1772 31.1986 35.2404C31.1769 35.2498 31.1565 35.2585 31.1377 35.2665C31.1227 35.2483 31.1064 35.2285 31.0889 35.2069C30.984 35.0781 30.8346 34.8892 30.658 34.6509C30.3044 34.1739 29.8435 33.5009 29.4126 32.7158C28.5432 31.1315 27.8301 29.1516 28.2841 27.4128C29.2258 23.806 31.8275 21.8139 34.4747 22.5051C35.807 22.853 36.7068 23.7538 37.1659 25.0159C37.6282 26.2866 37.6443 27.9305 37.1735 29.7339Z" stroke="black" stroke-width="0.5"/>
<circle cx="17" cy="57.375" r="5.37497" fill="black" stroke="black" stroke-width="0.5"/>
<path d="M18.0213 49.3088C18.5877 51.0205 18.0715 53.0214 17.3801 54.6314C17.0372 55.4301 16.6571 56.1189 16.3625 56.6081C16.2154 56.8525 16.0899 57.0466 16.0015 57.1791C15.9884 57.1988 15.9761 57.2171 15.9646 57.2341C15.9422 57.227 15.9177 57.2192 15.8912 57.2106C15.7331 57.1596 15.5051 57.0823 15.2273 56.9784C14.6712 56.7704 13.9183 56.4562 13.1299 56.0316C11.5387 55.1749 9.86352 53.9011 9.29897 52.195C8.12789 48.656 9.22797 45.5694 11.8254 44.7099C13.1327 44.2773 14.3776 44.544 15.4493 45.3535C16.5283 46.1685 17.4358 47.5393 18.0213 49.3088Z" stroke="black" stroke-width="0.5"/>
<path d="M24.822 51.7339C24.3665 53.4784 22.8452 54.8769 21.3895 55.852C20.6673 56.3358 19.9738 56.7071 19.4606 56.9575C19.2042 57.0826 18.9933 57.1772 18.8471 57.2404C18.8254 57.2498 18.805 57.2585 18.7862 57.2665C18.7712 57.2483 18.7549 57.2285 18.7374 57.2069C18.6325 57.0781 18.4831 56.8892 18.3065 56.6509C17.9529 56.1739 17.492 55.5009 17.0611 54.7158C16.1917 53.1315 15.4786 51.1516 15.9326 49.4128C16.8743 45.806 19.476 43.8139 22.1232 44.5051C23.4555 44.853 24.3553 45.7538 24.8145 47.0159C25.2768 48.2866 25.2929 49.9305 24.822 51.7339Z" stroke="black" stroke-width="0.5"/>
<circle cx="41" cy="57.375" r="5.37497" fill="black" stroke="black" stroke-width="0.5"/>
<path d="M42.0213 49.3088C42.5877 51.0205 42.0715 53.0214 41.3801 54.6314C41.0372 55.4301 40.6571 56.1189 40.3625 56.6081C40.2154 56.8525 40.0899 57.0466 40.0015 57.1791C39.9884 57.1988 39.9761 57.2171 39.9646 57.2341C39.9422 57.227 39.9177 57.2192 39.8912 57.2106C39.7331 57.1596 39.5051 57.0823 39.2273 56.9784C38.6712 56.7704 37.9183 56.4562 37.1299 56.0316C35.5387 55.1749 33.8635 53.9011 33.299 52.195C32.1279 48.656 33.228 45.5694 35.8254 44.7099C37.1327 44.2773 38.3776 44.544 39.4493 45.3535C40.5283 46.1685 41.4358 47.5393 42.0213 49.3088Z" stroke="black" stroke-width="0.5"/>
<path d="M48.822 51.7339C48.3665 53.4784 46.8452 54.8769 45.3895 55.852C44.6673 56.3358 43.9738 56.7071 43.4606 56.9575C43.2042 57.0826 42.9933 57.1772 42.8471 57.2404C42.8254 57.2498 42.805 57.2585 42.7862 57.2665C42.7712 57.2483 42.7549 57.2285 42.7374 57.2069C42.6325 57.0781 42.4831 56.8892 42.3065 56.6509C41.9529 56.1739 41.492 55.5009 41.0611 54.7158C40.1917 53.1315 39.4786 51.1516 39.9326 49.4128C40.8743 45.806 43.476 43.8139 46.1232 44.5051C47.4555 44.853 48.3553 45.7538 48.8144 47.0159C49.2768 48.2866 49.2929 49.9305 48.822 51.7339Z" stroke="black" stroke-width="0.5"/>
<defs>
<linearGradient id="paint0_linear_57_709" x1="32.9955" y1="96" x2="32.9955" y2="3.21788e-07" gradientUnits="userSpaceOnUse">
<stop stop-color="#304D71"/>
<stop offset="1" stop-color="#3C6BA5"/>
</linearGradient>
</defs>
</svg>
