<svg width="61" height="96" viewBox="0 0 61 96" fill="none" xmlns="http://www.w3.org/2000/svg">
<rect x="0.5" y="0.5" width="60" height="95" rx="3.5" fill="url(#paint0_linear_57_724)" stroke="white"/>
<circle cx="13" cy="39.375" r="5.37497" fill="black" stroke="black" stroke-width="0.5"/>
<path d="M14.0213 31.3088C14.5877 33.0205 14.0715 35.0214 13.3801 36.6314C13.0372 37.4301 12.6571 38.1189 12.3625 38.6081C12.2154 38.8525 12.0899 39.0466 12.0015 39.1791C11.9884 39.1988 11.9761 39.2171 11.9646 39.2341C11.9422 39.227 11.9177 39.2192 11.8912 39.2106C11.7331 39.1596 11.5051 39.0823 11.2273 38.9784C10.6712 38.7704 9.91834 38.4562 9.12985 38.0316C7.53866 37.1749 5.86352 35.9011 5.29897 34.195C4.12789 30.656 5.22797 27.5694 7.82537 26.7099C9.13267 26.2773 10.3776 26.544 11.4493 27.3535C12.5283 28.1685 13.4358 29.5393 14.0213 31.3088Z" stroke="black" stroke-width="0.5"/>
<path d="M20.822 33.7339C20.3665 35.4784 18.8452 36.8769 17.3895 37.852C16.6673 38.3358 15.9738 38.7071 15.4606 38.9575C15.2042 39.0826 14.9933 39.1772 14.8471 39.2404C14.8254 39.2498 14.805 39.2585 14.7862 39.2665C14.7712 39.2483 14.7549 39.2285 14.7374 39.2069C14.6325 39.0781 14.4831 38.8892 14.3065 38.6509C13.953 38.1739 13.492 37.5009 13.0611 36.7158C12.1917 35.1315 11.4786 33.1516 11.9326 31.4128C12.8743 27.806 15.476 25.8139 18.1232 26.5051C19.4555 26.853 20.3553 27.7538 20.8145 29.0159C21.2768 30.2866 21.2929 31.9305 20.822 33.7339Z" stroke="black" stroke-width="0.5"/>
<circle cx="22" cy="58.375" r="5.37497" fill="black" stroke="black" stroke-width="0.5"/>
<path d="M23.0213 50.3088C23.5877 52.0205 23.0715 54.0214 22.3801 55.6314C22.0372 56.4301 21.6571 57.1189 21.3625 57.6081C21.2154 57.8525 21.0899 58.0466 21.0015 58.1791C20.9884 58.1988 20.9761 58.2171 20.9646 58.2341C20.9422 58.227 20.9177 58.2192 20.8912 58.2106C20.7331 58.1596 20.5051 58.0823 20.2273 57.9784C19.6712 57.7704 18.9183 57.4562 18.1299 57.0316C16.5387 56.1749 14.8635 54.9011 14.299 53.195C13.1279 49.656 14.228 46.5694 16.8254 45.7099C18.1327 45.2773 19.3776 45.544 20.4493 46.3535C21.5283 47.1685 22.4358 48.5393 23.0213 50.3088Z" stroke="black" stroke-width="0.5"/>
<path d="M29.822 52.7339C29.3665 54.4784 27.8452 55.8769 26.3895 56.852C25.6673 57.3358 24.9738 57.7071 24.4606 57.9575C24.2042 58.0826 23.9933 58.1772 23.8471 58.2404C23.8254 58.2498 23.805 58.2585 23.7862 58.2665C23.7712 58.2483 23.7549 58.2285 23.7374 58.2069C23.6325 58.0781 23.4831 57.8892 23.3065 57.6509C22.953 57.1739 22.492 56.5009 22.0611 55.7158C21.1917 54.1315 20.4786 52.1516 20.9326 50.4128C21.8743 46.806 24.476 44.8139 27.1232 45.5051C28.4555 45.853 29.3553 46.7538 29.8145 48.0159C30.2768 49.2866 30.2929 50.9305 29.822 52.7339Z" stroke="black" stroke-width="0.5"/>
<circle cx="40" cy="58.375" r="5.37497" fill="black" stroke="black" stroke-width="0.5"/>
<path d="M41.0213 50.3088C41.5877 52.0205 41.0715 54.0214 40.3801 55.6314C40.0372 56.4301 39.6571 57.1189 39.3625 57.6081C39.2154 57.8525 39.0899 58.0466 39.0015 58.1791C38.9884 58.1988 38.9761 58.2171 38.9646 58.2341C38.9422 58.227 38.9177 58.2192 38.8912 58.2106C38.7331 58.1596 38.5051 58.0823 38.2273 57.9784C37.6712 57.7704 36.9183 57.4562 36.1299 57.0316C34.5387 56.1749 32.8635 54.9011 32.299 53.195C31.1279 49.656 32.228 46.5694 34.8254 45.7099C36.1327 45.2773 37.3776 45.544 38.4493 46.3535C39.5283 47.1685 40.4358 48.5393 41.0213 50.3088Z" stroke="black" stroke-width="0.5"/>
<path d="M47.822 52.7339C47.3665 54.4784 45.8452 55.8769 44.3895 56.852C43.6673 57.3358 42.9738 57.7071 42.4606 57.9575C42.2042 58.0826 41.9933 58.1772 41.8471 58.2404C41.8254 58.2498 41.805 58.2585 41.7862 58.2665C41.7712 58.2483 41.7549 58.2285 41.7374 58.2069C41.6325 58.0781 41.4831 57.8892 41.3065 57.6509C40.953 57.1739 40.492 56.5009 40.0611 55.7158C39.1917 54.1315 38.4786 52.1516 38.9326 50.4128C39.8743 46.806 42.476 44.8139 45.1232 45.5051C46.4555 45.853 47.3553 46.7538 47.8145 48.0159C48.2768 49.2866 48.2929 50.9305 47.822 52.7339Z" stroke="black" stroke-width="0.5"/>
<circle cx="31" cy="34.375" r="5.37497" fill="black" stroke="black" stroke-width="0.5"/>
<path d="M32.0213 26.3088C32.5877 28.0205 32.0715 30.0214 31.3801 31.6314C31.0372 32.4301 30.6571 33.1189 30.3625 33.6081C30.2154 33.8525 30.0899 34.0466 30.0015 34.1791C29.9884 34.1988 29.9761 34.2171 29.9646 34.2341C29.9422 34.227 29.9177 34.2192 29.8912 34.2106C29.7331 34.1596 29.5051 34.0823 29.2273 33.9784C28.6712 33.7704 27.9183 33.4562 27.1299 33.0316C25.5387 32.1749 23.8635 30.9011 23.299 29.195C22.1279 25.656 23.228 22.5694 25.8254 21.7099C27.1327 21.2773 28.3776 21.544 29.4493 22.3535C30.5283 23.1685 31.4358 24.5393 32.0213 26.3088Z" stroke="black" stroke-width="0.5"/>
<path d="M38.822 28.7339C38.3665 30.4784 36.8452 31.8769 35.3895 32.852C34.6673 33.3358 33.9738 33.7071 33.4606 33.9575C33.2042 34.0826 32.9933 34.1772 32.8471 34.2404C32.8254 34.2498 32.805 34.2585 32.7862 34.2665C32.7712 34.2483 32.7549 34.2285 32.7374 34.2069C32.6325 34.0781 32.4831 33.8892 32.3065 33.6509C31.953 33.1739 31.492 32.5009 31.0611 31.7158C30.1917 30.1315 29.4786 28.1516 29.9326 26.4128C30.8743 22.806 33.476 20.8139 36.1232 21.5051C37.4555 21.853 38.3553 22.7538 38.8145 24.0159C39.2768 25.2866 39.2929 26.9305 38.822 28.7339Z" stroke="black" stroke-width="0.5"/>
<circle cx="49" cy="39.375" r="5.37497" fill="black" stroke="black" stroke-width="0.5"/>
<path d="M50.0213 31.3088C50.5877 33.0205 50.0715 35.0214 49.3801 36.6314C49.0372 37.4301 48.6571 38.1189 48.3625 38.6081C48.2154 38.8525 48.0899 39.0466 48.0015 39.1791C47.9884 39.1988 47.9761 39.2171 47.9646 39.2341C47.9422 39.227 47.9177 39.2192 47.8912 39.2106C47.7331 39.1596 47.5051 39.0823 47.2273 38.9784C46.6712 38.7704 45.9183 38.4562 45.1299 38.0316C43.5387 37.1749 41.8635 35.9011 41.299 34.195C40.1279 30.656 41.228 27.5694 43.8254 26.7099C45.1327 26.2773 46.3776 26.544 47.4493 27.3535C48.5283 28.1685 49.4358 29.5393 50.0213 31.3088Z" stroke="black" stroke-width="0.5"/>
<path d="M56.822 33.7339C56.3665 35.4784 54.8452 36.8769 53.3895 37.852C52.6673 38.3358 51.9738 38.7071 51.4606 38.9575C51.2042 39.0826 50.9933 39.1772 50.8471 39.2404C50.8254 39.2498 50.805 39.2585 50.7862 39.2665C50.7712 39.2483 50.7549 39.2285 50.7374 39.2069C50.6325 39.0781 50.4831 38.8892 50.3065 38.6509C49.953 38.1739 49.492 37.5009 49.0611 36.7158C48.1917 35.1315 47.4786 33.1516 47.9326 31.4128C48.8743 27.806 51.476 25.8139 54.1232 26.5051C55.4555 26.853 56.3553 27.7538 56.8145 29.0159C57.2768 30.2866 57.2929 31.9305 56.822 33.7339Z" stroke="black" stroke-width="0.5"/>
<defs>
<linearGradient id="paint0_linear_57_724" x1="32.9955" y1="96" x2="32.9955" y2="3.21788e-07" gradientUnits="userSpaceOnUse">
<stop stop-color="#304D71"/>
<stop offset="1" stop-color="#3C6BA5"/>
</linearGradient>
</defs>
</svg>
