<svg width="61" height="96" viewBox="0 0 61 96" fill="none" xmlns="http://www.w3.org/2000/svg">
<rect x="0.5" y="0.5" width="60" height="95" rx="3.5" fill="url(#paint0_linear_57_782)" stroke="white"/>
<circle cx="14" cy="29.375" r="5.37497" fill="#FFCE22" stroke="#FFCE22" stroke-width="0.5"/>
<path d="M15.0213 21.3088C15.5877 23.0205 15.0715 25.0214 14.3801 26.6314C14.0372 27.4301 13.6571 28.1189 13.3625 28.6081C13.2154 28.8525 13.0899 29.0466 13.0015 29.1791C12.9884 29.1988 12.9761 29.2171 12.9646 29.2341C12.9422 29.227 12.9177 29.2192 12.8912 29.2106C12.7331 29.1596 12.5051 29.0823 12.2273 28.9784C11.6712 28.7704 10.9183 28.4562 10.1299 28.0316C8.53866 27.1749 6.86352 25.9011 6.29897 24.195C5.12789 20.656 6.22797 17.5694 8.82537 16.7099C10.1327 16.2773 11.3776 16.544 12.4493 17.3535C13.5283 18.1685 14.4358 19.5393 15.0213 21.3088Z" stroke="#FFCE22" stroke-width="0.5"/>
<path d="M21.822 23.7339C21.3665 25.4784 19.8452 26.8769 18.3895 27.852C17.6673 28.3358 16.9738 28.7071 16.4606 28.9575C16.2042 29.0826 15.9933 29.1772 15.8471 29.2404C15.8254 29.2498 15.805 29.2585 15.7862 29.2665C15.7712 29.2483 15.7549 29.2285 15.7374 29.2069C15.6325 29.0781 15.4831 28.8892 15.3065 28.6509C14.9529 28.1739 14.492 27.5009 14.0611 26.7158C13.1917 25.1315 12.4786 23.1516 12.9326 21.4128C13.8743 17.806 16.476 15.8139 19.1232 16.5051C20.4555 16.853 21.3553 17.7538 21.8144 19.0159C22.2768 20.2866 22.2929 21.9305 21.822 23.7339Z" stroke="#FFCE22" stroke-width="0.5"/>
<circle cx="31" cy="29.375" r="5.37497" fill="#FFCE22" stroke="#FFCE22" stroke-width="0.5"/>
<path d="M32.0213 21.3088C32.5877 23.0205 32.0715 25.0214 31.3801 26.6314C31.0372 27.4301 30.6571 28.1189 30.3625 28.6081C30.2154 28.8525 30.0899 29.0466 30.0015 29.1791C29.9884 29.1988 29.9761 29.2171 29.9646 29.2341C29.9422 29.227 29.9177 29.2192 29.8912 29.2106C29.7331 29.1596 29.5051 29.0823 29.2273 28.9784C28.6712 28.7704 27.9183 28.4562 27.1299 28.0316C25.5387 27.1749 23.8635 25.9011 23.299 24.195C22.1279 20.656 23.228 17.5694 25.8254 16.7099C27.1327 16.2773 28.3776 16.544 29.4493 17.3535C30.5283 18.1685 31.4358 19.5393 32.0213 21.3088Z" stroke="#FFCE22" stroke-width="0.5"/>
<path d="M38.822 23.7339C38.3665 25.4784 36.8452 26.8769 35.3895 27.852C34.6673 28.3358 33.9738 28.7071 33.4606 28.9575C33.2042 29.0826 32.9933 29.1772 32.8471 29.2404C32.8254 29.2498 32.805 29.2585 32.7862 29.2665C32.7712 29.2483 32.7549 29.2285 32.7374 29.2069C32.6325 29.0781 32.4831 28.8892 32.3065 28.6509C31.9529 28.1739 31.492 27.5009 31.0611 26.7158C30.1917 25.1315 29.4786 23.1516 29.9326 21.4128C30.8743 17.806 33.476 15.8139 36.1232 16.5051C37.4555 16.853 38.3553 17.7538 38.8144 19.0159C39.2768 20.2866 39.2929 21.9305 38.822 23.7339Z" stroke="#FFCE22" stroke-width="0.5"/>
<circle cx="48" cy="29.375" r="5.37497" fill="#FFCE22" stroke="#FFCE22" stroke-width="0.5"/>
<path d="M49.0213 21.3088C49.5877 23.0205 49.0715 25.0214 48.3801 26.6314C48.0372 27.4301 47.6571 28.1189 47.3625 28.6081C47.2154 28.8525 47.0899 29.0466 47.0015 29.1791C46.9884 29.1988 46.9761 29.2171 46.9646 29.2341C46.9422 29.227 46.9177 29.2192 46.8912 29.2106C46.7331 29.1596 46.5051 29.0823 46.2273 28.9784C45.6712 28.7704 44.9183 28.4562 44.1299 28.0316C42.5387 27.1749 40.8635 25.9011 40.299 24.195C39.1279 20.656 40.228 17.5694 42.8254 16.7099C44.1327 16.2773 45.3776 16.544 46.4493 17.3535C47.5283 18.1685 48.4358 19.5393 49.0213 21.3088Z" stroke="#FFCE22" stroke-width="0.5"/>
<path d="M55.822 23.7339C55.3665 25.4784 53.8452 26.8769 52.3895 27.852C51.6673 28.3358 50.9738 28.7071 50.4606 28.9575C50.2042 29.0826 49.9933 29.1772 49.8471 29.2404C49.8254 29.2498 49.805 29.2585 49.7862 29.2665C49.7712 29.2483 49.7549 29.2285 49.7374 29.2069C49.6325 29.0781 49.4831 28.8892 49.3065 28.6509C48.9529 28.1739 48.492 27.5009 48.0611 26.7158C47.1917 25.1315 46.4786 23.1516 46.9326 21.4128C47.8743 17.806 50.476 15.8139 53.1232 16.5051C54.4555 16.853 55.3553 17.7538 55.8144 19.0159C56.2768 20.2866 56.2929 21.9305 55.822 23.7339Z" stroke="#FFCE22" stroke-width="0.5"/>
<circle cx="48" cy="47.375" r="5.37497" fill="#FFCE22" stroke="#FFCE22" stroke-width="0.5"/>
<path d="M49.0213 39.3088C49.5877 41.0205 49.0715 43.0214 48.3801 44.6314C48.0372 45.4301 47.6571 46.1189 47.3625 46.6081C47.2154 46.8525 47.0899 47.0466 47.0015 47.1791C46.9884 47.1988 46.9761 47.2171 46.9646 47.2341C46.9422 47.227 46.9177 47.2192 46.8912 47.2106C46.7331 47.1596 46.5051 47.0823 46.2273 46.9784C45.6712 46.7704 44.9183 46.4562 44.1299 46.0316C42.5387 45.1749 40.8635 43.9011 40.299 42.195C39.1279 38.656 40.228 35.5694 42.8254 34.7099C44.1327 34.2773 45.3776 34.544 46.4493 35.3535C47.5283 36.1685 48.4358 37.5393 49.0213 39.3088Z" stroke="#FFCE22" stroke-width="0.5"/>
<path d="M55.822 41.7339C55.3665 43.4784 53.8452 44.8769 52.3895 45.852C51.6673 46.3358 50.9738 46.7071 50.4606 46.9575C50.2042 47.0826 49.9933 47.1772 49.8471 47.2404C49.8254 47.2498 49.805 47.2585 49.7862 47.2665C49.7712 47.2483 49.7549 47.2285 49.7374 47.2069C49.6325 47.0781 49.4831 46.8892 49.3065 46.6509C48.9529 46.1739 48.492 45.5009 48.0611 44.7158C47.1917 43.1315 46.4786 41.1516 46.9326 39.4128C47.8743 35.806 50.476 33.8139 53.1232 34.5051C54.4555 34.853 55.3553 35.7538 55.8144 37.0159C56.2768 38.2866 56.2929 39.9305 55.822 41.7339Z" stroke="#FFCE22" stroke-width="0.5"/>
<circle cx="31" cy="47.375" r="5.37497" fill="#FFCE22" stroke="#FFCE22" stroke-width="0.5"/>
<path d="M32.0213 39.3088C32.5877 41.0205 32.0715 43.0214 31.3801 44.6314C31.0372 45.4301 30.6571 46.1189 30.3625 46.6081C30.2154 46.8525 30.0899 47.0466 30.0015 47.1791C29.9884 47.1988 29.9761 47.2171 29.9646 47.2341C29.9422 47.227 29.9177 47.2192 29.8912 47.2106C29.7331 47.1596 29.5051 47.0823 29.2273 46.9784C28.6712 46.7704 27.9183 46.4562 27.1299 46.0316C25.5387 45.1749 23.8635 43.9011 23.299 42.195C22.1279 38.656 23.228 35.5694 25.8254 34.7099C27.1327 34.2773 28.3776 34.544 29.4493 35.3535C30.5283 36.1685 31.4358 37.5393 32.0213 39.3088Z" stroke="#FFCE22" stroke-width="0.5"/>
<path d="M38.822 41.7339C38.3665 43.4784 36.8452 44.8769 35.3895 45.852C34.6673 46.3358 33.9738 46.7071 33.4606 46.9575C33.2042 47.0826 32.9933 47.1772 32.8471 47.2404C32.8254 47.2498 32.805 47.2585 32.7862 47.2665C32.7712 47.2483 32.7549 47.2285 32.7374 47.2069C32.6325 47.0781 32.4831 46.8892 32.3065 46.6509C31.9529 46.1739 31.492 45.5009 31.0611 44.7158C30.1917 43.1315 29.4786 41.1516 29.9326 39.4128C30.8743 35.806 33.476 33.8139 36.1232 34.5051C37.4555 34.853 38.3553 35.7538 38.8144 37.0159C39.2768 38.2866 39.2929 39.9305 38.822 41.7339Z" stroke="#FFCE22" stroke-width="0.5"/>
<circle cx="14" cy="47.375" r="5.37497" fill="#FFCE22" stroke="#FFCE22" stroke-width="0.5"/>
<path d="M15.0213 39.3088C15.5877 41.0205 15.0715 43.0214 14.3801 44.6314C14.0372 45.4301 13.6571 46.1189 13.3625 46.6081C13.2154 46.8525 13.0899 47.0466 13.0015 47.1791C12.9884 47.1988 12.9761 47.2171 12.9646 47.2341C12.9422 47.227 12.9177 47.2192 12.8912 47.2106C12.7331 47.1596 12.5051 47.0823 12.2273 46.9784C11.6712 46.7704 10.9183 46.4562 10.1299 46.0316C8.53866 45.1749 6.86352 43.9011 6.29897 42.195C5.12789 38.656 6.22797 35.5694 8.82537 34.7099C10.1327 34.2773 11.3776 34.544 12.4493 35.3535C13.5283 36.1685 14.4358 37.5393 15.0213 39.3088Z" stroke="#FFCE22" stroke-width="0.5"/>
<path d="M21.822 41.7339C21.3665 43.4784 19.8452 44.8769 18.3895 45.852C17.6673 46.3358 16.9738 46.7071 16.4606 46.9575C16.2042 47.0826 15.9933 47.1772 15.8471 47.2404C15.8254 47.2498 15.805 47.2585 15.7862 47.2665C15.7712 47.2483 15.7549 47.2285 15.7374 47.2069C15.6325 47.0781 15.4831 46.8892 15.3065 46.6509C14.9529 46.1739 14.492 45.5009 14.0611 44.7158C13.1917 43.1315 12.4786 41.1516 12.9326 39.4128C13.8743 35.806 16.476 33.8139 19.1232 34.5051C20.4555 34.853 21.3553 35.7538 21.8144 37.0159C22.2768 38.2866 22.2929 39.9305 21.822 41.7339Z" stroke="#FFCE22" stroke-width="0.5"/>
<circle cx="23" cy="66.375" r="5.37497" fill="#FFCE22" stroke="#FFCE22" stroke-width="0.5"/>
<path d="M24.0213 58.3088C24.5877 60.0205 24.0715 62.0214 23.3801 63.6314C23.0372 64.4301 22.6571 65.1189 22.3625 65.6081C22.2154 65.8525 22.0899 66.0466 22.0015 66.1791C21.9884 66.1988 21.9761 66.2171 21.9646 66.2341C21.9422 66.227 21.9177 66.2192 21.8912 66.2106C21.7331 66.1596 21.5051 66.0823 21.2273 65.9784C20.6712 65.7704 19.9183 65.4562 19.1299 65.0316C17.5387 64.1749 15.8635 62.9011 15.299 61.195C14.1279 57.656 15.228 54.5694 17.8254 53.7099C19.1327 53.2773 20.3776 53.544 21.4493 54.3535C22.5283 55.1685 23.4358 56.5393 24.0213 58.3088Z" stroke="#FFCE22" stroke-width="0.5"/>
<path d="M30.822 60.7339C30.3665 62.4784 28.8452 63.8769 27.3895 64.852C26.6673 65.3358 25.9738 65.7071 25.4606 65.9575C25.2042 66.0826 24.9933 66.1772 24.8471 66.2404C24.8254 66.2498 24.805 66.2585 24.7862 66.2665C24.7712 66.2483 24.7549 66.2285 24.7374 66.2069C24.6325 66.0781 24.4831 65.8892 24.3065 65.6509C23.9529 65.1739 23.492 64.5009 23.0611 63.7158C22.1917 62.1315 21.4786 60.1516 21.9326 58.4128C22.8743 54.806 25.476 52.8139 28.1232 53.5051C29.4555 53.853 30.3553 54.7538 30.8144 56.0159C31.2768 57.2866 31.2929 58.9305 30.822 60.7339Z" stroke="#FFCE22" stroke-width="0.5"/>
<circle cx="41" cy="66.375" r="5.37497" fill="#FFCE22" stroke="#FFCE22" stroke-width="0.5"/>
<path d="M42.0213 58.3088C42.5877 60.0205 42.0715 62.0214 41.3801 63.6314C41.0372 64.4301 40.6571 65.1189 40.3625 65.6081C40.2154 65.8525 40.0899 66.0466 40.0015 66.1791C39.9884 66.1988 39.9761 66.2171 39.9646 66.2341C39.9422 66.227 39.9177 66.2192 39.8912 66.2106C39.7331 66.1596 39.5051 66.0823 39.2273 65.9784C38.6712 65.7704 37.9183 65.4562 37.1299 65.0316C35.5387 64.1749 33.8635 62.9011 33.299 61.195C32.1279 57.656 33.228 54.5694 35.8254 53.7099C37.1327 53.2773 38.3776 53.544 39.4493 54.3535C40.5283 55.1685 41.4358 56.5393 42.0213 58.3088Z" stroke="#FFCE22" stroke-width="0.5"/>
<path d="M48.822 60.7339C48.3665 62.4784 46.8452 63.8769 45.3895 64.852C44.6673 65.3358 43.9738 65.7071 43.4606 65.9575C43.2042 66.0826 42.9933 66.1772 42.8471 66.2404C42.8254 66.2498 42.805 66.2585 42.7862 66.2665C42.7712 66.2483 42.7549 66.2285 42.7374 66.2069C42.6325 66.0781 42.4831 65.8892 42.3065 65.6509C41.9529 65.1739 41.492 64.5009 41.0611 63.7158C40.1917 62.1315 39.4786 60.1516 39.9326 58.4128C40.8743 54.806 43.476 52.8139 46.1232 53.5051C47.4555 53.853 48.3553 54.7538 48.8144 56.0159C49.2768 57.2866 49.2929 58.9305 48.822 60.7339Z" stroke="#FFCE22" stroke-width="0.5"/>
<defs>
<linearGradient id="paint0_linear_57_782" x1="32.9955" y1="96" x2="32.9955" y2="3.21788e-07" gradientUnits="userSpaceOnUse">
<stop stop-color="#304D71"/>
<stop offset="1" stop-color="#3C6BA5"/>
</linearGradient>
</defs>
</svg>
