<svg width="300" height="60" viewBox="0 0 300 60" fill="none" xmlns="http://www.w3.org/2000/svg">
<rect x="0.5" y="0.5" width="299" height="59" rx="4.5" fill="url(#paint0_linear_57_665)" stroke="white"/>
<path d="M13.5823 37C13.4357 37 13.3823 36.9267 13.4223 36.78L17.8423 24.06C17.8823 23.9533 17.9623 23.9 18.0823 23.9H19.8623C19.9823 23.9 20.0623 23.9533 20.1023 24.06L24.5823 36.78C24.609 36.8467 24.6023 36.9 24.5623 36.94C24.5357 36.98 24.489 37 24.4223 37H23.0023C22.8823 37 22.8023 36.9467 22.7623 36.84L19.7623 27.84C19.629 27.44 19.4957 27.04 19.3623 26.64C19.229 26.24 19.089 25.84 18.9423 25.44H18.9223C18.789 25.8267 18.6557 26.22 18.5223 26.62C18.389 27.0067 18.2557 27.3933 18.1223 27.78L15.1623 36.84C15.1223 36.9467 15.0423 37 14.9223 37H13.5823ZM15.8023 33.94L16.2223 32.46H21.6623L22.1023 33.94H15.8023ZM26.4938 37C26.3604 37 26.2938 36.9333 26.2938 36.8V24.1C26.2938 23.9667 26.3604 23.9 26.4938 23.9H29.9938C32.0471 23.9 33.5804 24.38 34.5938 25.34C35.6071 26.2867 36.1138 27.7267 36.1138 29.66V30.66C36.1138 32.7933 35.6071 34.3867 34.5938 35.44C33.5938 36.48 32.0604 37 29.9938 37H26.4938ZM27.9938 35.56H29.8737C31.4338 35.56 32.5804 35.1733 33.3138 34.4C34.0471 33.6267 34.4138 32.42 34.4138 30.78V29.54C34.4138 28.1 34.0471 27.04 33.3138 26.36C32.5804 25.68 31.4338 25.34 29.8737 25.34H27.9938V35.56ZM42.7905 37.24C41.7238 37.24 40.8438 37.0867 40.1505 36.78C39.4705 36.46 38.9705 36.02 38.6505 35.46C38.3438 34.9 38.2171 34.2533 38.2705 33.52C38.2838 33.28 38.3638 33.16 38.5105 33.16H39.7705C39.9305 33.16 40.0105 33.2667 40.0105 33.48C40.0105 34.2933 40.2505 34.88 40.7305 35.24C41.2105 35.5867 41.9438 35.76 42.9305 35.76C43.8771 35.76 44.5905 35.5933 45.0705 35.26C45.5638 34.9133 45.8105 34.3933 45.8105 33.7C45.8105 33.3533 45.7505 33.06 45.6305 32.82C45.5238 32.5667 45.3371 32.3467 45.0705 32.16C44.8038 31.9733 44.4438 31.7867 43.9905 31.6L41.0505 30.38C40.4371 30.1267 39.9371 29.8467 39.5505 29.54C39.1771 29.22 38.9038 28.86 38.7305 28.46C38.5705 28.0467 38.4905 27.58 38.4905 27.06C38.5038 25.9533 38.8705 25.1133 39.5905 24.54C40.3238 23.9667 41.3838 23.68 42.7705 23.68C43.7171 23.68 44.5371 23.82 45.2305 24.1C45.9238 24.38 46.4505 24.7867 46.8105 25.32C47.1705 25.8533 47.3171 26.5067 47.2505 27.28C47.2238 27.5333 47.1505 27.66 47.0305 27.66H45.7505C45.6838 27.66 45.6305 27.6333 45.5905 27.58C45.5638 27.5267 45.5571 27.4267 45.5705 27.28C45.6238 26.6 45.3905 26.08 44.8705 25.72C44.3638 25.3467 43.6438 25.16 42.7105 25.16C41.8838 25.16 41.2571 25.3067 40.8305 25.6C40.4171 25.8933 40.2038 26.3467 40.1905 26.96C40.1905 27.28 40.2438 27.56 40.3505 27.8C40.4705 28.04 40.6638 28.26 40.9305 28.46C41.2105 28.66 41.5905 28.86 42.0705 29.06L44.9705 30.28C45.5838 30.5333 46.0771 30.8133 46.4505 31.12C46.8238 31.4267 47.0905 31.7867 47.2505 32.2C47.4238 32.6 47.5105 33.0867 47.5105 33.66C47.5105 34.78 47.1305 35.66 46.3705 36.3C45.6105 36.9267 44.4171 37.24 42.7905 37.24Z" fill="white"/>
<path d="M31.4167 10C20.1365 10 11 19.3229 11 30.8333C11 42.3438 20.1365 51.6667 31.4167 51.6667C42.6969 51.6667 51.8333 42.3438 51.8333 30.8333C51.8333 19.3229 42.6969 10 31.4167 10ZM15.0833 30.8333C15.0833 21.625 22.3925 14.1667 31.4167 14.1667C35.1937 14.1667 38.6544 15.4896 41.4208 17.6771L18.5235 41.0417C16.3798 38.2188 15.0833 34.6875 15.0833 30.8333ZM31.4167 47.5C27.6396 47.5 24.179 46.1771 21.4125 43.9896L44.3098 20.625C46.4535 23.4479 47.75 26.9792 47.75 30.8333C47.75 40.0417 40.4408 47.5 31.4167 47.5Z" fill="url(#paint1_linear_57_665)"/>
<path d="M62.74 37C62.6733 37 62.6267 36.98 62.6 36.94C62.5733 36.8867 62.5733 36.8267 62.6 36.76L64.76 32.4L60.52 24.14C60.4933 24.0733 60.4933 24.02 60.52 23.98C60.5467 23.9267 60.5933 23.9 60.66 23.9H62.14C62.26 23.9 62.34 23.9467 62.38 24.04L64.7 28.76C64.86 29.08 65.02 29.4 65.18 29.72C65.34 30.0267 65.4867 30.34 65.62 30.66H65.66C65.8067 30.34 65.9533 30.0267 66.1 29.72C66.26 29.4 66.42 29.08 66.58 28.76L68.92 24.04C68.96 23.9467 69.04 23.9 69.16 23.9H70.58C70.6467 23.9 70.6933 23.9267 70.72 23.98C70.7467 24.02 70.7467 24.0733 70.72 24.14L64.28 36.86C64.24 36.9533 64.16 37 64.04 37H62.74ZM75.0061 40.94C73.8328 40.94 72.9128 40.7 72.2461 40.22C71.5928 39.74 71.2928 39.1467 71.3461 38.44C71.3594 38.32 71.3861 38.2333 71.4261 38.18C71.4661 38.1267 71.5194 38.1 71.5861 38.1H72.9061C72.9728 38.1 73.0194 38.12 73.0461 38.16C73.0728 38.2 73.0861 38.2733 73.0861 38.38C73.0861 38.7133 73.2528 38.9733 73.5861 39.16C73.9328 39.36 74.4128 39.46 75.0261 39.46C75.8394 39.46 76.4261 39.2867 76.7861 38.94C77.1461 38.6067 77.3261 38.0533 77.3261 37.28V36.68C77.3261 36.4533 77.3261 36.2267 77.3261 36C77.3261 35.76 77.3328 35.5267 77.3461 35.3H77.3261C76.7528 35.7933 76.2061 36.1533 75.6861 36.38C75.1661 36.6067 74.6061 36.72 74.0061 36.72C73.0061 36.72 72.2528 36.4133 71.7461 35.8C71.2394 35.1867 70.9861 34.2533 70.9861 33V31.06C70.9861 29.7133 71.3128 28.7 71.9661 28.02C72.6194 27.34 73.6261 27 74.9861 27C75.4794 27 75.9328 27.0333 76.3461 27.1C76.7594 27.1667 77.1794 27.24 77.6061 27.32C78.0328 27.4 78.5061 27.46 79.0261 27.5V37.18C79.0261 37.98 78.8728 38.66 78.5661 39.22C78.2594 39.78 77.8061 40.2067 77.2061 40.5C76.6061 40.7933 75.8728 40.94 75.0061 40.94ZM74.3661 35.22C74.8194 35.22 75.2661 35.1067 75.7061 34.88C76.1461 34.6533 76.6861 34.2667 77.3261 33.72V28.72C76.9928 28.6533 76.6128 28.6 76.1861 28.56C75.7728 28.52 75.4194 28.5 75.1261 28.5C74.2594 28.5 73.6328 28.72 73.2461 29.16C72.8728 29.5867 72.6861 30.2733 72.6861 31.22V32.9C72.6861 33.7133 72.8194 34.3067 73.0861 34.68C73.3661 35.04 73.7928 35.22 74.3661 35.22ZM87.6873 37C87.6073 37 87.554 36.9733 87.5273 36.92C87.5007 36.8667 87.474 36.8 87.4473 36.72C87.434 36.6133 87.4007 36.3867 87.3473 36.04C87.3073 35.68 87.2807 35.36 87.2673 35.08L87.2073 34.32V30.34C87.2073 29.6733 87.074 29.2 86.8073 28.92C86.5407 28.64 86.074 28.5 85.4073 28.5C84.8073 28.5 84.354 28.6067 84.0473 28.82C83.754 29.02 83.6073 29.3267 83.6073 29.74C83.6073 29.8733 83.5473 29.94 83.4273 29.94H82.1073C81.974 29.94 81.9007 29.8133 81.8873 29.56C81.8207 28.8 82.114 28.1867 82.7673 27.72C83.434 27.24 84.334 27 85.4673 27C86.6273 27 87.4873 27.2733 88.0473 27.82C88.6207 28.3667 88.9073 29.1933 88.9073 30.3V34.58C88.9073 35.0467 88.9207 35.4667 88.9473 35.84C88.974 36.2 89.0073 36.5133 89.0473 36.78C89.074 36.9267 89.0073 37 88.8473 37H87.6873ZM83.8673 37.24C83.094 37.24 82.5007 37.0067 82.0873 36.54C81.6873 36.0733 81.4873 35.3933 81.4873 34.5C81.4873 33.8067 81.6207 33.24 81.8873 32.8C82.1673 32.36 82.6073 32.02 83.2073 31.78C83.8207 31.54 84.634 31.38 85.6473 31.3L87.5273 31.14V32.44L85.6073 32.6C84.6873 32.68 84.054 32.8467 83.7073 33.1C83.3607 33.3533 83.1873 33.78 83.1873 34.38C83.1873 34.8333 83.2807 35.1733 83.4673 35.4C83.654 35.6267 83.934 35.74 84.3073 35.74C84.7473 35.74 85.2073 35.5933 85.6873 35.3C86.1673 34.9933 86.8007 34.4333 87.5873 33.62V35.12C87.1207 35.6267 86.6807 36.04 86.2673 36.36C85.8673 36.6667 85.474 36.8867 85.0873 37.02C84.7007 37.1667 84.294 37.24 83.8673 37.24ZM90.6702 37C90.5102 37 90.4635 36.92 90.5302 36.76L93.9302 27.52C93.9968 27.3333 94.1102 27.24 94.2702 27.24H95.6502C95.8102 27.24 95.9235 27.3333 95.9902 27.52L99.3902 36.76C99.4568 36.92 99.4102 37 99.2502 37H97.8702C97.7635 37 97.6902 36.9467 97.6502 36.84L95.7902 31.46C95.6568 31.0733 95.5168 30.6933 95.3702 30.32C95.2368 29.9333 95.1102 29.5533 94.9902 29.18H94.9502C94.8302 29.5667 94.7035 29.9533 94.5702 30.34C94.4368 30.7267 94.2968 31.1133 94.1502 31.5L92.2702 36.84C92.2302 36.9467 92.1568 37 92.0502 37H90.6702ZM103.456 37.24C102.603 37.24 101.95 36.9533 101.496 36.38C101.043 35.8067 100.816 34.98 100.816 33.9V27.44C100.816 27.3067 100.883 27.24 101.016 27.24H102.316C102.45 27.24 102.516 27.3067 102.516 27.44V33.82C102.516 34.4733 102.63 34.96 102.856 35.28C103.096 35.5867 103.463 35.74 103.956 35.74C104.45 35.74 104.943 35.5867 105.436 35.28C105.943 34.9733 106.57 34.44 107.316 33.68L107.276 35.26C106.85 35.7 106.423 36.0667 105.996 36.36C105.57 36.6533 105.143 36.8733 104.716 37.02C104.303 37.1667 103.883 37.24 103.456 37.24ZM107.456 37C107.39 37 107.336 36.9867 107.296 36.96C107.256 36.92 107.23 36.8667 107.216 36.8C107.176 36.5467 107.143 36.2867 107.116 36.02C107.09 35.7533 107.07 35.48 107.056 35.2L106.956 34.36V27.44C106.956 27.3067 107.023 27.24 107.156 27.24H108.456C108.59 27.24 108.656 27.3067 108.656 27.44V34.56C108.656 34.92 108.663 35.2933 108.676 35.68C108.703 36.0667 108.743 36.44 108.796 36.8C108.823 36.9333 108.75 37 108.576 37H107.456ZM111.856 37C111.723 37 111.656 36.9333 111.656 36.8V29.68C111.656 29.32 111.643 28.9467 111.616 28.56C111.603 28.16 111.57 27.8 111.516 27.48C111.49 27.32 111.563 27.24 111.736 27.24H112.936C113.003 27.24 113.05 27.2467 113.076 27.26C113.103 27.2733 113.123 27.3133 113.136 27.38C113.163 27.58 113.196 27.7933 113.236 28.02C113.276 28.2467 113.303 28.48 113.316 28.72C113.916 28.12 114.483 27.6867 115.016 27.42C115.55 27.14 116.123 27 116.736 27C117.416 27 117.963 27.16 118.376 27.48C118.803 27.7867 119.103 28.2467 119.276 28.86C119.916 28.2067 120.51 27.7333 121.056 27.44C121.603 27.1467 122.196 27 122.836 27C123.73 27 124.403 27.28 124.856 27.84C125.323 28.4 125.556 29.2267 125.556 30.32V36.8C125.556 36.9333 125.49 37 125.356 37H124.056C123.923 37 123.856 36.9333 123.856 36.8V30.42C123.856 29.78 123.736 29.3 123.496 28.98C123.27 28.66 122.91 28.5 122.416 28.5C121.976 28.5 121.523 28.64 121.056 28.92C120.603 29.1867 120.07 29.6133 119.456 30.2V36.8C119.456 36.9333 119.39 37 119.256 37H117.956C117.823 37 117.756 36.9333 117.756 36.8V30.42C117.756 29.78 117.636 29.3 117.396 28.98C117.17 28.66 116.81 28.5 116.316 28.5C115.876 28.5 115.423 28.64 114.956 28.92C114.503 29.1867 113.97 29.6133 113.356 30.2V36.8C113.356 36.9333 113.29 37 113.156 37H111.856ZM132.151 37.24C130.884 37.24 129.964 36.9533 129.391 36.38C128.831 35.7933 128.551 34.86 128.551 33.58V27.44C128.551 27.3067 128.617 27.24 128.751 27.24H130.051C130.184 27.24 130.251 27.3067 130.251 27.44V33.86C130.251 34.5133 130.417 35.0067 130.751 35.34C131.097 35.66 131.604 35.82 132.271 35.82C132.937 35.82 133.457 35.6533 133.831 35.32C134.204 34.9733 134.391 34.4867 134.391 33.86V32.88C134.391 32.3333 134.257 31.9267 133.991 31.66C133.724 31.38 133.337 31.24 132.831 31.24C132.284 31.24 131.777 31.4 131.311 31.72C130.844 32.0267 130.417 32.4733 130.031 33.06L130.011 31.4C130.477 30.8533 130.971 30.44 131.491 30.16C132.024 29.88 132.624 29.74 133.291 29.74C134.211 29.74 134.911 30 135.391 30.52C135.884 31.04 136.131 31.8067 136.131 32.82V33.68C136.131 34.8533 135.791 35.74 135.111 36.34C134.431 36.94 133.444 37.24 132.151 37.24ZM147.306 37.24C146.799 37.24 146.272 37.1733 145.726 37.04C145.179 36.9067 144.739 36.7267 144.406 36.5L144.346 35.06C144.732 35.2733 145.159 35.44 145.626 35.56C146.092 35.68 146.532 35.74 146.946 35.74C147.719 35.74 148.286 35.5133 148.646 35.06C149.006 34.6067 149.186 33.9267 149.186 33.02V30.82C149.186 30.02 149.046 29.4333 148.766 29.06C148.486 28.6867 148.072 28.5 147.526 28.5C147.059 28.5 146.586 28.64 146.106 28.92C145.639 29.1867 145.019 29.6667 144.246 30.36V28.76C144.699 28.3467 145.119 28.0133 145.506 27.76C145.906 27.4933 146.292 27.3 146.666 27.18C147.052 27.06 147.459 27 147.886 27C148.872 27 149.619 27.3067 150.126 27.92C150.632 28.5333 150.886 29.4667 150.886 30.72V33.22C150.886 34.5133 150.579 35.5067 149.966 36.2C149.352 36.8933 148.466 37.24 147.306 37.24ZM143.126 40.7C142.992 40.7 142.926 40.6333 142.926 40.5V29.5C142.926 29.1933 142.912 28.8533 142.886 28.48C142.859 28.1067 142.826 27.7733 142.786 27.48C142.772 27.32 142.839 27.24 142.986 27.24H144.206C144.339 27.24 144.412 27.3067 144.426 27.44C144.452 27.5333 144.479 27.6667 144.506 27.84C144.532 28.0133 144.552 28.1867 144.566 28.36C144.579 28.52 144.579 28.6333 144.566 28.7L144.626 29.7V40.5C144.626 40.6333 144.559 40.7 144.426 40.7H143.126ZM157.388 37.24C156.108 37.24 155.121 36.94 154.428 36.34C153.748 35.74 153.408 34.8533 153.408 33.68V30.88C153.408 29.6133 153.748 28.6533 154.428 28C155.108 27.3333 156.095 27 157.388 27C158.681 27 159.661 27.3267 160.328 27.98C161.008 28.62 161.348 29.5533 161.348 30.78V32.34C161.348 32.4733 161.281 32.54 161.148 32.54H155.108V33.18C155.108 34.0733 155.295 34.7267 155.668 35.14C156.041 35.54 156.648 35.74 157.488 35.74C158.115 35.74 158.595 35.64 158.928 35.44C159.275 35.2267 159.448 34.92 159.448 34.52C159.448 34.3733 159.521 34.3 159.668 34.3H160.968C161.075 34.3 161.141 34.36 161.168 34.48C161.221 35.3333 160.908 36.0067 160.228 36.5C159.548 36.9933 158.601 37.24 157.388 37.24ZM155.108 31.08H159.648V30.96C159.648 30.12 159.461 29.5 159.088 29.1C158.715 28.7 158.155 28.5 157.408 28.5C156.635 28.5 156.055 28.7067 155.668 29.12C155.295 29.5333 155.108 30.1533 155.108 30.98V31.08ZM172.119 36.76C172.159 36.8133 172.166 36.8667 172.139 36.92C172.112 36.9733 172.059 37 171.979 37H170.419C170.312 37 170.232 36.96 170.179 36.88L167.179 32.46H165.739V36.8C165.739 36.9333 165.672 37 165.539 37H164.239C164.106 37 164.039 36.9333 164.039 36.8V23.54C164.039 23.4067 164.106 23.34 164.239 23.34H165.539C165.672 23.34 165.739 23.4067 165.739 23.54V31.1H167.119L169.899 27.36C169.966 27.28 170.052 27.24 170.159 27.24H171.659C171.739 27.24 171.792 27.2667 171.819 27.32C171.846 27.36 171.832 27.4133 171.779 27.48L168.619 31.6L172.119 36.76ZM172.682 37C172.522 37 172.475 36.92 172.542 36.76L175.942 27.52C176.009 27.3333 176.122 27.24 176.282 27.24H177.662C177.822 27.24 177.935 27.3333 178.002 27.52L181.402 36.76C181.469 36.92 181.422 37 181.262 37H179.882C179.775 37 179.702 36.9467 179.662 36.84L177.802 31.46C177.669 31.0733 177.529 30.6933 177.382 30.32C177.249 29.9333 177.122 29.5533 177.002 29.18H176.962C176.842 29.5667 176.715 29.9533 176.582 30.34C176.449 30.7267 176.309 31.1133 176.162 31.5L174.282 36.84C174.242 36.9467 174.169 37 174.062 37H172.682ZM189.074 37C188.994 37 188.941 36.9733 188.914 36.92C188.887 36.8667 188.861 36.8 188.834 36.72C188.821 36.6133 188.787 36.3867 188.734 36.04C188.694 35.68 188.667 35.36 188.654 35.08L188.594 34.32V30.34C188.594 29.6733 188.461 29.2 188.194 28.92C187.927 28.64 187.461 28.5 186.794 28.5C186.194 28.5 185.741 28.6067 185.434 28.82C185.141 29.02 184.994 29.3267 184.994 29.74C184.994 29.8733 184.934 29.94 184.814 29.94H183.494C183.361 29.94 183.287 29.8133 183.274 29.56C183.207 28.8 183.501 28.1867 184.154 27.72C184.821 27.24 185.721 27 186.854 27C188.014 27 188.874 27.2733 189.434 27.82C190.007 28.3667 190.294 29.1933 190.294 30.3V34.58C190.294 35.0467 190.307 35.4667 190.334 35.84C190.361 36.2 190.394 36.5133 190.434 36.78C190.461 36.9267 190.394 37 190.234 37H189.074ZM185.254 37.24C184.481 37.24 183.887 37.0067 183.474 36.54C183.074 36.0733 182.874 35.3933 182.874 34.5C182.874 33.8067 183.007 33.24 183.274 32.8C183.554 32.36 183.994 32.02 184.594 31.78C185.207 31.54 186.021 31.38 187.034 31.3L188.914 31.14V32.44L186.994 32.6C186.074 32.68 185.441 32.8467 185.094 33.1C184.747 33.3533 184.574 33.78 184.574 34.38C184.574 34.8333 184.667 35.1733 184.854 35.4C185.041 35.6267 185.321 35.74 185.694 35.74C186.134 35.74 186.594 35.5933 187.074 35.3C187.554 34.9933 188.187 34.4333 188.974 33.62V35.12C188.507 35.6267 188.067 36.04 187.654 36.36C187.254 36.6667 186.861 36.8867 186.474 37.02C186.087 37.1667 185.681 37.24 185.254 37.24ZM193.317 37C193.184 37 193.117 36.9333 193.117 36.8L193.277 27.44C193.277 27.3067 193.344 27.24 193.477 27.24H194.897C194.99 27.24 195.064 27.2933 195.117 27.4L198.057 33.16L200.997 27.4C201.05 27.2933 201.124 27.24 201.217 27.24H202.637C202.77 27.24 202.837 27.3067 202.837 27.44L202.997 36.8C202.997 36.9333 202.93 37 202.797 37H201.557C201.424 37 201.357 36.9333 201.357 36.8L201.317 32C201.317 31.8267 201.324 31.6067 201.337 31.34C201.35 31.0733 201.364 30.7933 201.377 30.5C201.404 30.2067 201.424 29.94 201.437 29.7H201.377C201.244 30.0333 201.104 30.3467 200.957 30.64C200.824 30.9333 200.697 31.1933 200.577 31.42L198.217 35.68C198.204 35.7067 198.184 35.7267 198.157 35.74C198.13 35.7533 198.097 35.76 198.057 35.76C198.017 35.76 197.984 35.7533 197.957 35.74C197.944 35.7267 197.924 35.7067 197.897 35.68L195.537 31.42C195.417 31.1933 195.29 30.9333 195.157 30.64C195.024 30.3467 194.884 30.0333 194.737 29.7H194.677C194.704 29.94 194.724 30.2067 194.737 30.5C194.75 30.7933 194.764 31.0733 194.777 31.34C194.79 31.6067 194.797 31.8267 194.797 32L194.757 36.8C194.757 36.9333 194.69 37 194.557 37H193.317ZM207.216 40.7C207.056 40.7 207.01 40.62 207.076 40.46L208.496 36.88L204.796 27.48C204.73 27.32 204.776 27.24 204.936 27.24H206.356C206.463 27.24 206.536 27.2933 206.576 27.4L208.376 32.24C208.536 32.6533 208.69 33.08 208.836 33.52C208.996 33.96 209.15 34.3933 209.296 34.82H209.316C209.463 34.3933 209.616 33.96 209.776 33.52C209.95 33.08 210.11 32.6533 210.256 32.24L212.056 27.4C212.096 27.2933 212.176 27.24 212.296 27.24H213.636C213.703 27.24 213.75 27.2667 213.776 27.32C213.816 27.36 213.823 27.4133 213.796 27.48L208.736 40.54C208.696 40.6467 208.623 40.7 208.516 40.7H207.216Z" fill="white"/>
<defs>
<linearGradient id="paint0_linear_57_665" x1="300" y1="30" x2="-9.00278e-07" y2="30" gradientUnits="userSpaceOnUse">
<stop stop-color="#304D71"/>
<stop offset="0.497211" stop-color="#466E9F"/>
<stop offset="0.994" stop-color="#304D71"/>
</linearGradient>
<linearGradient id="paint1_linear_57_665" x1="31.4167" y1="10" x2="31.4167" y2="51.6667" gradientUnits="userSpaceOnUse">
<stop stop-color="#C1EA9E"/>
<stop offset="1" stop-color="#578867"/>
</linearGradient>
</defs>
</svg>
