<svg width="51" height="51" viewBox="0 0 51 51" fill="none" xmlns="http://www.w3.org/2000/svg">
<rect x="0.5" y="0.5" width="50" height="50" rx="2.5" fill="url(#paint0_linear_57_484)" stroke="white"/>
<path d="M7.58234 32C7.43568 32 7.38234 31.9267 7.42234 31.78L11.8423 19.06C11.8823 18.9533 11.9623 18.9 12.0823 18.9H13.8623C13.9823 18.9 14.0623 18.9533 14.1023 19.06L18.5823 31.78C18.609 31.8467 18.6023 31.9 18.5623 31.94C18.5357 31.98 18.489 32 18.4223 32H17.0023C16.8823 32 16.8023 31.9467 16.7623 31.84L13.7623 22.84C13.629 22.44 13.4957 22.04 13.3623 21.64C13.229 21.24 13.089 20.84 12.9423 20.44H12.9223C12.789 20.8267 12.6557 21.22 12.5223 21.62C12.389 22.0067 12.2557 22.3933 12.1223 22.78L9.16234 31.84C9.12234 31.9467 9.04234 32 8.92234 32H7.58234ZM9.80234 28.94L10.2223 27.46H15.6623L16.1023 28.94H9.80234ZM20.4938 32C20.3604 32 20.2938 31.9333 20.2938 31.8V19.1C20.2938 18.9667 20.3604 18.9 20.4938 18.9H23.9938C26.0471 18.9 27.5804 19.38 28.5938 20.34C29.6071 21.2867 30.1138 22.7267 30.1138 24.66V25.66C30.1138 27.7933 29.6071 29.3867 28.5938 30.44C27.5938 31.48 26.0604 32 23.9938 32H20.4938ZM21.9938 30.56H23.8737C25.4338 30.56 26.5804 30.1733 27.3138 29.4C28.0471 28.6267 28.4138 27.42 28.4138 25.78V24.54C28.4138 23.1 28.0471 22.04 27.3138 21.36C26.5804 20.68 25.4338 20.34 23.8737 20.34H21.9938V30.56ZM36.7905 32.24C35.7238 32.24 34.8438 32.0867 34.1505 31.78C33.4705 31.46 32.9705 31.02 32.6505 30.46C32.3438 29.9 32.2171 29.2533 32.2705 28.52C32.2838 28.28 32.3638 28.16 32.5105 28.16H33.7705C33.9305 28.16 34.0105 28.2667 34.0105 28.48C34.0105 29.2933 34.2505 29.88 34.7305 30.24C35.2105 30.5867 35.9438 30.76 36.9305 30.76C37.8771 30.76 38.5905 30.5933 39.0705 30.26C39.5638 29.9133 39.8105 29.3933 39.8105 28.7C39.8105 28.3533 39.7505 28.06 39.6305 27.82C39.5238 27.5667 39.3371 27.3467 39.0705 27.16C38.8038 26.9733 38.4438 26.7867 37.9905 26.6L35.0505 25.38C34.4371 25.1267 33.9371 24.8467 33.5505 24.54C33.1771 24.22 32.9038 23.86 32.7305 23.46C32.5705 23.0467 32.4905 22.58 32.4905 22.06C32.5038 20.9533 32.8705 20.1133 33.5905 19.54C34.3238 18.9667 35.3838 18.68 36.7705 18.68C37.7171 18.68 38.5371 18.82 39.2305 19.1C39.9238 19.38 40.4505 19.7867 40.8105 20.32C41.1705 20.8533 41.3171 21.5067 41.2505 22.28C41.2238 22.5333 41.1505 22.66 41.0305 22.66H39.7505C39.6838 22.66 39.6305 22.6333 39.5905 22.58C39.5638 22.5267 39.5571 22.4267 39.5705 22.28C39.6238 21.6 39.3905 21.08 38.8705 20.72C38.3638 20.3467 37.6438 20.16 36.7105 20.16C35.8838 20.16 35.2571 20.3067 34.8305 20.6C34.4171 20.8933 34.2038 21.3467 34.1905 21.96C34.1905 22.28 34.2438 22.56 34.3505 22.8C34.4705 23.04 34.6638 23.26 34.9305 23.46C35.2105 23.66 35.5905 23.86 36.0705 24.06L38.9705 25.28C39.5838 25.5333 40.0771 25.8133 40.4505 26.12C40.8238 26.4267 41.0905 26.7867 41.2505 27.2C41.4238 27.6 41.5105 28.0867 41.5105 28.66C41.5105 29.78 41.1305 30.66 40.3705 31.3C39.6105 31.9267 38.4171 32.24 36.7905 32.24Z" fill="white"/>
<path d="M25.4167 5C14.1365 5 5 14.3229 5 25.8333C5 37.3438 14.1365 46.6667 25.4167 46.6667C36.6969 46.6667 45.8333 37.3438 45.8333 25.8333C45.8333 14.3229 36.6969 5 25.4167 5ZM9.08333 25.8333C9.08333 16.625 16.3925 9.16667 25.4167 9.16667C29.1938 9.16667 32.6544 10.4896 35.4208 12.6771L12.5235 36.0417C10.3798 33.2187 9.08333 29.6875 9.08333 25.8333ZM25.4167 42.5C21.6396 42.5 18.179 41.1771 15.4125 38.9896L38.3098 15.625C40.4535 18.4479 41.75 21.9792 41.75 25.8333C41.75 35.0417 34.4408 42.5 25.4167 42.5Z" fill="url(#paint1_linear_57_484)"/>
<defs>
<linearGradient id="paint0_linear_57_484" x1="27.5864" y1="51" x2="27.5864" y2="1.70949e-07" gradientUnits="userSpaceOnUse">
<stop stop-color="#304D71"/>
<stop offset="1" stop-color="#3C6BA5"/>
</linearGradient>
<linearGradient id="paint1_linear_57_484" x1="25.4167" y1="5" x2="25.4167" y2="46.6667" gradientUnits="userSpaceOnUse">
<stop stop-color="#C1EA9E"/>
<stop offset="1" stop-color="#578867"/>
</linearGradient>
</defs>
</svg>
