<svg width="53" height="50" viewBox="0 0 53 50" fill="none" xmlns="http://www.w3.org/2000/svg">
<rect x="4.5" y="0.5" width="44" height="44" rx="3.5" fill="url(#paint0_linear_57_504)" stroke="white"/>
<mask id="mask0_57_504" style="mask-type:luminance" maskUnits="userSpaceOnUse" x="0" y="-3" width="53" height="53">
<path fill-rule="evenodd" clip-rule="evenodd" d="M0 23.5C0 8.86445 11.8645 -3 26.5 -3C41.1355 -3 53 8.86445 53 23.5C53 38.1355 41.1355 50 26.5 50C11.8645 50 0 38.1355 0 23.5Z" fill="white"/>
</mask>
<g mask="url(#mask0_57_504)">
<path fill-rule="evenodd" clip-rule="evenodd" d="M22.9667 23.5C22.9667 22.5291 23.6653 21.7333 24.5501 21.7333C25.435 21.7333 26.1492 22.5291 26.1336 23.5C26.1336 24.4709 25.435 25.2667 24.5501 25.2667C23.6808 25.2667 22.9667 24.4709 22.9667 23.5ZM28.633 23.5C28.633 22.5291 29.3316 21.7333 30.2165 21.7333C31.1014 21.7333 31.8 22.5291 31.8 23.5C31.8 24.4709 31.1014 25.2667 30.2165 25.2667C29.3472 25.2667 28.633 24.4709 28.633 23.5Z" fill="white"/>
<path fill-rule="evenodd" clip-rule="evenodd" d="M16.4578 8.48334H37.4256C39.1938 8.48334 40.6333 9.9055 40.6333 11.6678V39.4L37.2691 36.4629L35.3757 34.7316L33.3728 32.892L34.2022 35.7518H16.4578C14.6896 35.7518 13.25 34.3297 13.25 32.5674V11.6678C13.25 9.9055 14.6896 8.48334 16.4578 8.48334ZM30.3528 27.4198C30.8223 28.0072 31.3856 28.6719 31.3856 28.6719C34.8437 28.5637 36.1738 26.3223 36.1738 26.3223C36.1738 21.3447 33.9205 17.31 33.9205 17.31C31.6672 15.6405 29.5235 15.6869 29.5235 15.6869L29.3045 15.9343C31.9646 16.7381 33.2007 17.8975 33.2007 17.8975C31.5734 17.0163 29.9773 16.5835 28.4908 16.4135C27.3642 16.2898 26.2845 16.3207 25.33 16.4444C25.248 16.4444 25.178 16.4562 25.099 16.4694C25.0875 16.4714 25.0759 16.4733 25.064 16.4753C24.5163 16.5217 23.1862 16.7226 21.5119 17.4492C20.933 17.712 20.5887 17.8975 20.5887 17.8975C20.5887 17.8975 21.8875 16.6763 24.7041 15.8724L24.5476 15.6869C24.5476 15.6869 22.4039 15.6405 20.1506 17.31C20.1506 17.31 17.8973 21.3447 17.8973 26.3223C17.8973 26.3223 19.2117 28.5637 22.6699 28.6719C22.6699 28.6719 23.2488 27.9763 23.7183 27.3889C21.731 26.8015 20.9799 25.5648 20.9799 25.5648C20.9799 25.5648 21.1364 25.673 21.4181 25.8276C21.4337 25.843 21.4494 25.8585 21.4806 25.874C21.5041 25.8894 21.5276 25.901 21.5511 25.9126C21.5745 25.9242 21.598 25.9358 21.6215 25.9513C22.0127 26.1677 22.4039 26.3377 22.7638 26.4768C23.4053 26.7242 24.172 26.9715 25.064 27.1415C26.2375 27.358 27.6145 27.4353 29.1167 27.157C29.8521 27.0333 30.6032 26.8169 31.3856 26.4923C31.9333 26.2913 32.5435 25.9976 33.1851 25.5803C33.1851 25.5803 32.4027 26.8478 30.3528 27.4198Z" fill="white"/>
</g>
<defs>
<linearGradient id="paint0_linear_57_504" x1="28.3409" y1="45" x2="28.3409" y2="1.50837e-07" gradientUnits="userSpaceOnUse">
<stop stop-color="#304D71"/>
<stop offset="1" stop-color="#3C6BA5"/>
</linearGradient>
</defs>
</svg>
