<svg width="51" height="51" viewBox="0 0 51 51" fill="none" xmlns="http://www.w3.org/2000/svg">
<rect x="0.5" y="0.5" width="50" height="50" rx="2.5" fill="url(#paint0_linear_57_488)" stroke="white"/>
<circle cx="28.1277" cy="26.0278" r="15.0278" fill="#A4D8E4"/>
<path d="M27.0626 23.1877C27.0626 23.1877 16.4507 29.9325 12.7325 29.9325C9.01423 29.9325 6 26.9128 6 23.1877C6 19.4627 9.01423 16.443 12.7325 16.443C16.4507 16.443 27.0626 23.1877 27.0626 23.1877Z" fill="#FDEEB5"/>
<path d="M39.8421 23.1877C39.8421 23.1877 29.3495 29.9325 25.673 29.9325C21.9965 29.9325 19.0162 26.9128 19.0162 23.1877C19.0162 19.4627 21.9965 16.443 25.673 16.443C29.3495 16.443 39.8421 23.1877 39.8421 23.1877Z" fill="white"/>
<circle cx="24.3413" cy="23.1878" r="4.14153" transform="rotate(-90 24.3413 23.1878)" fill="black"/>
<ellipse cx="23.8678" cy="22.1228" rx="2.36659" ry="2.24826" transform="rotate(-90 23.8678 22.1228)" fill="#FDEEB5"/>
<ellipse cx="11.5615" cy="23.1878" rx="4.14153" ry="4.37819" transform="rotate(-90 11.5615 23.1878)" fill="black"/>
<ellipse cx="11.2063" cy="22.1228" rx="2.36659" ry="2.12993" transform="rotate(-90 11.2063 22.1228)" fill="white"/>
<rect x="22.7174" y="15.0296" width="10.903" height="2.64315" rx="0.438064" transform="rotate(-12.2453 22.7174 15.0296)" fill="black"/>
<rect width="10.903" height="2.64315" rx="0.438064" transform="matrix(-0.977248 -0.212098 -0.212098 0.977248 19.6205 15.0296)" fill="black"/>
<defs>
<linearGradient id="paint0_linear_57_488" x1="27.5864" y1="51" x2="27.5864" y2="1.70949e-07" gradientUnits="userSpaceOnUse">
<stop stop-color="#304D71"/>
<stop offset="1" stop-color="#3C6BA5"/>
</linearGradient>
</defs>
</svg>
