<svg width="51" height="51" viewBox="0 0 51 51" fill="none" xmlns="http://www.w3.org/2000/svg">
<rect x="0.5" y="0.5" width="50" height="50" rx="3.5" fill="url(#paint0_linear_57_399)" stroke="white"/>
<path d="M33.4161 20.7274C30.2033 16.6712 24.9522 16.8078 22.6033 18.2881L24.1801 20.1288C25.6292 19.1711 29.2656 18.366 32.7146 22.3922C35.763 25.9508 40.0805 24.9473 41.6699 23.6567L40.3034 22.0614C40.3034 22.0614 36.6289 24.7836 33.4161 20.7274Z" fill="#A4D8E4"/>
<path d="M32.1234 32.5229C28.9106 28.4667 23.6596 28.6033 21.3107 30.0835L22.8875 31.9242C24.3365 30.9666 27.973 30.1614 31.4219 34.1876C34.4703 37.7463 38.7878 36.7427 40.3772 35.4521L39.0107 33.8569C39.0107 33.8569 35.3362 36.579 32.1234 32.5229Z" fill="#C1EA9E"/>
<path d="M32.1234 26.5443C28.9106 22.4881 23.6596 22.6247 21.3107 24.105L22.8875 25.9457C24.3365 24.988 27.973 24.1829 31.4219 28.2091C34.4703 31.7677 38.7878 30.7642 40.3772 29.4736L39.0107 27.8783C39.0107 27.8783 35.3362 30.6005 32.1234 26.5443Z" fill="white"/>
<rect x="10" y="18.7344" width="12.2801" height="14.5423" rx="6.14007" fill="#A4D8E4"/>
<path d="M16.9482 21.5758C16.9482 19.8627 17.6415 18.2225 18.8703 17.0288L22.8807 13.1329C24.8903 11.1808 28.2588 12.6047 28.2588 15.4064V35.2681C28.2588 37.8324 25.3723 39.3352 23.2716 37.8647L19.652 35.331C17.9574 34.1448 16.9482 32.2063 16.9482 30.1378V21.5758Z" fill="#FDEEB5"/>
<path d="M24.1366 7.78311L22.4035 14.4397L28.4697 17.6824L21.8131 15.9493L18.5704 22.0155L20.3035 15.3589L14.2373 12.1162L20.8939 13.8493L24.1366 7.78311Z" fill="white"/>
<defs>
<linearGradient id="paint0_linear_57_399" x1="27.5864" y1="51" x2="27.5864" y2="1.70949e-07" gradientUnits="userSpaceOnUse">
<stop stop-color="#304D71"/>
<stop offset="1" stop-color="#3C6BA5"/>
</linearGradient>
</defs>
</svg>
