<svg width="45" height="45" viewBox="0 0 45 45" fill="none" xmlns="http://www.w3.org/2000/svg">
<rect x="0.5" y="0.5" width="44" height="44" rx="3.5" fill="url(#paint0_linear_57_501)" stroke="white"/>
<path fill-rule="evenodd" clip-rule="evenodd" d="M37 22.5C37 30.5081 30.5081 37 22.5 37C14.4919 37 8 30.5081 8 22.5C8 14.4919 14.4919 8 22.5 8C30.5081 8 37 14.4919 37 22.5ZM17.7099 21.1717C16.2573 21.8059 14.7649 22.4576 13.4002 23.2093L13.4001 23.2094C12.6875 23.7311 13.6347 24.1001 14.5232 24.4463C14.6645 24.5013 14.8043 24.5558 14.9356 24.6102C15.045 24.6438 15.1562 24.6792 15.2688 24.7151C16.2571 25.03 17.359 25.381 18.3184 24.8529C19.8944 23.9476 21.3817 22.9009 22.8679 21.855C23.3548 21.5124 23.8415 21.1698 24.3313 20.8323C24.3542 20.8176 24.3801 20.8008 24.4084 20.7825C24.8256 20.5121 25.7639 19.9038 25.4169 20.7419C24.5961 21.6395 23.717 22.434 22.8332 23.2328C22.2375 23.7712 21.6396 24.3116 21.056 24.8867C20.5477 25.2997 20.0199 26.1303 20.589 26.7087C21.9001 27.6265 23.2316 28.522 24.5623 29.417C24.9953 29.7082 25.4282 29.9994 25.8603 30.2912C26.5926 30.876 27.7372 30.403 27.8982 29.4893C27.9699 29.0689 28.0417 28.6486 28.1136 28.2283C28.5109 25.9055 28.9084 23.5818 29.2594 21.2515C29.3071 20.8859 29.3612 20.5204 29.4154 20.1547C29.5465 19.2683 29.6779 18.3808 29.7189 17.4897C29.6131 16.6004 28.5349 16.7959 27.9348 16.9959C24.8504 18.1695 21.7968 19.4302 18.7553 20.7131C18.4107 20.8657 18.0615 21.0182 17.7099 21.1717Z" fill="white"/>
<defs>
<linearGradient id="paint0_linear_57_501" x1="24.3409" y1="45" x2="24.3409" y2="1.50837e-07" gradientUnits="userSpaceOnUse">
<stop stop-color="#304D71"/>
<stop offset="1" stop-color="#3C6BA5"/>
</linearGradient>
</defs>
</svg>
