<svg width="30" height="30" viewBox="0 0 30 30" fill="none" xmlns="http://www.w3.org/2000/svg">
<rect x="0.5" y="0.5" width="29" height="29" rx="2.5" fill="url(#paint0_linear_57_636)" stroke="white"/>
<path d="M26.9656 14.5C26.9771 14.5 26.9885 14.4991 27 14.4991H26.9321C15.0013 14.4513 14.9996 2 14.9996 2C14.9996 2 14.9987 14.4513 3.06793 14.4991H3C3.01147 14.4991 3.02294 14.5 3.03441 14.5C3.02294 14.5 3.01147 14.5009 3 14.5009H3.06793C14.9987 14.5487 14.9996 27 14.9996 27C14.9996 27 15.0004 14.5487 26.9312 14.5009H26.9991C26.9885 14.5 26.9771 14.5 26.9656 14.5Z" fill="url(#paint1_linear_57_636)"/>
<defs>
<linearGradient id="paint0_linear_57_636" x1="16.2273" y1="30" x2="16.2273" y2="1.00558e-07" gradientUnits="userSpaceOnUse">
<stop stop-color="#304D71"/>
<stop offset="1" stop-color="#3C6BA5"/>
</linearGradient>
<linearGradient id="paint1_linear_57_636" x1="15" y1="2" x2="15" y2="27" gradientUnits="userSpaceOnUse">
<stop stop-color="#C1EA9E"/>
<stop offset="1" stop-color="#578867"/>
</linearGradient>
</defs>
</svg>
