<svg width="15" height="15" viewBox="0 0 15 15" fill="none" xmlns="http://www.w3.org/2000/svg">
<rect x="0.5" y="0.5" width="14" height="14" rx="2.5" stroke="white"/>
<mask id="path-2-outside-1_57_630" maskUnits="userSpaceOnUse" x="6" y="3" width="3" height="9" fill="black">
<rect fill="white" x="6" y="3" width="3" height="9"/>
<path d="M7.17324 11C7.10658 11 7.07324 10.9667 7.07324 10.9V6.22C7.07324 6.15333 7.10658 6.12 7.17324 6.12H7.82324C7.88991 6.12 7.92324 6.15333 7.92324 6.22V10.9C7.92324 10.9667 7.88991 11 7.82324 11H7.17324ZM7.50324 5.3C7.30991 5.3 7.16991 5.25 7.08324 5.15C6.99658 5.04333 6.95324 4.91 6.95324 4.75V4.65C6.95324 4.49 6.99658 4.36 7.08324 4.26C7.16991 4.15333 7.30991 4.1 7.50324 4.1C7.69658 4.1 7.83658 4.15333 7.92324 4.26C8.00991 4.36 8.05324 4.49 8.05324 4.65V4.75C8.05324 4.91 8.00991 5.04333 7.92324 5.15C7.83658 5.25 7.69658 5.3 7.50324 5.3Z"/>
</mask>
<path d="M7.17324 11C7.10658 11 7.07324 10.9667 7.07324 10.9V6.22C7.07324 6.15333 7.10658 6.12 7.17324 6.12H7.82324C7.88991 6.12 7.92324 6.15333 7.92324 6.22V10.9C7.92324 10.9667 7.88991 11 7.82324 11H7.17324ZM7.50324 5.3C7.30991 5.3 7.16991 5.25 7.08324 5.15C6.99658 5.04333 6.95324 4.91 6.95324 4.75V4.65C6.95324 4.49 6.99658 4.36 7.08324 4.26C7.16991 4.15333 7.30991 4.1 7.50324 4.1C7.69658 4.1 7.83658 4.15333 7.92324 4.26C8.00991 4.36 8.05324 4.49 8.05324 4.65V4.75C8.05324 4.91 8.00991 5.04333 7.92324 5.15C7.83658 5.25 7.69658 5.3 7.50324 5.3Z" fill="white"/>
<path d="M7.08324 5.15L6.92794 5.27618L6.9321 5.28099L7.08324 5.15ZM7.08324 4.26L7.23446 4.39105L7.23847 4.38612L7.08324 4.26ZM7.92324 4.26L7.76794 4.38618L7.7721 4.39099L7.92324 4.26ZM7.92324 5.15L8.07446 5.28105L8.07847 5.27612L7.92324 5.15ZM7.17324 10.8C7.17321 10.8 7.17328 10.8 7.17324 10.8C7.17321 10.8 7.17328 10.8 7.17325 10.8C7.17325 10.8 7.17325 10.8 7.17326 10.8C7.17327 10.8 7.17329 10.8 7.17332 10.8C7.17336 10.8 7.17344 10.8 7.17354 10.8C7.17374 10.8 7.17404 10.8 7.17444 10.8001C7.17523 10.8001 7.17646 10.8002 7.17809 10.8004C7.18131 10.8009 7.18636 10.8019 7.19274 10.804C7.20618 10.8085 7.22356 10.8175 7.23966 10.8336C7.27373 10.8676 7.27324 10.9025 7.27324 10.9H6.87324C6.87324 10.9642 6.88942 11.049 6.95682 11.1164C7.02422 11.1838 7.10908 11.2 7.17324 11.2V10.8ZM7.27324 10.9V6.22H6.87324V10.9H7.27324ZM7.27324 6.22C7.27324 6.2175 7.27373 6.25235 7.23966 6.28642C7.22356 6.30252 7.20618 6.31151 7.19274 6.31599C7.18636 6.31811 7.18131 6.31909 7.17809 6.31955C7.17646 6.31978 7.17523 6.31989 7.17444 6.31995C7.17404 6.31997 7.17374 6.31999 7.17354 6.31999C7.17344 6.32 7.17337 6.32 7.17332 6.32C7.17329 6.32 7.17327 6.32 7.17326 6.32C7.17325 6.32 7.17325 6.32 7.17325 6.32C7.17328 6.32 7.17321 6.32 7.17324 6.32C7.17328 6.32 7.17321 6.32 7.17324 6.32V5.92C7.10908 5.92 7.02422 5.93618 6.95682 6.00358C6.88942 6.07098 6.87324 6.15584 6.87324 6.22H7.27324ZM7.17324 6.32H7.82324V5.92H7.17324V6.32ZM7.82324 6.32C7.82327 6.32 7.82321 6.32 7.82324 6.32C7.82327 6.32 7.82321 6.32 7.82324 6.32C7.82323 6.32 7.82323 6.32 7.82322 6.32C7.82321 6.32 7.82319 6.32 7.82317 6.32C7.82312 6.32 7.82305 6.32 7.82295 6.31999C7.82275 6.31999 7.82245 6.31997 7.82205 6.31995C7.82125 6.31989 7.82002 6.31978 7.8184 6.31955C7.81518 6.31909 7.81012 6.31811 7.80375 6.31599C7.79031 6.31151 7.77292 6.30252 7.75682 6.28642C7.72275 6.25235 7.72324 6.2175 7.72324 6.22H8.12324C8.12324 6.15584 8.10707 6.07098 8.03966 6.00358C7.97226 5.93618 7.8874 5.92 7.82324 5.92V6.32ZM7.72324 6.22V10.9H8.12324V6.22H7.72324ZM7.72324 10.9C7.72324 10.9 7.72324 10.9 7.72324 10.9C7.72324 10.9 7.72324 10.9 7.72324 10.9C7.72324 10.9 7.72324 10.9 7.72324 10.9C7.72324 10.9 7.72324 10.9 7.72324 10.8999C7.72324 10.8999 7.72325 10.8998 7.72325 10.8997C7.72326 10.8995 7.72327 10.8992 7.72329 10.8988C7.72335 10.898 7.72346 10.8968 7.72369 10.8952C7.72415 10.8919 7.72513 10.8869 7.72726 10.8805C7.73174 10.8671 7.74072 10.8497 7.75682 10.8336C7.79089 10.7995 7.82575 10.8 7.82324 10.8V11.2C7.8874 11.2 7.97226 11.1838 8.03966 11.1164C8.10707 11.049 8.12324 10.9642 8.12324 10.9H7.72324ZM7.82324 10.8H7.17324V11.2H7.82324V10.8ZM7.50324 5.1C7.34059 5.1 7.26823 5.05807 7.23438 5.01901L6.9321 5.28099C7.07159 5.44193 7.27923 5.5 7.50324 5.5V5.1ZM7.23846 5.02388C7.18539 4.95855 7.15324 4.87197 7.15324 4.75H6.75324C6.75324 4.94803 6.80777 5.12811 6.92802 5.27612L7.23846 5.02388ZM7.15324 4.75V4.65H6.75324V4.75H7.15324ZM7.15324 4.65C7.15324 4.5276 7.18549 4.44739 7.23438 4.39099L6.9321 4.12901C6.80766 4.27261 6.75324 4.4524 6.75324 4.65H7.15324ZM7.23847 4.38612C7.27348 4.34302 7.34446 4.3 7.50324 4.3V3.9C7.27536 3.9 7.06634 3.96365 6.92802 4.13388L7.23847 4.38612ZM7.50324 4.3C7.66203 4.3 7.733 4.34302 7.76802 4.38612L8.07847 4.13388C7.94015 3.96365 7.73113 3.9 7.50324 3.9V4.3ZM7.7721 4.39099C7.82099 4.44739 7.85324 4.5276 7.85324 4.65H8.25324C8.25324 4.4524 8.19883 4.27261 8.07438 4.12901L7.7721 4.39099ZM7.85324 4.65V4.75H8.25324V4.65H7.85324ZM7.85324 4.75C7.85324 4.87197 7.8211 4.95855 7.76802 5.02388L8.07847 5.27612C8.19872 5.12811 8.25324 4.94803 8.25324 4.75H7.85324ZM7.7721 5.01901C7.73826 5.05807 7.66589 5.1 7.50324 5.1V5.5C7.72726 5.5 7.93489 5.44193 8.07438 5.28099L7.7721 5.01901Z" fill="white" mask="url(#path-2-outside-1_57_630)"/>
</svg>
