<svg width="26" height="26" viewBox="0 0 26 26" fill="none" xmlns="http://www.w3.org/2000/svg">
<rect x="0.5" y="0.5" width="25" height="25" rx="2.5" fill="url(#paint0_linear_57_648)" stroke="white"/>
<path fill-rule="evenodd" clip-rule="evenodd" d="M4.1391 21.6738C3.42559 21.1233 3.27097 20.0678 3.79374 19.3164L12.9868 6.10281L22.1798 19.3164C22.7026 20.0678 22.5479 21.1233 21.8344 21.6738C21.1209 22.2243 20.1187 22.0615 19.5959 21.3101L12.9868 11.8104L6.37758 21.3101C5.85482 22.0615 4.85261 22.2243 4.1391 21.6738Z" fill="white"/>
<path fill-rule="evenodd" clip-rule="evenodd" d="M4.50685 18.5709C3.79334 18.0204 3.63871 16.965 4.16148 16.2136L13.3545 2.99996L22.5475 16.2136C23.0703 16.965 22.9157 18.0204 22.2022 18.5709C21.4887 19.1215 20.4864 18.9586 19.9637 18.2072L13.3545 8.70752L6.74533 18.2072C6.22256 18.9586 5.22036 19.1215 4.50685 18.5709Z" fill="#A4D8E4"/>
<path fill-rule="evenodd" clip-rule="evenodd" d="M3.7977 18.5709C3.08419 18.0204 2.92957 16.965 3.45234 16.2136L12.6454 2.99996L21.8384 16.2136C22.3612 16.965 22.2065 18.0204 21.493 18.5709C20.7795 19.1215 19.7773 18.9586 19.2545 18.2072L12.6454 8.70752L6.03618 18.2072C5.51341 18.9586 4.51121 19.1215 3.7977 18.5709Z" fill="#FDEEB5"/>
<rect width="1.07165" height="5.2681" rx="0.535827" transform="matrix(0.784694 0.619883 -0.580165 0.814499 7.1925 12.4727)" fill="white"/>
<defs>
<linearGradient id="paint0_linear_57_648" x1="14.0636" y1="26" x2="14.0636" y2="8.71503e-08" gradientUnits="userSpaceOnUse">
<stop stop-color="#304D71"/>
<stop offset="1" stop-color="#578867"/>
</linearGradient>
</defs>
</svg>
