<svg width="40" height="40" viewBox="0 0 40 40" fill="none" xmlns="http://www.w3.org/2000/svg">
<rect x="0.5" y="0.5" width="39" height="39" rx="3.5" fill="url(#paint0_linear_57_613)" stroke="white"/>
<path fill-rule="evenodd" clip-rule="evenodd" d="M10.112 25.8384C9.31582 25.2241 9.14327 24.0463 9.72664 23.2078L19.9853 8.4625L30.244 23.2078C30.8273 24.0463 30.6548 25.2241 29.8586 25.8384C29.0623 26.4528 27.944 26.2711 27.3606 25.4326L19.9853 14.8317L12.61 25.4326C12.0266 26.2711 10.9083 26.4528 10.112 25.8384Z" fill="white"/>
<path fill-rule="evenodd" clip-rule="evenodd" d="M10.5224 22.376C9.72619 21.7616 9.55364 20.5838 10.137 19.7453L20.3957 5L30.6543 19.7453C31.2377 20.5838 31.0652 21.7616 30.2689 22.376C29.4727 22.9903 28.3543 22.8086 27.771 21.9701L20.3957 11.3692L13.0204 21.9701C12.437 22.8086 11.3186 22.9903 10.5224 22.376Z" fill="#A4D8E4"/>
<path fill-rule="evenodd" clip-rule="evenodd" d="M9.73107 22.376C8.93485 21.7616 8.7623 20.5838 9.34567 19.7453L19.6043 5L29.863 19.7453C30.4464 20.5838 30.2738 21.7616 29.4776 22.376C28.6814 22.9903 27.563 22.8086 26.9796 21.9701L19.6043 11.3692L12.229 21.9701C11.6457 22.8086 10.5273 22.9903 9.73107 22.376Z" fill="#FDEEB5"/>
<rect width="1.19588" height="5.87877" rx="0.597939" transform="matrix(0.784694 0.619883 -0.580165 0.814499 13.5194 15.5708)" fill="white"/>
<defs>
<linearGradient id="paint0_linear_57_613" x1="21.6364" y1="40" x2="21.6364" y2="1.34077e-07" gradientUnits="userSpaceOnUse">
<stop stop-color="#304D71"/>
<stop offset="1" stop-color="#578867"/>
</linearGradient>
</defs>
</svg>
