<svg width="22" height="22" viewBox="0 0 22 22" fill="none" xmlns="http://www.w3.org/2000/svg">
<path d="M13.6583 20.8542H8.34167C7.52584 20.8542 6.48083 20.4233 5.9125 19.8458L2.15417 16.0875C1.57667 15.51 1.14584 14.465 1.14584 13.6583V8.34168C1.14584 7.52585 1.57667 6.48085 2.15417 5.91252L5.9125 2.15418C6.49 1.57668 7.53501 1.14584 8.34167 1.14584H13.6583C14.4742 1.14584 15.5192 1.57668 16.0875 2.15418L19.8458 5.91252C20.4233 6.49002 20.8542 7.53502 20.8542 8.34168V13.6583C20.8542 14.4742 20.4233 15.5192 19.8458 16.0875L16.0875 19.8458C15.51 20.4233 14.4742 20.8542 13.6583 20.8542ZM8.34167 2.52084C7.89251 2.52084 7.19583 2.80501 6.88416 3.12585L3.12584 6.88419C2.81417 7.20502 2.52084 7.89252 2.52084 8.34168V13.6583C2.52084 14.1075 2.80501 14.8042 3.12584 15.1158L6.88416 18.8742C7.205 19.1858 7.89251 19.4792 8.34167 19.4792H13.6583C14.1075 19.4792 14.8042 19.195 15.1158 18.8742L18.8742 15.1158C19.1858 14.795 19.4792 14.1075 19.4792 13.6583V8.34168C19.4792 7.89252 19.195 7.19585 18.8742 6.88419L15.1158 3.12585C14.795 2.81418 14.1075 2.52084 13.6583 2.52084H8.34167Z" fill="white"/>
<path d="M7.79161 14.8958C7.61745 14.8958 7.44328 14.8317 7.30578 14.6942C7.03995 14.4283 7.03995 13.9883 7.30578 13.7225L13.7224 7.30582C13.9883 7.03999 14.4283 7.03999 14.6941 7.30582C14.9599 7.57165 14.9599 8.01165 14.6941 8.27748L8.27745 14.6942C8.13995 14.8317 7.96578 14.8958 7.79161 14.8958Z" fill="white"/>
<path d="M14.2083 14.8958C14.0341 14.8958 13.8599 14.8317 13.7224 14.6942L7.30578 8.27748C7.03995 8.01165 7.03995 7.57165 7.30578 7.30582C7.57162 7.03999 8.01161 7.03999 8.27745 7.30582L14.6941 13.7225C14.9599 13.9883 14.9599 14.4283 14.6941 14.6942C14.5566 14.8317 14.3824 14.8958 14.2083 14.8958Z" fill="white"/>
</svg>
