<svg width="128" height="23" viewBox="0 0 128 23" fill="none" xmlns="http://www.w3.org/2000/svg">
<rect x="0.5" y="0.5" width="127" height="22" rx="3.5" fill="url(#paint0_linear_85_476)" stroke="white"/>
<path d="M35.0313 16.0253C34.2633 16.0253 33.6233 15.924 33.1113 15.7213C32.5993 15.5187 32.2153 15.2147 31.9593 14.8093C31.7033 14.3933 31.5753 13.876 31.5753 13.2573C31.5753 13.204 31.5913 13.1667 31.6233 13.1453C31.6553 13.1133 31.6927 13.0973 31.7353 13.0973H32.7753C32.8287 13.0973 32.866 13.1133 32.8873 13.1453C32.9087 13.1667 32.9193 13.204 32.9193 13.2573C32.9193 13.812 33.0793 14.212 33.3993 14.4573C33.73 14.7027 34.2687 14.8253 35.0153 14.8253C35.9327 14.8253 36.6047 14.6707 37.0313 14.3613C37.4687 14.052 37.6873 13.556 37.6873 12.8733C37.6873 12.276 37.4847 11.8387 37.0793 11.5613C36.674 11.2733 36.0073 11.1293 35.0793 11.1293H33.5433C33.4367 11.1293 33.3833 11.076 33.3833 10.9693V10.1053C33.3833 9.99867 33.4367 9.94533 33.5433 9.94533H34.8553C35.7087 9.94533 36.3273 9.796 36.7113 9.49733C37.106 9.19866 37.3033 8.724 37.3033 8.07333C37.3033 7.476 37.122 7.044 36.7593 6.77733C36.4073 6.5 35.842 6.36133 35.0633 6.36133C34.3487 6.36133 33.826 6.484 33.4953 6.72933C33.1753 6.97467 33.0153 7.38 33.0153 7.94533C33.0153 8.052 32.9673 8.10533 32.8713 8.10533H31.8313C31.7887 8.10533 31.7513 8.08933 31.7193 8.05733C31.6873 8.02533 31.6713 7.988 31.6713 7.94533C31.6713 7.04933 31.9593 6.36133 32.5353 5.88133C33.122 5.40133 33.9967 5.16133 35.1593 5.16133C36.322 5.16133 37.1967 5.39066 37.7833 5.84933C38.37 6.29733 38.6633 6.96933 38.6633 7.86533C38.6633 8.50533 38.498 9.044 38.1673 9.48133C37.8367 9.91867 37.3833 10.228 36.8073 10.4093V10.4253C37.554 10.564 38.114 10.836 38.4873 11.2413C38.8607 11.6467 39.0473 12.1853 39.0473 12.8573C39.0473 13.86 38.7167 14.6387 38.0553 15.1933C37.394 15.748 36.386 16.0253 35.0313 16.0253ZM45.6577 15.8333C45.5937 15.8333 45.551 15.812 45.5297 15.7693C45.5084 15.7267 45.487 15.6733 45.4657 15.6093C45.455 15.524 45.4284 15.3427 45.3857 15.0653C45.3537 14.7773 45.3324 14.5213 45.3217 14.2973L45.2737 13.6893V10.5053C45.2737 9.972 45.167 9.59333 44.9537 9.36933C44.7404 9.14533 44.367 9.03333 43.8337 9.03333C43.3537 9.03333 42.991 9.11867 42.7457 9.28933C42.511 9.44933 42.3937 9.69467 42.3937 10.0253C42.3937 10.132 42.3457 10.1853 42.2497 10.1853H41.1937C41.087 10.1853 41.0284 10.084 41.0177 9.88133C40.9644 9.27333 41.199 8.78267 41.7217 8.40933C42.255 8.02533 42.975 7.83333 43.8817 7.83333C44.8097 7.83333 45.4977 8.052 45.9457 8.48933C46.4044 8.92667 46.6337 9.588 46.6337 10.4733V13.8973C46.6337 14.2707 46.6444 14.6067 46.6657 14.9053C46.687 15.1933 46.7137 15.444 46.7457 15.6573C46.767 15.7747 46.7137 15.8333 46.5857 15.8333H45.6577ZM42.6017 16.0253C41.983 16.0253 41.5084 15.8387 41.1777 15.4653C40.8577 15.092 40.6977 14.548 40.6977 13.8333C40.6977 13.2787 40.8044 12.8253 41.0177 12.4733C41.2417 12.1213 41.5937 11.8493 42.0737 11.6573C42.5644 11.4653 43.215 11.3373 44.0257 11.2733L45.5297 11.1453V12.1853L43.9937 12.3133C43.2577 12.3773 42.751 12.5107 42.4737 12.7133C42.1964 12.916 42.0577 13.2573 42.0577 13.7373C42.0577 14.1 42.1324 14.372 42.2817 14.5533C42.431 14.7347 42.655 14.8253 42.9537 14.8253C43.3057 14.8253 43.6737 14.708 44.0577 14.4733C44.4417 14.228 44.9484 13.78 45.5777 13.1293V14.3293C45.2044 14.7347 44.8524 15.0653 44.5217 15.3213C44.2017 15.5667 43.887 15.7427 43.5777 15.8493C43.2684 15.9667 42.943 16.0253 42.6017 16.0253ZM55.4999 15.6413C55.5319 15.684 55.5373 15.7267 55.5159 15.7693C55.4946 15.812 55.4519 15.8333 55.3879 15.8333H54.1399C54.0546 15.8333 53.9906 15.8013 53.9479 15.7373L51.5479 12.2013H50.3959V15.6733C50.3959 15.78 50.3426 15.8333 50.2359 15.8333H49.1959C49.0893 15.8333 49.0359 15.78 49.0359 15.6733V5.06533C49.0359 4.95866 49.0893 4.90533 49.1959 4.90533H50.2359C50.3426 4.90533 50.3959 4.95866 50.3959 5.06533V11.1133H51.4999L53.7239 8.12133C53.7773 8.05733 53.8466 8.02533 53.9319 8.02533H55.1319C55.1959 8.02533 55.2386 8.04666 55.2599 8.08933C55.2813 8.12133 55.2706 8.164 55.2279 8.21733L52.6999 11.5133L55.4999 15.6413ZM60.2899 16.0253C59.8846 16.0253 59.4633 15.972 59.0259 15.8653C58.5886 15.7587 58.2366 15.6147 57.9699 15.4333L57.9219 14.2813C58.2313 14.452 58.5726 14.5853 58.9459 14.6813C59.3193 14.7773 59.6713 14.8253 60.0019 14.8253C60.6206 14.8253 61.0739 14.644 61.3619 14.2813C61.6499 13.9187 61.7939 13.3747 61.7939 12.6493V10.8893C61.7939 10.2493 61.6819 9.78 61.4579 9.48133C61.2339 9.18267 60.9033 9.03333 60.4659 9.03333C60.0926 9.03333 59.7139 9.14533 59.3299 9.36933C58.9566 9.58267 58.4606 9.96667 57.8419 10.5213V9.24133C58.2046 8.91067 58.5406 8.644 58.8499 8.44133C59.1699 8.228 59.4793 8.07333 59.7779 7.97733C60.0873 7.88133 60.4126 7.83333 60.7539 7.83333C61.5433 7.83333 62.1406 8.07867 62.5459 8.56933C62.9513 9.06 63.1539 9.80667 63.1539 10.8093V12.8093C63.1539 13.844 62.9086 14.6387 62.4179 15.1933C61.9273 15.748 61.2179 16.0253 60.2899 16.0253ZM56.9459 18.7933C56.8393 18.7933 56.7859 18.74 56.7859 18.6333V9.83333C56.7859 9.588 56.7753 9.316 56.7539 9.01733C56.7326 8.71866 56.7059 8.452 56.6739 8.21733C56.6633 8.08933 56.7166 8.02533 56.8339 8.02533H57.8099C57.9166 8.02533 57.9753 8.07866 57.9859 8.18533C58.0073 8.26 58.0286 8.36667 58.0499 8.50533C58.0713 8.644 58.0873 8.78267 58.0979 8.92133C58.1086 9.04933 58.1086 9.14 58.0979 9.19333L58.1459 9.99333V18.6333C58.1459 18.74 58.0926 18.7933 57.9859 18.7933H56.9459ZM68.2597 16.0253C67.2464 16.0253 66.5104 15.796 66.0517 15.3373C65.6037 14.868 65.3797 14.1213 65.3797 13.0973V8.18533C65.3797 8.07866 65.433 8.02533 65.5397 8.02533H66.5797C66.6864 8.02533 66.7397 8.07866 66.7397 8.18533V13.3213C66.7397 13.844 66.873 14.2387 67.1397 14.5053C67.417 14.7613 67.8224 14.8893 68.3557 14.8893C68.889 14.8893 69.305 14.756 69.6037 14.4893C69.9024 14.212 70.0517 13.8227 70.0517 13.3213V12.5373C70.0517 12.1 69.945 11.7747 69.7317 11.5613C69.5184 11.3373 69.209 11.2253 68.8037 11.2253C68.3664 11.2253 67.961 11.3533 67.5877 11.6093C67.2144 11.8547 66.873 12.212 66.5637 12.6813L66.5477 11.3533C66.921 10.916 67.3157 10.5853 67.7317 10.3613C68.1584 10.1373 68.6384 10.0253 69.1717 10.0253C69.9077 10.0253 70.4677 10.2333 70.8517 10.6493C71.2464 11.0653 71.4437 11.6787 71.4437 12.4893V13.1773C71.4437 14.116 71.1717 14.8253 70.6277 15.3053C70.0837 15.7853 69.2944 16.0253 68.2597 16.0253ZM73.2517 15.8333C73.145 15.8333 73.0917 15.78 73.0917 15.6733V8.18533C73.0917 8.07866 73.145 8.02533 73.2517 8.02533H74.2917C74.3984 8.02533 74.4517 8.07866 74.4517 8.18533V15.6733C74.4517 15.78 74.3984 15.8333 74.2917 15.8333H73.2517ZM77.0084 15.8333C76.9018 15.8333 76.8484 15.78 76.8484 15.6733V9.97733C76.8484 9.68933 76.8378 9.39067 76.8164 9.08133C76.8058 8.76133 76.7791 8.47333 76.7364 8.21733C76.7151 8.08933 76.7738 8.02533 76.9124 8.02533H77.8724C77.9258 8.02533 77.9631 8.03066 77.9844 8.04133C78.0058 8.052 78.0218 8.084 78.0324 8.13733C78.0538 8.29733 78.0804 8.468 78.1124 8.64933C78.1444 8.83067 78.1658 9.01733 78.1764 9.20933C78.6564 8.72933 79.1098 8.38266 79.5364 8.16933C79.9631 7.94533 80.4218 7.83333 80.9124 7.83333C81.4564 7.83333 81.8938 7.96133 82.2244 8.21733C82.5658 8.46267 82.8058 8.83067 82.9444 9.32133C83.4564 8.79867 83.9311 8.42 84.3684 8.18533C84.8058 7.95067 85.2804 7.83333 85.7924 7.83333C86.5071 7.83333 87.0458 8.05733 87.4084 8.50533C87.7818 8.95333 87.9684 9.61467 87.9684 10.4893V15.6733C87.9684 15.78 87.9151 15.8333 87.8084 15.8333H86.7684C86.6618 15.8333 86.6084 15.78 86.6084 15.6733V10.5693C86.6084 10.0573 86.5124 9.67333 86.3204 9.41733C86.1391 9.16133 85.8511 9.03333 85.4564 9.03333C85.1044 9.03333 84.7418 9.14533 84.3684 9.36933C84.0058 9.58267 83.5791 9.924 83.0884 10.3933V15.6733C83.0884 15.78 83.0351 15.8333 82.9284 15.8333H81.8884C81.7818 15.8333 81.7284 15.78 81.7284 15.6733V10.5693C81.7284 10.0573 81.6324 9.67333 81.4404 9.41733C81.2591 9.16133 80.9711 9.03333 80.5764 9.03333C80.2244 9.03333 79.8618 9.14533 79.4884 9.36933C79.1258 9.58267 78.6991 9.924 78.2084 10.3933V15.6733C78.2084 15.78 78.1551 15.8333 78.0484 15.8333H77.0084ZM93.2441 16.0253C92.2307 16.0253 91.4947 15.796 91.0361 15.3373C90.5881 14.868 90.3641 14.1213 90.3641 13.0973V8.18533C90.3641 8.07866 90.4174 8.02533 90.5241 8.02533H91.5641C91.6707 8.02533 91.7241 8.07866 91.7241 8.18533V13.3213C91.7241 13.844 91.8574 14.2387 92.1241 14.5053C92.4014 14.7613 92.8067 14.8893 93.3401 14.8893C93.8734 14.8893 94.2894 14.756 94.5881 14.4893C94.8867 14.212 95.0361 13.8227 95.0361 13.3213V12.5373C95.0361 12.1 94.9294 11.7747 94.7161 11.5613C94.5027 11.3373 94.1934 11.2253 93.7881 11.2253C93.3507 11.2253 92.9454 11.3533 92.5721 11.6093C92.1987 11.8547 91.8574 12.212 91.5481 12.6813L91.5321 11.3533C91.9054 10.916 92.3001 10.5853 92.7161 10.3613C93.1427 10.1373 93.6227 10.0253 94.1561 10.0253C94.8921 10.0253 95.4521 10.2333 95.8361 10.6493C96.2307 11.0653 96.4281 11.6787 96.4281 12.4893V13.1773C96.4281 14.116 96.1561 14.8253 95.6121 15.3053C95.0681 15.7853 94.2787 16.0253 93.2441 16.0253Z" fill="white"/>
<defs>
<linearGradient id="paint0_linear_85_476" x1="69.2364" y1="23" x2="69.2364" y2="7.70942e-08" gradientUnits="userSpaceOnUse">
<stop stop-color="#304D71"/>
<stop offset="1" stop-color="#578867"/>
</linearGradient>
</defs>
</svg>
