<svg width="16" height="17" viewBox="0 0 16 17" fill="none" xmlns="http://www.w3.org/2000/svg">
<circle cx="8.11284" cy="11.6623" r="4.31346" fill="#FFCE22" stroke="#FFCE22" stroke-width="0.5"/>
<path d="M8.89662 5.13301C9.35048 6.50459 8.93773 8.1141 8.37789 9.41778C8.10071 10.0632 7.79343 10.6201 7.55526 11.0157C7.4363 11.2133 7.3349 11.3701 7.26358 11.4771C7.26014 11.4823 7.25677 11.4873 7.25347 11.4922C7.2452 11.4896 7.23666 11.4868 7.22784 11.484C7.10019 11.4427 6.91583 11.3803 6.69121 11.2963C6.24148 11.128 5.63275 10.874 4.99543 10.5308C3.70658 9.83686 2.36191 8.8109 1.90991 7.44496C0.963933 4.58622 1.85783 2.11757 3.92958 1.43202C4.97405 1.08639 5.96809 1.29869 6.82635 1.94697C7.69198 2.60082 8.42365 3.7037 8.89662 5.13301Z" stroke="#FFCE22" stroke-width="0.5"/>
<path d="M14.4131 7.07374C14.0481 8.47159 12.8265 9.59786 11.6477 10.3875C11.0641 10.7784 10.5034 11.0787 10.0884 11.2811C9.88111 11.3823 9.71072 11.4587 9.5927 11.5097C9.587 11.5122 9.58143 11.5146 9.57598 11.5169C9.57048 11.5102 9.56481 11.5033 9.55896 11.4961C9.47426 11.392 9.35349 11.2394 9.21068 11.0467C8.92477 10.6609 8.55207 10.1167 8.20383 9.48217C7.49958 8.19891 6.92904 6.60667 7.29252 5.21456C8.05323 2.30104 10.1459 0.715426 12.2573 1.26672C13.3218 1.54466 14.0406 2.26338 14.4083 3.27416C14.7792 4.2936 14.7934 5.61704 14.4131 7.07374Z" stroke="#FFCE22" stroke-width="0.5"/>
</svg>
