<svg width="140" height="30" viewBox="0 0 140 30" fill="none" xmlns="http://www.w3.org/2000/svg">
<rect x="0.5" y="0.5" width="139" height="29" rx="3.5" fill="url(#paint0_linear_57_408)" stroke="white"/>
<path d="M45.3277 21C45.1944 21 45.1277 20.9333 45.1277 20.8V8.1C45.1277 7.96667 45.1944 7.9 45.3277 7.9H46.6277C46.7611 7.9 46.8277 7.96667 46.8277 8.1V13.5H53.2477V8.1C53.2477 7.96667 53.3144 7.9 53.4477 7.9H54.7477C54.8811 7.9 54.9477 7.96667 54.9477 8.1V20.8C54.9477 20.9333 54.8811 21 54.7477 21H53.4477C53.3144 21 53.2477 20.9333 53.2477 20.8V14.98H46.8277V20.8C46.8277 20.9333 46.7611 21 46.6277 21H45.3277ZM63.8104 21C63.7304 21 63.6771 20.9733 63.6504 20.92C63.6237 20.8667 63.5971 20.8 63.5704 20.72C63.5571 20.6133 63.5237 20.3867 63.4704 20.04C63.4304 19.68 63.4037 19.36 63.3904 19.08L63.3304 18.32V14.34C63.3304 13.6733 63.1971 13.2 62.9304 12.92C62.6637 12.64 62.1971 12.5 61.5304 12.5C60.3304 12.5 59.7304 12.9133 59.7304 13.74C59.7304 13.8733 59.6704 13.94 59.5504 13.94H58.2304C58.0971 13.94 58.0237 13.8133 58.0104 13.56C57.9437 12.8 58.2371 12.1867 58.8904 11.72C59.5571 11.24 60.4571 11 61.5904 11C62.7504 11 63.6104 11.2733 64.1704 11.82C64.7437 12.3667 65.0304 13.1933 65.0304 14.3V18.58C65.0304 19.0467 65.0437 19.4667 65.0704 19.84C65.0971 20.2 65.1304 20.5133 65.1704 20.78C65.1971 20.9267 65.1304 21 64.9704 21H63.8104ZM59.9904 21.24C59.2171 21.24 58.6237 21.0067 58.2104 20.54C57.8104 20.0733 57.6104 19.3933 57.6104 18.5C57.6104 17.8067 57.7437 17.24 58.0104 16.8C58.2904 16.36 58.7304 16.02 59.3304 15.78C59.9437 15.54 60.7571 15.38 61.7704 15.3L63.6504 15.14V16.44L61.7304 16.6C60.8104 16.68 60.1771 16.8467 59.8304 17.1C59.4837 17.3533 59.3104 17.78 59.3104 18.38C59.3104 18.8333 59.4037 19.1733 59.5904 19.4C59.7771 19.6267 60.0571 19.74 60.4304 19.74C60.8704 19.74 61.3304 19.5933 61.8104 19.3C62.2904 18.9933 62.9237 18.4333 63.7104 17.62V19.12C63.2437 19.6267 62.8037 20.04 62.3904 20.36C61.9904 20.6667 61.5971 20.8867 61.2104 21.02C60.8237 21.1667 60.4171 21.24 59.9904 21.24ZM70.8332 24.94C70.0332 24.94 69.3465 24.8133 68.7732 24.56C68.2132 24.32 67.7932 23.9867 67.5132 23.56C67.2465 23.1467 67.1465 22.6733 67.2132 22.14C67.2399 21.9933 67.2732 21.8933 67.3132 21.84C67.3532 21.8 67.4065 21.78 67.4732 21.78H68.7732C68.8932 21.78 68.9532 21.8867 68.9532 22.1C68.9532 22.5133 69.1199 22.84 69.4532 23.08C69.7865 23.3333 70.2599 23.46 70.8732 23.46C71.6332 23.46 72.2065 23.28 72.5932 22.92C72.9932 22.5733 73.1932 22.0667 73.1932 21.4V20.14C73.1932 19.5267 72.9932 19.0733 72.5932 18.78C72.1932 18.4867 71.5799 18.34 70.7532 18.34H69.1932C69.1399 18.34 69.0932 18.32 69.0532 18.28C69.0132 18.24 68.9932 18.1933 68.9932 18.14V17.08C68.9932 17.0133 69.0132 16.9667 69.0532 16.94C69.0932 16.9 69.1399 16.88 69.1932 16.88H70.6132C71.3199 16.88 71.8732 16.6933 72.2732 16.32C72.6865 15.9333 72.8932 15.4133 72.8932 14.76V14.32C72.8932 13.6933 72.7265 13.2267 72.3932 12.92C72.0599 12.6133 71.5532 12.46 70.8732 12.46C70.2999 12.46 69.8599 12.5667 69.5532 12.78C69.2465 12.98 69.0932 13.2667 69.0932 13.64C69.0932 13.7333 69.0799 13.8067 69.0532 13.86C69.0265 13.9133 68.9799 13.94 68.9132 13.94H67.5932C67.4332 13.94 67.3465 13.82 67.3332 13.58C67.2932 13.0867 67.4199 12.6467 67.7132 12.26C68.0065 11.8733 68.4399 11.5667 69.0132 11.34C69.5999 11.1133 70.2932 11 71.0932 11C72.2265 11 73.0799 11.2533 73.6532 11.76C74.2265 12.2667 74.5132 13.02 74.5132 14.02V14.78C74.5132 15.3533 74.3665 15.88 74.0732 16.36C73.7799 16.8267 73.3665 17.1867 72.8332 17.44V17.46C73.5399 17.6333 74.0532 17.96 74.3732 18.44C74.7065 18.9067 74.8732 19.46 74.8732 20.1V21.18C74.8732 21.98 74.7132 22.66 74.3932 23.22C74.0865 23.78 73.6332 24.2067 73.0332 24.5C72.4332 24.7933 71.6999 24.94 70.8332 24.94ZM83.0682 21C82.9882 21 82.9349 20.9733 82.9082 20.92C82.8815 20.8667 82.8549 20.8 82.8282 20.72C82.8149 20.6133 82.7815 20.3867 82.7282 20.04C82.6882 19.68 82.6615 19.36 82.6482 19.08L82.5882 18.32V14.34C82.5882 13.6733 82.4549 13.2 82.1882 12.92C81.9215 12.64 81.4549 12.5 80.7882 12.5C79.5882 12.5 78.9882 12.9133 78.9882 13.74C78.9882 13.8733 78.9282 13.94 78.8082 13.94H77.4882C77.3549 13.94 77.2815 13.8133 77.2682 13.56C77.2015 12.8 77.4949 12.1867 78.1482 11.72C78.8149 11.24 79.7149 11 80.8482 11C82.0082 11 82.8682 11.2733 83.4282 11.82C84.0015 12.3667 84.2882 13.1933 84.2882 14.3V18.58C84.2882 19.0467 84.3015 19.4667 84.3282 19.84C84.3549 20.2 84.3882 20.5133 84.4282 20.78C84.4549 20.9267 84.3882 21 84.2282 21H83.0682ZM79.2482 21.24C78.4749 21.24 77.8815 21.0067 77.4682 20.54C77.0682 20.0733 76.8682 19.3933 76.8682 18.5C76.8682 17.8067 77.0015 17.24 77.2682 16.8C77.5482 16.36 77.9882 16.02 78.5882 15.78C79.2015 15.54 80.0149 15.38 81.0282 15.3L82.9082 15.14V16.44L80.9882 16.6C80.0682 16.68 79.4349 16.8467 79.0882 17.1C78.7415 17.3533 78.5682 17.78 78.5682 18.38C78.5682 18.8333 78.6615 19.1733 78.8482 19.4C79.0349 19.6267 79.3149 19.74 79.6882 19.74C80.1282 19.74 80.5882 19.5933 81.0682 19.3C81.5482 18.9933 82.1815 18.4333 82.9682 17.62V19.12C82.5015 19.6267 82.0615 20.04 81.6482 20.36C81.2482 20.6667 80.8549 20.8867 80.4682 21.02C80.0815 21.1667 79.6749 21.24 79.2482 21.24ZM91.051 24.94C89.8777 24.94 88.9577 24.7 88.291 24.22C87.6377 23.74 87.3377 23.1467 87.391 22.44C87.4043 22.32 87.431 22.2333 87.471 22.18C87.511 22.1267 87.5643 22.1 87.631 22.1H88.951C89.0177 22.1 89.0643 22.12 89.091 22.16C89.1177 22.2 89.131 22.2733 89.131 22.38C89.131 22.7133 89.2977 22.9733 89.631 23.16C89.9777 23.36 90.4577 23.46 91.071 23.46C91.8843 23.46 92.471 23.2867 92.831 22.94C93.191 22.6067 93.371 22.0533 93.371 21.28V20.68C93.371 20.4533 93.371 20.2267 93.371 20C93.371 19.76 93.3777 19.5267 93.391 19.3H93.371C92.7977 19.7933 92.251 20.1533 91.731 20.38C91.211 20.6067 90.651 20.72 90.051 20.72C89.051 20.72 88.2977 20.4133 87.791 19.8C87.2843 19.1867 87.031 18.2533 87.031 17V15.06C87.031 13.7133 87.3577 12.7 88.011 12.02C88.6643 11.34 89.671 11 91.031 11C91.5243 11 91.9777 11.0333 92.391 11.1C92.8043 11.1667 93.2243 11.24 93.651 11.32C94.0777 11.4 94.551 11.46 95.071 11.5V21.18C95.071 21.98 94.9177 22.66 94.611 23.22C94.3043 23.78 93.851 24.2067 93.251 24.5C92.651 24.7933 91.9177 24.94 91.051 24.94ZM90.411 19.22C90.8643 19.22 91.311 19.1067 91.751 18.88C92.191 18.6533 92.731 18.2667 93.371 17.72V12.72C93.0377 12.6533 92.6577 12.6 92.231 12.56C91.8177 12.52 91.4643 12.5 91.171 12.5C90.3043 12.5 89.6777 12.72 89.291 13.16C88.9177 13.5867 88.731 14.2733 88.731 15.22V16.9C88.731 17.7133 88.8643 18.3067 89.131 18.68C89.411 19.04 89.8377 19.22 90.411 19.22Z" fill="white"/>
<defs>
<linearGradient id="paint0_linear_57_408" x1="75.7273" y1="30" x2="75.7273" y2="1.00558e-07" gradientUnits="userSpaceOnUse">
<stop stop-color="#304D71"/>
<stop offset="1" stop-color="#578867"/>
</linearGradient>
</defs>
</svg>
