<svg width="30" height="30" viewBox="0 0 30 30" fill="none" xmlns="http://www.w3.org/2000/svg">
<circle cx="15" cy="21.5625" r="7.9375" fill="black" stroke="black"/>
<path d="M16.4133 9.50246C17.248 12.0247 16.4896 14.9895 15.4554 17.3979C14.9438 18.5894 14.3765 19.6174 13.9368 20.3477C13.7172 20.7125 13.53 21.002 13.3984 21.1994C13.3974 21.2008 13.3965 21.2022 13.3955 21.2036C13.3889 21.2015 13.3822 21.1993 13.3754 21.1971C13.1398 21.121 12.7995 21.0058 12.3848 20.8506C11.5544 20.54 10.4305 20.0709 9.25409 19.4375C6.87274 18.1553 4.39804 16.2643 3.56714 13.7534C1.82138 8.47768 3.47527 3.94172 7.27737 2.68358C9.1956 2.04882 11.0207 2.43809 12.5987 3.62998C14.1913 4.83299 15.5405 6.86475 16.4133 9.50246Z" stroke="black"/>
<path d="M26.6123 13.0692C25.9411 15.6397 23.6924 17.7155 21.5148 19.1742C20.4375 19.8958 19.4024 20.4501 18.6362 20.8239C18.2535 21.0106 17.939 21.1518 17.7213 21.2458C17.7197 21.2465 17.7181 21.2472 17.7166 21.2479C17.7122 21.2425 17.7077 21.237 17.7032 21.2314C17.5469 21.0395 17.3239 20.7577 17.0603 20.402C16.5324 19.6897 15.8443 18.6849 15.2014 17.5135C13.9002 15.1425 12.8518 12.2098 13.5199 9.65076C14.9238 4.274 18.7784 1.36676 22.6534 2.37851C24.6084 2.88895 25.9283 4.20813 26.6044 6.06647C27.2868 7.94216 27.3142 10.3809 26.6123 13.0692Z" stroke="black"/>
<circle cx="14.8" cy="21.4001" r="6.94997" fill="#FFCE22" stroke="#FFCE22" stroke-width="0.5"/>
<path d="M16.1737 11.0533C16.9071 13.2697 16.2375 15.8513 15.3509 17.9159C14.9103 18.9419 14.4222 19.8264 14.044 20.4545C13.855 20.7684 13.6938 21.0177 13.5802 21.1881C13.5515 21.2313 13.5258 21.2693 13.5034 21.3021C13.4622 21.2893 13.414 21.274 13.3593 21.2563C13.156 21.1907 12.8631 21.0915 12.5064 20.958C11.7925 20.6909 10.8258 20.2875 9.81303 19.7422C7.77325 18.6439 5.60777 17.0025 4.87622 14.7917C3.37115 10.2434 4.77716 6.23993 8.15449 5.12234C9.85175 4.56071 11.4691 4.9081 12.8573 5.95669C14.2529 7.01083 15.4212 8.77922 16.1737 11.0533Z" stroke="#FFCE22" stroke-width="0.5"/>
<path d="M24.8799 14.1969C24.2901 16.4558 22.3242 18.2582 20.4575 19.5087C19.5298 20.1301 18.6392 20.6069 17.9802 20.9284C17.6509 21.0891 17.3801 21.2107 17.1921 21.2919C17.1445 21.3124 17.1022 21.3304 17.0656 21.3458C17.0381 21.3126 17.0059 21.2736 16.9696 21.2289C16.8347 21.0633 16.6428 20.8207 16.416 20.5148C15.9622 19.9025 15.3703 19.0382 14.8169 18.0298C13.7023 15.9989 12.7777 13.4437 13.3659 11.1907C14.5763 6.55518 17.9333 3.96 21.3754 4.85872C23.1051 5.31036 24.2735 6.4814 24.8683 8.1163C25.4662 9.75987 25.485 11.8793 24.8799 14.1969Z" stroke="#FFCE22" stroke-width="0.5"/>
</svg>
