<svg width="26" height="25" viewBox="0 0 26 25" fill="none" xmlns="http://www.w3.org/2000/svg">
<path d="M14.2592 6.7091C14.2656 6.7091 14.272 6.7086 14.2784 6.7086H14.2404C7.57004 6.68296 7.56905 0 7.56905 0C7.56905 0 7.56856 6.68296 0.898177 6.7086H0.860199C0.866611 6.7086 0.873023 6.7091 0.879435 6.7091C0.873023 6.7091 0.866611 6.70959 0.860199 6.70959H0.898177C7.56856 6.73524 7.56905 13.4182 7.56905 13.4182C7.56905 13.4182 7.56954 6.73524 14.2399 6.70959H14.2779C14.272 6.7091 14.2656 6.7091 14.2592 6.7091Z" fill="#C1EA9E"/>
<path d="M25.9571 17.7189C25.9635 17.7189 25.97 17.7184 25.9764 17.7184H25.9384C19.268 17.6928 19.267 11.0098 19.267 11.0098C19.267 11.0098 19.2665 17.6928 12.5961 17.7184H12.5582C12.5646 17.7184 12.571 17.7189 12.5774 17.7189C12.571 17.7189 12.5646 17.7194 12.5582 17.7194H12.5961C19.2665 17.7451 19.267 24.428 19.267 24.428C19.267 24.428 19.2675 17.7451 25.9379 17.7194H25.9759C25.97 17.7189 25.9635 17.7189 25.9571 17.7189Z" fill="#A4D8E4"/>
<path d="M26 12.2956C26 12.2956 16.4133 18.3776 13.0543 18.3776C9.6953 18.3776 6.97227 15.6546 6.97227 12.2956C6.97227 8.93654 9.6953 6.21352 13.0543 6.21352C16.4133 6.21352 26 12.2956 26 12.2956Z" fill="#FDEEB5"/>
<path d="M-6.11776e-06 12.2955C-6.11776e-06 12.2955 9.58667 6.21351 12.9457 6.21351C16.3047 6.21351 19.0277 8.93653 19.0277 12.2955C19.0277 15.6546 16.3047 18.3776 12.9457 18.3776C9.58667 18.3776 -6.11776e-06 12.2955 -6.11776e-06 12.2955Z" fill="white"/>
<circle cx="13.1602" cy="12.128" r="4.55875" fill="black"/>
<circle cx="13.3322" cy="9.54751" r="0.946155" fill="white"/>
</svg>
